<?xml version="1.0" encoding="UTF-8"?><svg id="Layer_1" xmlns="http://www.w3.org/2000/svg" viewBox="0 0 263.19 180.96"><defs><style>.cls-1{fill:#fff;}.cls-2{fill:#cbfd80;}.cls-3{fill:#82e896;}.cls-4{fill:#34d399;}</style></defs><path class="cls-2" d="M246.76,95.45c10.6-10.6,16.44-24.63,16.44-39.51s-5.84-28.91-16.44-39.51S222.13,0,207.25,0s-28.91,5.84-39.51,16.44-16.44,24.63-16.44,39.51,5.84,28.91,16.44,39.51c10.6,10.6,24.63,16.44,39.51,16.44s28.91-5.84,39.51-16.44Z"/><path class="cls-2" d="M95.45,16.44C84.85,5.84,70.82,0,55.94,0S27.04,5.84,16.44,16.44C5.84,27.04,0,41.07,0,55.94s5.84,28.91,16.44,39.51c10.6,10.6,24.63,16.44,39.51,16.44s28.91-5.84,39.51-16.44c10.6-10.6,16.44-24.63,16.44-39.51s-5.84-28.91-16.44-39.51Z"/><path class="cls-3" d="M162.11,102.75c-.23-.22-.45-.44-.68-.67-.15-.15-.3-.29-.44-.44-.41-.41-.81-.82-1.2-1.24-.06-.06-.11-.13-.17-.19-.34-.36-.67-.73-1-1.1-.14-.16-.27-.32-.41-.47-.25-.28-.49-.56-.73-.85-.15-.18-.3-.36-.45-.54-.22-.27-.44-.54-.66-.81-.15-.19-.3-.38-.45-.57-.21-.27-.42-.53-.62-.8-.15-.2-.3-.39-.44-.59-.2-.27-.4-.54-.59-.81-.14-.2-.28-.4-.42-.6-.2-.28-.39-.56-.58-.84-.13-.2-.27-.39-.39-.59-.2-.3-.39-.6-.58-.9-.12-.18-.24-.37-.35-.55-.21-.34-.42-.68-.62-1.02-.09-.15-.18-.3-.27-.45-.29-.5-.58-1-.86-1.5h0c-.27-.5-.54-1.01-.81-1.51-.08-.16-.16-.32-.24-.48-.18-.35-.36-.7-.53-1.06-.09-.19-.18-.39-.27-.58-.15-.32-.31-.65-.45-.97-.1-.21-.19-.42-.28-.63-.14-.32-.27-.64-.41-.95-.09-.22-.18-.43-.27-.65-.13-.32-.26-.64-.38-.96-.08-.22-.17-.43-.25-.66-.12-.32-.24-.65-.36-.98-.08-.22-.16-.43-.23-.65-.12-.34-.23-.69-.34-1.03-.06-.2-.13-.4-.2-.6-.12-.38-.24-.77-.35-1.16-.05-.17-.1-.32-.15-.49-.32-1.11-.6-2.22-.87-3.35-.04-.17-.08-.35-.11-.53-.09-.38-.17-.77-.25-1.16-.05-.22-.08-.43-.12-.65-.07-.35-.13-.7-.2-1.06-.04-.23-.08-.46-.11-.7-.05-.34-.11-.68-.16-1.02-.04-.24-.07-.48-.1-.72-.05-.34-.09-.67-.13-1.01-.03-.24-.05-.49-.08-.73-.04-.34-.07-.68-.1-1.03-.02-.24-.05-.48-.06-.72-.03-.35-.05-.71-.07-1.07-.01-.23-.03-.45-.04-.68-.02-.39-.04-.79-.05-1.18,0-.19-.02-.38-.02-.58-.01-.59-.02-1.17-.02-1.76s0-1.18.02-1.76c0-.19.01-.38.02-.58.01-.39.03-.79.05-1.18.01-.23.03-.46.04-.68.02-.36.05-.71.07-1.07.02-.24.04-.48.06-.72.03-.34.06-.68.1-1.02.03-.24.05-.49.08-.73.04-.34.08-.67.13-1.01.03-.24.06-.48.1-.72.05-.34.11-.68.16-1.02.04-.23.07-.47.11-.7.06-.35.13-.7.2-1.06l.12-.65c.08-.39.16-.77.25-1.16.04-.17.07-.35.11-.53.26-1.13.55-2.24.87-3.35.05-.17.1-.32.15-.49.11-.39.23-.77.35-1.16.06-.2.13-.4.2-.6.11-.34.23-.69.34-1.03.07-.22.15-.43.23-.64.12-.33.24-.65.36-.98.08-.22.16-.43.25-.65.12-.32.25-.64.38-.96.09-.22.17-.43.27-.65.13-.32.27-.64.41-.96.09-.21.18-.41.27-.62.15-.33.3-.66.46-.99.09-.19.18-.38.27-.57.17-.36.36-.72.54-1.08.08-.15.15-.31.23-.46.53-1.02,1.08-2.03,1.67-3.03.08-.14.17-.28.25-.42.21-.35.42-.7.64-1.05.11-.18.23-.36.34-.54.2-.31.39-.61.59-.92.13-.19.26-.38.38-.57.2-.29.39-.58.59-.86.14-.19.27-.38.41-.58.2-.28.4-.55.6-.83.14-.19.28-.38.43-.58.21-.27.42-.55.63-.82.15-.18.29-.37.43-.55.22-.28.45-.55.68-.83.14-.17.28-.35.43-.52.25-.3.5-.59.76-.88.13-.15.25-.29.38-.44.35-.4.71-.79,1.08-1.18.04-.04.07-.07.1-.11.4-.42.8-.84,1.21-1.25.14-.14.27-.27.41-.41.23-.23.47-.47.7-.7-9.05-5.91-19.7-9.12-30.52-9.12s-21.46,3.21-30.52,9.13c.24.23.47.46.7.7.14.14.27.27.41.41.41.41.81.83,1.21,1.25.04.04.07.07.1.11.36.39.72.78,1.08,1.18.13.15.26.29.38.44.26.29.51.58.76.88.15.17.29.34.43.52.23.27.45.55.68.83.15.18.29.37.43.55.22.27.43.54.63.82.14.19.28.38.43.57.21.27.41.55.61.83.14.19.27.38.41.58.2.29.4.58.6.87.13.19.26.38.38.57.2.31.4.61.6.92.11.18.22.35.34.53.22.35.43.7.65,1.06.08.14.16.27.25.41.59.99,1.14,2,1.67,3.03.08.15.15.3.22.44.18.36.37.73.54,1.09.09.19.18.38.27.56.16.33.31.66.46,1,.09.2.18.41.27.61.14.32.28.65.42.97.09.21.17.43.26.64.13.32.26.65.38.97.08.22.16.43.25.65.12.33.24.66.36.99.07.21.15.42.22.63.12.35.23.7.35,1.04.06.2.13.39.19.59.12.39.24.78.36,1.17.05.16.1.32.14.48.32,1.11.61,2.22.87,3.35.04.17.07.34.11.52.09.39.17.78.25,1.17.04.22.08.43.12.64.07.35.13.71.2,1.06.04.23.08.46.11.69.05.34.11.68.16,1.03.04.24.07.48.1.72.05.34.09.68.13,1.02.03.24.05.49.08.73.04.34.07.68.1,1.03.02.24.05.48.06.72.03.35.05.71.07,1.07.01.23.03.45.04.68.02.39.04.79.05,1.18,0,.19.02.38.02.58.01.59.02,1.17.02,1.76s0,1.18-.02,1.76c0,.19-.01.39-.02.58-.01.39-.03.78-.05,1.18-.01.23-.03.46-.04.69-.02.35-.05.71-.07,1.06-.02.24-.04.48-.06.72-.03.34-.06.68-.1,1.02-.03.24-.05.49-.08.73-.04.34-.08.67-.13,1.01-.03.24-.06.48-.1.72-.05.34-.11.68-.16,1.02-.04.23-.08.47-.11.7-.06.35-.13.7-.19,1.05-.04.22-.08.43-.12.65-.08.38-.16.77-.25,1.15-.04.18-.08.36-.12.54-.26,1.13-.55,2.24-.87,3.35-.05.17-.1.33-.15.49-.11.38-.23.77-.35,1.15-.06.2-.13.4-.2.6-.11.34-.22.69-.34,1.03-.07.22-.15.43-.23.65-.12.32-.23.66-.36.98-.08.22-.16.43-.25.65-.12.32-.25.64-.38.96-.09.22-.17.43-.27.65-.13.32-.27.64-.41.96-.09.21-.18.42-.27.62-.15.33-.3.66-.46.98-.09.19-.18.38-.27.57-.17.36-.36.72-.54,1.08-.08.16-.16.31-.23.46-.53,1.02-1.08,2.03-1.67,3.02-.08.14-.17.28-.26.43-.21.35-.42.7-.64,1.04-.11.18-.23.36-.34.54-.19.31-.39.61-.59.91-.13.19-.26.38-.38.57-.19.29-.39.57-.59.86-.14.2-.27.39-.42.59-.2.27-.4.55-.6.82-.15.2-.29.39-.43.58-.21.27-.41.54-.62.81-.15.19-.3.38-.44.56-.22.27-.44.55-.66.81-.15.18-.29.36-.44.53-.24.29-.49.57-.74.86-.13.16-.27.31-.4.46-.33.38-.68.75-1.02,1.12-.05.06-.11.11-.16.17-.39.42-.8.84-1.2,1.24-.15.15-.3.29-.45.44-.22.22-.45.45-.67.66,9.05,5.92,19.71,9.13,30.52,9.13s21.46-3.21,30.52-9.13h0Z"/><path class="cls-4" d="M162.5,89.43c.19.25.38.5.58.75.11.15.23.3.34.44.28.36.57.71.87,1.06.05.07.11.13.17.2.3.35.6.7.9,1.04.12.13.24.26.36.39.22.24.44.49.67.73.14.15.28.29.42.44.21.22.43.44.64.66.15.15.3.3.45.45.21.21.42.42.64.62.16.15.32.3.48.45.14.13.27.26.42.38,11.56-10.62,18.12-25.41,18.12-41.11s-6.56-30.49-18.12-41.11c-.14.13-.28.26-.42.38-.16.15-.32.3-.48.45-.22.21-.43.42-.64.62-.15.15-.3.3-.45.45-.22.22-.43.44-.64.66-.14.15-.28.29-.42.44-.22.24-.44.49-.67.73-.12.13-.24.26-.36.39-.31.34-.6.69-.9,1.04-.05.07-.11.13-.17.2-.29.35-.58.7-.87,1.06-.11.15-.23.29-.34.44-.19.25-.39.5-.58.75-.13.17-.25.34-.38.52-.17.23-.34.46-.51.7-.13.18-.26.37-.39.55-.16.22-.31.45-.47.68-.13.19-.26.38-.38.58-.15.22-.29.45-.44.68-.12.2-.25.39-.37.59-.14.22-.28.45-.41.68-.12.2-.24.4-.36.61-.13.23-.26.46-.39.69-.11.21-.23.41-.34.62-.13.23-.25.47-.38.7-.11.21-.22.41-.32.62-.12.24-.24.48-.36.72l-.3.62c-.12.25-.23.49-.35.75-.09.2-.19.4-.28.61-.12.26-.23.53-.34.79-.08.19-.16.38-.25.58-.12.31-.25.61-.37.92-.06.16-.12.31-.18.47-.17.46-.34.92-.51,1.38-.05.15-.11.31-.16.46-.11.32-.22.64-.32.96-.06.19-.12.39-.18.59-.09.28-.17.56-.26.85l-.18.63c-.07.27-.15.54-.22.81-.05.22-.11.44-.16.65-.07.27-.13.54-.2.81-.05.22-.1.44-.15.66-.06.27-.12.54-.17.81-.05.22-.09.44-.13.67-.05.27-.1.54-.15.81-.04.22-.08.45-.11.67-.05.27-.09.55-.13.82-.03.22-.06.44-.1.67-.04.28-.07.56-.11.84-.03.22-.05.44-.08.66-.03.29-.06.58-.09.87-.02.22-.04.43-.06.64-.02.3-.05.61-.06.92-.01.2-.03.4-.04.6-.02.34-.03.68-.04,1.02,0,.17-.01.34-.02.51-.01.51-.02,1.02-.02,1.53h0c0,.51,0,1.02.02,1.53,0,.17.01.34.02.51.01.34.02.67.04,1.01,0,.2.03.41.04.61.02.3.04.6.06.91.02.22.04.43.06.65.03.29.05.57.09.86.02.22.05.44.08.67.03.28.07.56.11.83.03.22.06.45.1.68.04.27.08.54.13.82.04.22.08.45.11.68.05.27.1.54.15.81.04.22.09.45.13.67.05.27.11.54.17.8.05.22.1.45.15.67.06.27.13.54.2.8.05.22.11.44.16.66.07.27.15.54.22.81.06.21.12.43.18.64.08.28.17.56.26.84.06.2.12.4.18.6.1.32.21.63.32.94.05.16.11.32.16.48.16.46.33.92.51,1.38.06.16.13.32.19.48.12.3.24.6.36.91.08.2.16.39.25.59.11.26.22.53.34.79.09.21.19.41.28.61.11.25.23.49.34.74.1.21.2.42.3.62.12.24.24.48.36.71.11.21.22.42.32.62.12.23.25.47.38.7.11.21.23.41.34.62.13.23.26.46.39.69.12.21.24.41.36.61.14.23.27.45.41.68.12.2.25.4.37.59.14.22.29.45.43.68.13.19.25.39.38.58.15.23.31.45.47.68.13.19.26.37.39.56.16.23.33.46.51.7.13.17.25.34.38.52h0Z"/><path class="cls-4" d="M102.43,86.99c.13-.19.26-.38.38-.58.15-.22.29-.45.44-.68.12-.2.25-.4.37-.59.14-.22.27-.45.41-.68.12-.2.24-.41.36-.61.13-.23.26-.46.39-.69.11-.21.23-.41.34-.62.13-.23.25-.47.38-.7.11-.21.22-.41.32-.62.12-.24.24-.48.36-.72.1-.21.21-.41.3-.62.12-.25.23-.49.34-.74.09-.21.19-.41.28-.61.11-.26.23-.53.34-.79.08-.19.17-.38.25-.58.12-.3.24-.61.36-.91.06-.16.13-.32.19-.47.17-.46.34-.92.51-1.38.05-.16.11-.31.16-.47.11-.32.22-.63.32-.95.06-.2.12-.39.18-.59.09-.28.17-.56.26-.84.06-.21.12-.42.17-.63.08-.27.15-.54.22-.82.05-.22.11-.43.16-.65.07-.27.13-.54.2-.81.05-.22.1-.44.15-.66.06-.27.12-.54.17-.81.05-.22.09-.44.13-.67.05-.27.1-.54.15-.81.04-.22.08-.45.11-.67.05-.27.09-.55.13-.82.03-.22.06-.44.1-.67.04-.28.07-.56.11-.84.03-.22.05-.44.08-.66.03-.29.06-.58.09-.87.02-.22.04-.43.06-.64.02-.3.05-.61.06-.92l.04-.6c.02-.34.03-.68.04-1.02,0-.17.01-.34.02-.51.01-.51.02-1.02.02-1.53s0-1.02-.02-1.53c0-.17-.01-.34-.02-.51-.01-.34-.02-.68-.04-1.02,0-.2-.03-.4-.04-.6-.02-.31-.04-.61-.06-.92-.02-.22-.04-.43-.06-.64-.03-.29-.05-.58-.09-.87-.02-.22-.05-.44-.08-.66-.03-.28-.07-.56-.11-.84-.03-.22-.06-.44-.1-.67-.04-.27-.08-.55-.13-.83-.04-.22-.07-.44-.11-.67-.05-.27-.1-.54-.15-.82-.04-.22-.09-.44-.13-.66-.05-.27-.11-.54-.17-.81-.05-.22-.1-.43-.15-.65-.06-.27-.13-.54-.2-.81-.05-.22-.11-.43-.16-.64-.07-.27-.15-.55-.22-.82-.06-.21-.11-.41-.17-.62-.08-.29-.17-.58-.26-.86-.06-.19-.11-.38-.17-.57-.11-.33-.22-.66-.33-.99-.05-.14-.1-.28-.15-.43-.16-.47-.33-.93-.51-1.39-.05-.15-.11-.29-.17-.43-.12-.32-.25-.64-.38-.95-.08-.19-.16-.38-.24-.56-.11-.27-.23-.54-.35-.81-.09-.2-.18-.4-.27-.6-.11-.25-.23-.51-.35-.76-.1-.2-.2-.41-.3-.61-.12-.24-.24-.49-.37-.73-.11-.21-.21-.41-.32-.61-.12-.24-.25-.48-.38-.71-.11-.2-.22-.4-.33-.61-.13-.23-.27-.47-.4-.7-.11-.2-.23-.4-.35-.6-.14-.23-.28-.46-.42-.69-.12-.2-.24-.39-.37-.59-.15-.23-.29-.46-.44-.69-.12-.19-.25-.38-.38-.57-.16-.23-.32-.46-.47-.69-.13-.18-.25-.37-.38-.55-.17-.24-.34-.47-.52-.71-.12-.17-.25-.34-.37-.5-.19-.26-.39-.51-.59-.76-.11-.14-.22-.29-.33-.43-.29-.37-.59-.73-.89-1.09-.04-.05-.08-.1-.12-.15-.3-.36-.61-.72-.92-1.07-.11-.13-.23-.26-.35-.38-.22-.25-.45-.49-.67-.74-.14-.15-.28-.29-.42-.43-.21-.22-.43-.44-.64-.66-.15-.15-.3-.3-.45-.45-.21-.21-.43-.42-.64-.63-.16-.15-.32-.3-.47-.45-.14-.13-.27-.26-.42-.38-11.56,10.62-18.12,25.41-18.12,41.11s6.56,30.49,18.11,41.11c.14-.13.28-.26.42-.38.16-.15.32-.3.48-.45.22-.21.43-.41.64-.62.15-.15.31-.3.45-.45.22-.22.43-.44.64-.66.14-.15.28-.29.42-.44.22-.24.44-.49.66-.73.12-.13.24-.26.36-.39.31-.34.6-.69.9-1.04.05-.07.11-.13.17-.2.29-.35.58-.7.87-1.06.11-.15.23-.3.34-.44.19-.25.39-.49.58-.75.13-.17.26-.35.38-.52.17-.23.34-.46.5-.69.13-.18.26-.37.39-.55.16-.22.31-.45.47-.68h-.02Z"/><polygon class="cls-1" points="44.36 148.47 38.68 180.64 28.63 180.64 31.45 164.65 23.68 180.64 15.04 180.64 12.91 164.51 10.09 180.64 0 180.64 5.68 148.47 18.04 148.47 21.72 167.83 32.04 148.47 44.36 148.47 44.36 148.47"/><path class="cls-1" d="M63.63,168.19l-1.32-8.95-4.5,8.95h5.82,0ZM64.72,175.78h-10.73l-2.45,4.86h-10.59l17.45-32.18h11.63l6.04,32.18h-10.64l-.73-4.86Z"/><polygon class="cls-1" points="109.3 148.47 107.9 156.46 99.35 156.46 95.08 180.64 84.99 180.64 89.26 156.46 80.81 156.46 82.22 148.47 109.3 148.47"/><path class="cls-1" d="M111.71,156.01c1.73-2.48,3.91-4.42,6.55-5.8,2.64-1.38,5.58-2.07,8.82-2.07,2.79,0,5.19.52,7.2,1.57,2.01,1.04,3.55,2.52,4.61,4.43,1.06,1.91,1.57,4.14,1.55,6.68h-10.64c-.3-1.06-.85-1.89-1.64-2.48-.79-.59-1.76-.89-2.91-.89-1.7,0-3.15.64-4.36,1.91-1.21,1.27-2,2.99-2.36,5.14-.12.61-.18,1.26-.18,1.95,0,1.58.39,2.82,1.16,3.73.77.91,1.87,1.36,3.29,1.36,1.15,0,2.23-.3,3.23-.89,1-.59,1.83-1.42,2.5-2.48h10.64c-.91,2.54-2.23,4.77-3.95,6.68-1.73,1.91-3.78,3.39-6.16,4.43-2.38,1.04-4.96,1.57-7.75,1.57s-5.23-.52-7.23-1.57c-2-1.05-3.51-2.53-4.55-4.45-1.03-1.92-1.55-4.16-1.55-6.7,0-1.24.11-2.45.32-3.64.55-3.18,1.68-6.01,3.41-8.5Z"/><polygon class="cls-1" points="176.02 148.47 170.34 180.64 160.25 180.64 162.48 168.1 152.89 168.1 150.66 180.64 140.57 180.64 146.25 148.47 156.34 148.47 154.3 160.05 163.89 160.05 165.93 148.47 176.02 148.47"/><path class="cls-1" d="M194.56,162.58c1.27-1.05,2.08-2.49,2.41-4.34.09-.55.14-1.05.14-1.5,0-3-1.93-4.5-5.77-4.5h-6.09l-2.09,11.91h6.09c2.27,0,4.04-.52,5.32-1.57h0ZM197.34,164.81c-2.12,1.74-5.01,2.61-8.68,2.61h-6.09l-2.36,13.23h-4.14l5.64-31.68h10.23c3.15,0,5.52.67,7.09,2.02,1.57,1.35,2.36,3.14,2.36,5.39,0,.39-.06,1.02-.18,1.86-.45,2.64-1.74,4.83-3.86,6.57h0Z"/><path class="cls-1" d="M223.43,156.78c0-1.45-.48-2.58-1.43-3.36-.95-.79-2.42-1.18-4.39-1.18h-6.04l-2.14,12.14h6.09c2.24,0,4.02-.55,5.32-1.66,1.3-1.11,2.12-2.58,2.45-4.43.09-.55.14-1.05.14-1.5h0ZM225.34,151.01c1.61,1.36,2.41,3.18,2.41,5.45,0,.36-.06.97-.18,1.82-.39,2.18-1.36,4.11-2.91,5.77-1.55,1.67-3.62,2.77-6.23,3.32l5.59,13.27h-4.95l-5.27-12.95h-4.95l-2.32,12.95h-4.14l5.64-31.68h10.18c3.15,0,5.53.68,7.14,2.05h0Z"/><path class="cls-1" d="M252.22,175.17c2.11-1.38,3.75-3.23,4.93-5.57,1.18-2.33,1.77-4.86,1.77-7.59,0-3-.86-5.36-2.59-7.09-1.73-1.73-4.08-2.59-7.04-2.59-2.67,0-5.05.69-7.16,2.07-2.11,1.38-3.74,3.23-4.91,5.54-1.17,2.32-1.75,4.84-1.75,7.57,0,3,.86,5.37,2.57,7.11,1.71,1.74,4.05,2.61,7.02,2.61,2.67,0,5.05-.69,7.16-2.07ZM237.52,179.3c-2-1.11-3.55-2.66-4.66-4.66-1.11-2-1.66-4.29-1.66-6.86,0-3.57.81-6.82,2.43-9.75,1.62-2.92,3.86-5.23,6.7-6.91,2.85-1.68,6.03-2.52,9.54-2.52,2.67,0,5.01.55,7.02,1.66,2.01,1.11,3.57,2.65,4.66,4.64,1.09,1.99,1.64,4.26,1.64,6.84,0,3.61-.81,6.87-2.43,9.79-1.62,2.92-3.86,5.23-6.7,6.91-2.85,1.68-6.04,2.52-9.59,2.52-2.64,0-4.95-.55-6.95-1.66h0Z"/></svg>