<?xml version="1.0" encoding="UTF-8"?><svg id="Layer_1" xmlns="http://www.w3.org/2000/svg" viewBox="0 0 1031.85 111.9"><defs><style>.cls-1{fill:#fff;}.cls-2{fill:#cbfd80;}.cls-3{fill:#82e896;}.cls-4{fill:#34d399;}</style></defs><path class="cls-2" d="M246.76,95.45c10.6-10.6,16.44-24.63,16.44-39.51s-5.84-28.91-16.44-39.51S222.13,0,207.25,0s-28.91,5.84-39.51,16.44-16.44,24.63-16.44,39.51,5.84,28.91,16.44,39.51c10.6,10.6,24.63,16.44,39.51,16.44s28.91-5.84,39.51-16.44Z"/><path class="cls-2" d="M95.45,16.44C84.85,5.84,70.82,0,55.94,0S27.04,5.84,16.44,16.44C5.84,27.04,0,41.07,0,55.94s5.84,28.91,16.44,39.51c10.6,10.6,24.63,16.44,39.51,16.44s28.91-5.84,39.51-16.44c10.6-10.6,16.44-24.63,16.44-39.51s-5.84-28.91-16.44-39.51Z"/><path class="cls-3" d="M162.11,102.75c-.23-.22-.45-.44-.68-.67-.15-.15-.3-.29-.44-.44-.41-.41-.81-.82-1.2-1.24-.06-.06-.11-.13-.17-.19-.34-.36-.67-.73-1-1.1-.14-.16-.27-.32-.41-.47-.25-.28-.49-.56-.73-.85-.15-.18-.3-.36-.45-.54-.22-.27-.44-.54-.66-.81-.15-.19-.3-.38-.45-.57-.21-.27-.42-.53-.62-.8-.15-.2-.3-.39-.44-.59-.2-.27-.4-.54-.59-.81-.14-.2-.28-.4-.42-.6-.2-.28-.39-.56-.58-.84-.13-.2-.27-.39-.39-.59-.2-.3-.39-.6-.58-.9-.12-.18-.24-.37-.35-.55-.21-.34-.42-.68-.62-1.02-.09-.15-.18-.3-.27-.45-.29-.5-.58-1-.86-1.5h0c-.27-.5-.54-1.01-.81-1.51-.08-.16-.16-.32-.24-.48-.18-.35-.36-.7-.53-1.06-.09-.19-.18-.39-.27-.58-.15-.32-.31-.65-.45-.97-.1-.21-.19-.42-.28-.63-.14-.32-.27-.64-.41-.95-.09-.22-.18-.43-.27-.65-.13-.32-.26-.64-.38-.96-.08-.22-.17-.43-.25-.66-.12-.32-.24-.65-.36-.98-.08-.22-.16-.43-.23-.65-.12-.34-.23-.69-.34-1.03-.06-.2-.13-.4-.2-.6-.12-.38-.24-.77-.35-1.16-.05-.17-.1-.32-.15-.49-.32-1.11-.6-2.22-.87-3.35-.04-.17-.08-.35-.11-.53-.09-.38-.17-.77-.25-1.16-.05-.22-.08-.43-.12-.65-.07-.35-.13-.7-.2-1.06-.04-.23-.08-.46-.11-.7-.05-.34-.11-.68-.16-1.02-.04-.24-.07-.48-.1-.72-.05-.34-.09-.67-.13-1.01-.03-.24-.05-.49-.08-.73-.04-.34-.07-.68-.1-1.03-.02-.24-.05-.48-.06-.72-.03-.35-.05-.71-.07-1.07-.01-.23-.03-.45-.04-.68-.02-.39-.04-.79-.05-1.18,0-.19-.02-.38-.02-.58-.01-.59-.02-1.17-.02-1.76s0-1.18.02-1.76c0-.19.01-.38.02-.58.01-.39.03-.79.05-1.18.01-.23.03-.46.04-.68.02-.36.05-.71.07-1.07.02-.24.04-.48.06-.72.03-.34.06-.68.1-1.02.03-.24.05-.49.08-.73.04-.34.08-.67.13-1.01.03-.24.06-.48.1-.72.05-.34.11-.68.16-1.02.04-.23.07-.47.11-.7.06-.35.13-.7.2-1.06l.12-.65c.08-.39.16-.77.25-1.16.04-.17.07-.35.11-.53.26-1.13.55-2.24.87-3.35.05-.17.1-.32.15-.49.11-.39.23-.77.35-1.16.06-.2.13-.4.2-.6.11-.34.23-.69.34-1.03.07-.22.15-.43.23-.64.12-.33.24-.65.36-.98.08-.22.16-.43.25-.65.12-.32.25-.64.38-.96.09-.22.17-.43.27-.65.13-.32.27-.64.41-.96.09-.21.18-.41.27-.62.15-.33.3-.66.46-.99.09-.19.18-.38.27-.57.17-.36.36-.72.54-1.08.08-.15.15-.31.23-.46.53-1.02,1.08-2.03,1.67-3.03.08-.14.17-.28.25-.42.21-.35.42-.7.64-1.05.11-.18.23-.36.34-.54.2-.31.39-.61.59-.92.13-.19.26-.38.38-.57.2-.29.39-.58.59-.86.14-.19.27-.38.41-.58.2-.28.4-.55.6-.83.14-.19.28-.38.43-.58.21-.27.42-.55.63-.82.15-.18.29-.37.43-.55.22-.28.45-.55.68-.83.14-.17.28-.35.43-.52.25-.3.5-.59.76-.88.13-.15.25-.29.38-.44.35-.4.71-.79,1.08-1.18.04-.04.07-.07.1-.11.4-.42.8-.84,1.21-1.25.14-.14.27-.27.41-.41.23-.23.47-.47.7-.7-9.05-5.91-19.7-9.12-30.52-9.12s-21.46,3.21-30.52,9.13c.24.23.47.46.7.7.14.14.27.27.41.41.41.41.81.83,1.21,1.25.04.04.07.07.1.11.36.39.72.78,1.08,1.18.13.15.26.29.38.44.26.29.51.58.76.88.15.17.29.34.43.52.23.27.45.55.68.83.15.18.29.37.43.55.22.27.43.54.63.82.14.19.28.38.43.57.21.27.41.55.61.83.14.19.27.38.41.58.2.29.4.58.6.87.13.19.26.38.38.57.2.31.4.61.6.92.11.18.22.35.34.53.22.35.43.7.65,1.06.08.14.16.27.25.41.59.99,1.14,2,1.67,3.03.08.15.15.3.22.44.18.36.37.73.54,1.09.09.19.18.38.27.56.16.33.31.66.46,1,.09.2.18.41.27.61.14.32.28.65.42.97.09.21.17.43.26.64.13.32.26.65.38.97.08.22.16.43.25.65.12.33.24.66.36.99.07.21.15.42.22.63.12.35.23.7.35,1.04.06.2.13.39.19.59.12.39.24.78.36,1.17.05.16.1.32.14.48.32,1.11.61,2.22.87,3.35.04.17.07.34.11.52.09.39.17.78.25,1.17.04.22.08.43.12.64.07.35.13.71.2,1.06.04.23.08.46.11.69.05.34.11.68.16,1.03.04.24.07.48.1.72.05.34.09.68.13,1.02.03.24.05.49.08.73.04.34.07.68.1,1.03.02.24.05.48.06.72.03.35.05.71.07,1.07.01.23.03.45.04.68.02.39.04.79.05,1.18,0,.19.02.38.02.58.01.59.02,1.17.02,1.76s0,1.18-.02,1.76c0,.19-.01.39-.02.58-.01.39-.03.78-.05,1.18-.01.23-.03.46-.04.69-.02.35-.05.71-.07,1.06-.02.24-.04.48-.06.72-.03.34-.06.68-.1,1.02-.03.24-.05.49-.08.73-.04.34-.08.67-.13,1.01-.03.24-.06.48-.1.72-.05.34-.11.68-.16,1.02-.04.23-.08.47-.11.7-.06.35-.13.7-.19,1.05-.04.22-.08.43-.12.65-.08.38-.16.77-.25,1.15-.04.18-.08.36-.12.54-.26,1.13-.55,2.24-.87,3.35-.05.17-.1.33-.15.49-.11.38-.23.77-.35,1.15-.06.2-.13.4-.2.6-.11.34-.22.69-.34,1.03-.07.22-.15.43-.23.65-.12.32-.23.66-.36.98-.08.22-.16.43-.25.65-.12.32-.25.64-.38.96-.09.22-.17.43-.27.65-.13.32-.27.64-.41.96-.09.21-.18.42-.27.62-.15.33-.3.66-.46.98-.09.19-.18.38-.27.57-.17.36-.36.72-.54,1.08-.08.16-.16.31-.23.46-.53,1.02-1.08,2.03-1.67,3.02-.08.14-.17.28-.26.43-.21.35-.42.7-.64,1.04-.11.18-.23.36-.34.54-.19.31-.39.61-.59.91-.13.19-.26.38-.38.57-.19.29-.39.57-.59.86-.14.2-.27.39-.42.59-.2.27-.4.55-.6.82-.15.2-.29.39-.43.58-.21.27-.41.54-.62.81-.15.19-.3.38-.44.56-.22.27-.44.55-.66.81-.15.18-.29.36-.44.53-.24.29-.49.57-.74.86-.13.16-.27.31-.4.46-.33.38-.68.75-1.02,1.12-.05.06-.11.11-.16.17-.39.42-.8.84-1.2,1.24-.15.15-.3.29-.45.44-.22.22-.45.45-.67.66,9.05,5.92,19.71,9.13,30.52,9.13s21.46-3.21,30.52-9.13h0Z"/><path class="cls-4" d="M162.5,89.43c.19.25.38.5.58.75.11.15.23.3.34.44.28.36.57.71.87,1.06.05.07.11.13.17.2.3.35.6.7.9,1.04.12.13.24.26.36.39.22.24.44.49.67.73.14.15.28.29.42.44.21.22.43.44.64.66.15.15.3.3.45.45.21.21.42.42.64.62.16.15.32.3.48.45.14.13.27.26.42.38,11.56-10.62,18.12-25.41,18.12-41.11s-6.56-30.49-18.12-41.11c-.14.13-.28.26-.42.38-.16.15-.32.3-.48.45-.22.21-.43.42-.64.62-.15.15-.3.3-.45.45-.22.22-.43.44-.64.66-.14.15-.28.29-.42.44-.22.24-.44.49-.67.73-.12.13-.24.26-.36.39-.31.34-.6.69-.9,1.04-.05.07-.11.13-.17.2-.29.35-.58.7-.87,1.06-.11.15-.23.29-.34.44-.19.25-.39.5-.58.75-.13.17-.25.34-.38.52-.17.23-.34.46-.51.7-.13.18-.26.37-.39.55-.16.22-.31.45-.47.68-.13.19-.26.38-.38.58-.15.22-.29.45-.44.68-.12.2-.25.39-.37.59-.14.22-.28.45-.41.68-.12.2-.24.4-.36.61-.13.23-.26.46-.39.69-.11.21-.23.41-.34.62-.13.23-.25.47-.38.7-.11.21-.22.41-.32.62-.12.24-.24.48-.36.72l-.3.62c-.12.25-.23.49-.35.75-.09.2-.19.4-.28.61-.12.26-.23.53-.34.79-.08.19-.16.38-.25.58-.12.31-.25.61-.37.92-.06.16-.12.31-.18.47-.17.46-.34.92-.51,1.38-.05.15-.11.31-.16.46-.11.32-.22.64-.32.96-.06.19-.12.39-.18.59-.09.28-.17.56-.26.85l-.18.63c-.07.27-.15.54-.22.81-.05.22-.11.44-.16.65-.07.27-.13.54-.2.81-.05.22-.1.44-.15.66-.06.27-.12.54-.17.81-.05.22-.09.44-.13.67-.05.27-.1.54-.15.81-.04.22-.08.45-.11.67-.05.27-.09.55-.13.82-.03.22-.06.44-.1.67-.04.28-.07.56-.11.84-.03.22-.05.44-.08.66-.03.29-.06.58-.09.87-.02.22-.04.43-.06.64-.02.3-.05.61-.06.92-.01.2-.03.4-.04.6-.02.34-.03.68-.04,1.02,0,.17-.01.34-.02.51-.01.51-.02,1.02-.02,1.53h0c0,.51,0,1.02.02,1.53,0,.17.01.34.02.51.01.34.02.67.04,1.01,0,.2.03.41.04.61.02.3.04.6.06.91.02.22.04.43.06.65.03.29.05.57.09.86.02.22.05.44.08.67.03.28.07.56.11.83.03.22.06.45.1.68.04.27.08.54.13.82.04.22.08.45.11.68.05.27.1.54.15.81.04.22.09.45.13.67.05.27.11.54.17.8.05.22.1.45.15.67.06.27.13.54.2.8.05.22.11.44.16.66.07.27.15.54.22.81.06.21.12.43.18.64.08.28.17.56.26.84.06.2.12.4.18.6.1.32.21.63.32.94.05.16.11.32.16.48.16.46.33.92.51,1.38.06.16.13.32.19.48.12.3.24.6.36.91.08.2.16.39.25.59.11.26.22.53.34.79.09.21.19.41.28.61.11.25.23.49.34.74.1.21.2.42.3.62.12.24.24.48.36.71.11.21.22.42.32.62.12.23.25.47.38.7.11.21.23.41.34.62.13.23.26.46.39.69.12.21.24.41.36.61.14.23.27.45.41.68.12.2.25.4.37.59.14.22.29.45.43.68.13.19.25.39.38.58.15.23.31.45.47.68.13.19.26.37.39.56.16.23.33.46.51.7.13.17.25.34.38.52h0Z"/><path class="cls-4" d="M102.43,86.99c.13-.19.26-.38.38-.58.15-.22.29-.45.44-.68.12-.2.25-.4.37-.59.14-.22.27-.45.41-.68.12-.2.24-.41.36-.61.13-.23.26-.46.39-.69.11-.21.23-.41.34-.62.13-.23.25-.47.38-.7.11-.21.22-.41.32-.62.12-.24.24-.48.36-.72.1-.21.21-.41.3-.62.12-.25.23-.49.34-.74.09-.21.19-.41.28-.61.11-.26.23-.53.34-.79.08-.19.17-.38.25-.58.12-.3.24-.61.36-.91.06-.16.13-.32.19-.47.17-.46.34-.92.51-1.38.05-.16.11-.31.16-.47.11-.32.22-.63.32-.95.06-.2.12-.39.18-.59.09-.28.17-.56.26-.84.06-.21.12-.42.17-.63.08-.27.15-.54.22-.82.05-.22.11-.43.16-.65.07-.27.13-.54.2-.81.05-.22.1-.44.15-.66.06-.27.12-.54.17-.81.05-.22.09-.44.13-.67.05-.27.1-.54.15-.81.04-.22.08-.45.11-.67.05-.27.09-.55.13-.82.03-.22.06-.44.1-.67.04-.28.07-.56.11-.84.03-.22.05-.44.08-.66.03-.29.06-.58.09-.87.02-.22.04-.43.06-.64.02-.3.05-.61.06-.92l.04-.6c.02-.34.03-.68.04-1.02,0-.17.01-.34.02-.51.01-.51.02-1.02.02-1.53s0-1.02-.02-1.53c0-.17-.01-.34-.02-.51-.01-.34-.02-.68-.04-1.02,0-.2-.03-.4-.04-.6-.02-.31-.04-.61-.06-.92-.02-.22-.04-.43-.06-.64-.03-.29-.05-.58-.09-.87-.02-.22-.05-.44-.08-.66-.03-.28-.07-.56-.11-.84-.03-.22-.06-.44-.1-.67-.04-.27-.08-.55-.13-.83-.04-.22-.07-.44-.11-.67-.05-.27-.1-.54-.15-.82-.04-.22-.09-.44-.13-.66-.05-.27-.11-.54-.17-.81-.05-.22-.1-.43-.15-.65-.06-.27-.13-.54-.2-.81-.05-.22-.11-.43-.16-.64-.07-.27-.15-.55-.22-.82-.06-.21-.11-.41-.17-.62-.08-.29-.17-.58-.26-.86-.06-.19-.11-.38-.17-.57-.11-.33-.22-.66-.33-.99-.05-.14-.1-.28-.15-.43-.16-.47-.33-.93-.51-1.39-.05-.15-.11-.29-.17-.43-.12-.32-.25-.64-.38-.95-.08-.19-.16-.38-.24-.56-.11-.27-.23-.54-.35-.81-.09-.2-.18-.4-.27-.6-.11-.25-.23-.51-.35-.76-.1-.2-.2-.41-.3-.61-.12-.24-.24-.49-.37-.73-.11-.21-.21-.41-.32-.61-.12-.24-.25-.48-.38-.71-.11-.2-.22-.4-.33-.61-.13-.23-.27-.47-.4-.7-.11-.2-.23-.4-.35-.6-.14-.23-.28-.46-.42-.69-.12-.2-.24-.39-.37-.59-.15-.23-.29-.46-.44-.69-.12-.19-.25-.38-.38-.57-.16-.23-.32-.46-.47-.69-.13-.18-.25-.37-.38-.55-.17-.24-.34-.47-.52-.71-.12-.17-.25-.34-.37-.5-.19-.26-.39-.51-.59-.76-.11-.14-.22-.29-.33-.43-.29-.37-.59-.73-.89-1.09-.04-.05-.08-.1-.12-.15-.3-.36-.61-.72-.92-1.07-.11-.13-.23-.26-.35-.38-.22-.25-.45-.49-.67-.74-.14-.15-.28-.29-.42-.43-.21-.22-.43-.44-.64-.66-.15-.15-.3-.3-.45-.45-.21-.21-.43-.42-.64-.63-.16-.15-.32-.3-.47-.45-.14-.13-.27-.26-.42-.38-11.56,10.62-18.12,25.41-18.12,41.11s6.56,30.49,18.11,41.11c.14-.13.28-.26.42-.38.16-.15.32-.3.48-.45.22-.21.43-.41.64-.62.15-.15.31-.3.45-.45.22-.22.43-.44.64-.66.14-.15.28-.29.42-.44.22-.24.44-.49.66-.73.12-.13.24-.26.36-.39.31-.34.6-.69.9-1.04.05-.07.11-.13.17-.2.29-.35.58-.7.87-1.06.11-.15.23-.3.34-.44.19-.25.39-.49.58-.75.13-.17.26-.35.38-.52.17-.23.34-.46.5-.69.13-.18.26-.37.39-.55.16-.22.31-.45.47-.68h-.02Z"/><polygon class="cls-1" points="417.41 10.77 401.46 101.12 373.26 101.12 381.17 56.2 359.35 101.12 335.1 101.12 329.11 55.82 321.19 101.12 292.87 101.12 308.82 10.77 343.53 10.77 353.86 65.13 382.83 10.77 417.41 10.77 417.41 10.77"/><path class="cls-1" d="M471.51,66.15l-3.7-25.14-12.63,25.14h16.34,0ZM474.58,87.46h-30.12l-6.89,13.65h-29.73l49-90.35h32.67l16.97,90.35h-29.86l-2.04-13.65Z"/><polygon class="cls-1" points="599.76 10.77 595.81 33.23 571.82 33.23 559.82 101.12 531.49 101.12 543.49 33.23 519.75 33.23 523.71 10.77 599.76 10.77"/><path class="cls-1" d="M606.53,31.95c4.85-6.98,10.98-12.4,18.38-16.27,7.4-3.87,15.65-5.8,24.76-5.8,7.83,0,14.57,1.47,20.23,4.4,5.66,2.93,9.97,7.08,12.95,12.44,2.98,5.36,4.42,11.61,4.34,18.76h-29.86c-.85-2.98-2.38-5.3-4.6-6.95-2.22-1.66-4.93-2.49-8.17-2.49-4.76,0-8.85,1.79-12.25,5.36-3.41,3.57-5.62,8.38-6.64,14.42-.34,1.7-.51,3.53-.51,5.49,0,4.43,1.08,7.91,3.25,10.46,2.17,2.55,5.25,3.83,9.25,3.83,3.23,0,6.25-.83,9.06-2.49,2.81-1.66,5.14-3.98,7.02-6.95h29.86c-2.55,7.15-6.25,13.4-11.1,18.76-4.85,5.36-10.61,9.51-17.29,12.44-6.68,2.93-13.93,4.4-21.76,4.4s-14.67-1.47-20.29-4.4c-5.62-2.93-9.87-7.1-12.76-12.51-2.89-5.4-4.34-11.68-4.34-18.82,0-3.49.3-6.89.89-10.21,1.53-8.94,4.72-16.89,9.57-23.86Z"/><polygon class="cls-1" points="787.1 10.77 771.14 101.12 742.82 101.12 749.07 65.9 722.14 65.9 715.89 101.12 687.56 101.12 703.51 10.77 731.84 10.77 726.09 43.31 753.02 43.31 758.77 10.77 787.1 10.77"/><path class="cls-1" d="M839.16,50.39c3.57-2.93,5.83-7,6.77-12.18.26-1.53.38-2.93.38-4.21,0-8.42-5.41-12.63-16.21-12.63h-17.1l-5.87,33.43h17.1c6.38,0,11.36-1.47,14.93-4.4h0ZM846.94,56.65c-5.96,4.89-14.08,7.34-24.37,7.34h-17.1l-6.64,37.13h-11.61l15.82-88.94h28.71c8.85,0,15.48,1.9,19.91,5.68,4.42,3.78,6.64,8.82,6.64,15.12,0,1.11-.17,2.85-.51,5.23-1.28,7.4-4.89,13.55-10.85,18.44h0Z"/><path class="cls-1" d="M920.19,34.12c0-4.08-1.34-7.23-4.02-9.44-2.68-2.21-6.78-3.32-12.31-3.32h-16.97l-6,34.07h17.1c6.29,0,11.27-1.55,14.93-4.66,3.66-3.1,5.96-7.25,6.89-12.44.26-1.53.38-2.93.38-4.21h0ZM925.55,17.92c4.51,3.83,6.77,8.93,6.77,15.32,0,1.02-.17,2.72-.51,5.1-1.11,6.12-3.83,11.53-8.17,16.21-4.34,4.68-10.17,7.79-17.49,9.31l15.7,37.26h-13.91l-14.8-36.37h-13.91l-6.51,36.37h-11.61l15.82-88.94h28.59c8.85,0,15.53,1.91,20.03,5.74h0Z"/><path class="cls-1" d="M1001.03,85.74c5.91-3.87,10.53-9.08,13.85-15.63,3.32-6.55,4.98-13.65,4.98-21.31,0-8.42-2.43-15.06-7.27-19.91-4.85-4.85-11.44-7.27-19.78-7.27-7.49,0-14.18,1.94-20.1,5.81-5.91,3.87-10.51,9.06-13.78,15.57-3.28,6.51-4.91,13.59-4.91,21.25,0,8.42,2.4,15.08,7.21,19.97,4.81,4.89,11.38,7.34,19.71,7.34,7.48,0,14.18-1.94,20.1-5.81ZM959.75,97.35c-5.62-3.1-9.97-7.47-13.08-13.08-3.11-5.62-4.66-12.04-4.66-19.27,0-10.04,2.27-19.16,6.83-27.37,4.55-8.21,10.83-14.67,18.82-19.4,8-4.72,16.93-7.08,26.8-7.08,7.48,0,14.06,1.55,19.71,4.66,5.66,3.11,10.02,7.45,13.08,13.02,3.06,5.57,4.6,11.97,4.6,19.21,0,10.13-2.27,19.29-6.83,27.5-4.55,8.21-10.83,14.67-18.82,19.4-8,4.72-16.97,7.08-26.93,7.08-7.4,0-13.91-1.55-19.53-4.66h0Z"/></svg>