<?xml version="1.0" encoding="UTF-8"?><svg id="Layer_1" xmlns="http://www.w3.org/2000/svg" viewBox="0 0 979.23 111.9"><defs><style>.cls-1{fill:#fff;}.cls-2{fill:#cbfd80;}.cls-3{fill:#82e896;}.cls-4{fill:#34d399;}</style></defs><path class="cls-2" d="M246.76,95.45c10.6-10.6,16.44-24.63,16.44-39.51s-5.84-28.91-16.44-39.51C236.16,5.84,222.13,0,207.25,0s-28.91,5.84-39.51,16.44c-10.6,10.6-16.44,24.63-16.44,39.51s5.84,28.91,16.44,39.51,24.63,16.44,39.51,16.44,28.91-5.84,39.51-16.44Z"/><path class="cls-2" d="M95.45,16.44C84.85,5.84,70.82,0,55.94,0S27.04,5.84,16.44,16.44C5.84,27.04,0,41.07,0,55.94s5.84,28.91,16.44,39.51c10.6,10.6,24.63,16.44,39.51,16.44s28.91-5.84,39.51-16.44c10.6-10.6,16.44-24.63,16.44-39.51s-5.84-28.91-16.44-39.51Z"/><path class="cls-3" d="M162.11,102.75c-.23-.22-.45-.44-.68-.67-.15-.15-.3-.29-.44-.44-.41-.41-.81-.82-1.2-1.24-.06-.06-.11-.13-.17-.19-.34-.36-.67-.73-1-1.1-.14-.16-.27-.32-.41-.47-.25-.28-.49-.56-.73-.85-.15-.18-.3-.36-.45-.54-.22-.27-.44-.54-.66-.81-.15-.19-.3-.38-.45-.57-.21-.27-.42-.53-.62-.8-.15-.2-.3-.39-.44-.59-.2-.27-.4-.54-.59-.81-.14-.2-.28-.4-.42-.6-.2-.28-.39-.56-.58-.84-.13-.2-.27-.39-.39-.59-.2-.3-.39-.6-.58-.9-.12-.18-.24-.37-.35-.55-.21-.34-.42-.68-.62-1.02-.09-.15-.18-.3-.27-.45-.29-.5-.58-1-.86-1.5h0c-.27-.5-.54-1.01-.81-1.51-.08-.16-.16-.32-.24-.48-.18-.35-.36-.7-.53-1.06-.09-.19-.18-.39-.27-.58-.15-.32-.31-.65-.45-.97-.1-.21-.19-.42-.28-.63-.14-.32-.27-.64-.41-.95-.09-.22-.18-.43-.27-.65-.13-.32-.26-.64-.38-.96-.08-.22-.17-.43-.25-.66-.12-.32-.24-.65-.36-.98-.08-.22-.16-.43-.23-.65-.12-.34-.23-.69-.34-1.03-.06-.2-.13-.4-.2-.6-.12-.38-.24-.77-.35-1.16-.05-.17-.1-.32-.15-.49-.32-1.11-.6-2.22-.87-3.35-.04-.17-.08-.35-.11-.53-.09-.38-.17-.77-.25-1.16-.05-.22-.08-.43-.12-.65-.07-.35-.13-.7-.2-1.06-.04-.23-.08-.46-.11-.7-.05-.34-.11-.68-.16-1.02-.04-.24-.07-.48-.1-.72-.05-.34-.09-.67-.13-1.01-.03-.24-.05-.49-.08-.73-.04-.34-.07-.68-.1-1.03-.02-.24-.05-.48-.06-.72-.03-.35-.05-.71-.07-1.07-.01-.23-.03-.45-.04-.68-.02-.39-.04-.79-.05-1.18,0-.19-.02-.38-.02-.58-.01-.59-.02-1.17-.02-1.76s0-1.18.02-1.76c0-.19.01-.38.02-.58.01-.39.03-.79.05-1.18.01-.23.03-.46.04-.68.02-.36.05-.71.07-1.07.02-.24.04-.48.06-.72.03-.34.06-.68.1-1.02.03-.24.05-.49.08-.73.04-.34.08-.67.13-1.01.03-.24.06-.48.1-.72.05-.34.11-.68.16-1.02.04-.23.07-.47.11-.7.06-.35.13-.7.2-1.06l.12-.65c.08-.39.16-.77.25-1.16.04-.17.07-.35.11-.53.26-1.13.55-2.24.87-3.35.05-.17.1-.32.15-.49.11-.39.23-.77.35-1.16.06-.2.13-.4.2-.6.11-.34.23-.69.34-1.03.07-.22.15-.43.23-.64.12-.33.24-.65.36-.98.08-.22.16-.43.25-.65.12-.32.25-.64.38-.96.09-.22.17-.43.27-.65.13-.32.27-.64.41-.96.09-.21.18-.41.27-.62.15-.33.3-.66.46-.99.09-.19.18-.38.27-.57.17-.36.36-.72.54-1.08.08-.15.15-.31.23-.46.53-1.02,1.08-2.03,1.67-3.03.08-.14.17-.28.25-.42.21-.35.42-.7.64-1.05.11-.18.23-.36.34-.54.2-.31.39-.61.59-.92.13-.19.26-.38.38-.57.2-.29.39-.58.59-.86.14-.19.27-.38.41-.58.2-.28.4-.55.6-.83.14-.19.28-.38.43-.58.21-.27.42-.55.63-.82.15-.18.29-.37.43-.55.22-.28.45-.55.68-.83.14-.17.28-.35.43-.52.25-.3.5-.59.76-.88.13-.15.25-.29.38-.44.35-.4.71-.79,1.08-1.18.04-.04.07-.07.1-.11.4-.42.8-.84,1.21-1.25.14-.14.27-.27.41-.41.23-.23.47-.47.7-.7-9.05-5.91-19.7-9.12-30.52-9.12s-21.46,3.21-30.52,9.13c.24.23.47.46.7.7.14.14.27.27.41.41.41.41.81.83,1.21,1.25.04.04.07.07.1.11.36.39.72.78,1.08,1.18.13.15.26.29.38.44.26.29.51.58.76.88.15.17.29.34.43.52.23.27.45.55.68.83.15.18.29.37.43.55.22.27.43.54.63.82.14.19.28.38.43.57.21.27.41.55.61.83.14.19.27.38.41.58.2.29.4.58.6.87.13.19.26.38.38.57.2.31.4.61.6.92.11.18.22.35.34.53.22.35.43.7.65,1.06.08.14.16.27.25.41.59.99,1.14,2,1.67,3.03.08.15.15.3.22.44.18.36.37.73.54,1.09.09.19.18.38.27.56.16.33.31.66.46,1,.09.2.18.41.27.61.14.32.28.65.42.97.09.21.17.43.26.64.13.32.26.65.38.97.08.22.16.43.25.65.12.33.24.66.36.99.07.21.15.42.22.63.12.35.23.7.35,1.04.06.2.13.39.19.59.12.39.24.78.36,1.17.05.16.1.32.14.48.32,1.11.61,2.22.87,3.35.04.17.07.34.11.52.09.39.17.78.25,1.17.04.22.08.43.12.64.07.35.13.71.2,1.06.04.23.08.46.11.69.05.34.11.68.16,1.03.04.24.07.48.1.72.05.34.09.68.13,1.02.03.24.05.49.08.73.04.34.07.68.1,1.03.02.24.05.48.06.72.03.35.05.71.07,1.07.01.23.03.45.04.68.02.39.04.79.05,1.18,0,.19.02.38.02.58.01.59.02,1.17.02,1.76s0,1.18-.02,1.76c0,.19-.01.39-.02.58-.01.39-.03.78-.05,1.18-.01.23-.03.46-.04.69-.02.35-.05.71-.07,1.06-.02.24-.04.48-.06.72-.03.34-.06.68-.1,1.02-.03.24-.05.49-.08.73-.04.34-.08.67-.13,1.01-.03.24-.06.48-.1.72-.05.34-.11.68-.16,1.02-.04.23-.08.47-.11.7-.06.35-.13.7-.19,1.05-.04.22-.08.43-.12.65-.08.38-.16.77-.25,1.15-.04.18-.08.36-.12.54-.26,1.13-.55,2.24-.87,3.35-.05.17-.1.33-.15.49-.11.38-.23.77-.35,1.15-.06.2-.13.4-.2.6-.11.34-.22.69-.34,1.03-.07.22-.15.43-.23.65-.12.32-.23.66-.36.98-.08.22-.16.43-.25.65-.12.32-.25.64-.38.96-.09.22-.17.43-.27.65-.13.32-.27.64-.41.96-.09.21-.18.42-.27.62-.15.33-.3.66-.46.98-.09.19-.18.38-.27.57-.17.36-.36.72-.54,1.08-.08.16-.16.31-.23.46-.53,1.02-1.08,2.03-1.67,3.02-.08.14-.17.28-.26.43-.21.35-.42.7-.64,1.04-.11.18-.23.36-.34.54-.19.31-.39.61-.59.91-.13.19-.26.38-.38.57-.19.29-.39.57-.59.86-.14.2-.27.39-.42.59-.2.27-.4.55-.6.82-.15.2-.29.39-.43.58-.21.27-.41.54-.62.81-.15.19-.3.38-.44.56-.22.27-.44.55-.66.81-.15.18-.29.36-.44.53-.24.29-.49.57-.74.86-.13.16-.27.31-.4.46-.33.38-.68.75-1.02,1.12-.05.06-.11.11-.16.17-.39.42-.8.84-1.2,1.24-.15.15-.3.29-.45.44-.22.22-.45.45-.67.66,9.05,5.92,19.71,9.13,30.52,9.13s21.46-3.21,30.52-9.13h0Z"/><path class="cls-4" d="M162.5,89.43c.19.25.38.5.58.75.11.15.23.3.34.44.28.36.57.71.87,1.06.05.07.11.13.17.2.3.35.6.7.9,1.04.12.13.24.26.36.39.22.24.44.49.67.73.14.15.28.29.42.44.21.22.43.44.64.66.15.15.3.3.45.45.21.21.42.42.64.62.16.15.32.3.48.45.14.13.27.26.42.38,11.56-10.62,18.12-25.41,18.12-41.11s-6.56-30.49-18.12-41.11c-.14.13-.28.26-.42.38-.16.15-.32.3-.48.45-.22.21-.43.42-.64.62-.15.15-.3.3-.45.45-.22.22-.43.44-.64.66-.14.15-.28.29-.42.44-.22.24-.44.49-.67.73-.12.13-.24.26-.36.39-.31.34-.6.69-.9,1.04-.05.07-.11.13-.17.2-.29.35-.58.7-.87,1.06-.11.15-.23.29-.34.44-.19.25-.39.5-.58.75-.13.17-.25.34-.38.52-.17.23-.34.46-.51.7-.13.18-.26.37-.39.55-.16.22-.31.45-.47.68-.13.19-.26.38-.38.58-.15.22-.29.45-.44.68-.12.2-.25.39-.37.59-.14.22-.28.45-.41.68-.12.2-.24.4-.36.61-.13.23-.26.46-.39.69-.11.21-.23.41-.34.62-.13.23-.25.47-.38.7-.11.21-.22.41-.32.62-.12.24-.24.48-.36.72l-.3.62c-.12.25-.23.49-.35.75-.09.2-.19.4-.28.61-.12.26-.23.53-.34.79-.08.19-.16.38-.25.58-.12.31-.25.61-.37.92-.06.16-.12.31-.18.47-.17.46-.34.92-.51,1.38-.05.15-.11.31-.16.46-.11.32-.22.64-.32.96-.06.19-.12.39-.18.59-.09.28-.17.56-.26.85l-.18.63c-.07.27-.15.54-.22.81-.05.22-.11.44-.16.65-.07.27-.13.54-.2.81-.05.22-.1.44-.15.66-.06.27-.12.54-.17.81-.05.22-.09.44-.13.67-.05.27-.1.54-.15.81-.04.22-.08.45-.11.67-.05.27-.09.55-.13.82-.03.22-.06.44-.1.67-.04.28-.07.56-.11.84-.03.22-.05.44-.08.66-.03.29-.06.58-.09.87-.02.22-.04.43-.06.64-.02.3-.05.61-.06.92-.01.2-.03.4-.04.6-.02.34-.03.68-.04,1.02,0,.17-.01.34-.02.51-.01.51-.02,1.02-.02,1.53h0c0,.51,0,1.02.02,1.53,0,.17.01.34.02.51.01.34.02.67.04,1.01,0,.2.03.41.04.61.02.3.04.6.06.91.02.22.04.43.06.65.03.29.05.57.09.86.02.22.05.44.08.67.03.28.07.56.11.83.03.22.06.45.1.68.04.27.08.54.13.82.04.22.08.45.11.68.05.27.1.54.15.81.04.22.09.45.13.67.05.27.11.54.17.8.05.22.1.45.15.67.06.27.13.54.2.8.05.22.11.44.16.66.07.27.15.54.22.81.06.21.12.43.18.64.08.28.17.56.26.84.06.2.12.4.18.6.1.32.21.63.32.94.05.16.11.32.16.48.16.46.33.92.51,1.38.06.16.13.32.19.48.12.3.24.6.36.91.08.2.16.39.25.59.11.26.22.53.34.79.09.21.19.41.28.61.11.25.23.49.34.74.1.21.2.42.3.62.12.24.24.48.36.71.11.21.22.42.32.62.12.23.25.47.38.7.11.21.23.41.34.62.13.23.26.46.39.69.12.21.24.41.36.61.14.23.27.45.41.68.12.2.25.4.37.59.14.22.29.45.43.68.13.19.25.39.38.58.15.23.31.45.47.68.13.19.26.37.39.56.16.23.33.46.51.7.13.17.25.34.38.52h0Z"/><path class="cls-4" d="M102.43,86.99c.13-.19.26-.38.38-.58.15-.22.29-.45.44-.68.12-.2.25-.4.37-.59.14-.22.27-.45.41-.68.12-.2.24-.41.36-.61.13-.23.26-.46.39-.69.11-.21.23-.41.34-.62.13-.23.25-.47.38-.7.11-.21.22-.41.32-.62.12-.24.24-.48.36-.72.1-.21.21-.41.3-.62.12-.25.23-.49.34-.74.09-.21.19-.41.28-.61.11-.26.23-.53.34-.79.08-.19.17-.38.25-.58.12-.3.24-.61.36-.91.06-.16.13-.32.19-.47.17-.46.34-.92.51-1.38.05-.16.11-.31.16-.47.11-.32.22-.63.32-.95.06-.2.12-.39.18-.59.09-.28.17-.56.26-.84.06-.21.12-.42.17-.63.08-.27.15-.54.22-.82.05-.22.11-.43.16-.65.07-.27.13-.54.2-.81.05-.22.1-.44.15-.66.06-.27.12-.54.17-.81.05-.22.09-.44.13-.67.05-.27.1-.54.15-.81.04-.22.08-.45.11-.67.05-.27.09-.55.13-.82.03-.22.06-.44.1-.67.04-.28.07-.56.11-.84.03-.22.05-.44.08-.66.03-.29.06-.58.09-.87.02-.22.04-.43.06-.64.02-.3.05-.61.06-.92l.04-.6c.02-.34.03-.68.04-1.02,0-.17.01-.34.02-.51.01-.51.02-1.02.02-1.53s0-1.02-.02-1.53c0-.17-.01-.34-.02-.51-.01-.34-.02-.68-.04-1.02,0-.2-.03-.4-.04-.6-.02-.31-.04-.61-.06-.92-.02-.22-.04-.43-.06-.64-.03-.29-.05-.58-.09-.87-.02-.22-.05-.44-.08-.66-.03-.28-.07-.56-.11-.84-.03-.22-.06-.44-.1-.67-.04-.27-.08-.55-.13-.83-.04-.22-.07-.44-.11-.67-.05-.27-.1-.54-.15-.82-.04-.22-.09-.44-.13-.66-.05-.27-.11-.54-.17-.81-.05-.22-.1-.43-.15-.65-.06-.27-.13-.54-.2-.81-.05-.22-.11-.43-.16-.64-.07-.27-.15-.55-.22-.82-.06-.21-.11-.41-.17-.62-.08-.29-.17-.58-.26-.86-.06-.19-.11-.38-.17-.57-.11-.33-.22-.66-.33-.99-.05-.14-.1-.28-.15-.43-.16-.47-.33-.93-.51-1.39-.05-.15-.11-.29-.17-.43-.12-.32-.25-.64-.38-.95-.08-.19-.16-.38-.24-.56-.11-.27-.23-.54-.35-.81-.09-.2-.18-.4-.27-.6-.11-.25-.23-.51-.35-.76-.1-.2-.2-.41-.3-.61-.12-.24-.24-.49-.37-.73-.11-.21-.21-.41-.32-.61-.12-.24-.25-.48-.38-.71-.11-.2-.22-.4-.33-.61-.13-.23-.27-.47-.4-.7-.11-.2-.23-.4-.35-.6-.14-.23-.28-.46-.42-.69-.12-.2-.24-.39-.37-.59-.15-.23-.29-.46-.44-.69-.12-.19-.25-.38-.38-.57-.16-.23-.32-.46-.47-.69-.13-.18-.25-.37-.38-.55-.17-.24-.34-.47-.52-.71-.12-.17-.25-.34-.37-.5-.19-.26-.39-.51-.59-.76-.11-.14-.22-.29-.33-.43-.29-.37-.59-.73-.89-1.09-.04-.05-.08-.1-.12-.15-.3-.36-.61-.72-.92-1.07-.11-.13-.23-.26-.35-.38-.22-.25-.45-.49-.67-.74-.14-.15-.28-.29-.42-.43-.21-.22-.43-.44-.64-.66-.15-.15-.3-.3-.45-.45-.21-.21-.43-.42-.64-.63-.16-.15-.32-.3-.47-.45-.14-.13-.27-.26-.42-.38-11.56,10.62-18.12,25.41-18.12,41.11s6.56,30.49,18.11,41.11c.14-.13.28-.26.42-.38.16-.15.32-.3.48-.45.22-.21.43-.41.64-.62.15-.15.31-.3.45-.45.22-.22.43-.44.64-.66.14-.15.28-.29.42-.44.22-.24.44-.49.66-.73.12-.13.24-.26.36-.39.31-.34.6-.69.9-1.04.05-.07.11-.13.17-.2.29-.35.58-.7.87-1.06.11-.15.23-.3.34-.44.19-.25.39-.49.58-.75.13-.17.26-.35.38-.52.17-.23.34-.46.5-.69.13-.18.26-.37.39-.55.16-.22.31-.45.47-.68h-.02Z"/><path class="cls-1" d="M304.78,38.65c3.5-5.03,7.91-8.94,13.25-11.73,5.34-2.79,11.28-4.19,17.85-4.19,5.64,0,10.5,1.06,14.58,3.17,4.08,2.12,7.19,5.11,9.34,8.97,2.15,3.86,3.19,8.37,3.13,13.52h-21.53c-.61-2.15-1.72-3.82-3.31-5.01-1.6-1.2-3.56-1.79-5.89-1.79-3.44,0-6.38,1.29-8.83,3.87-2.45,2.57-4.05,6.04-4.78,10.39-.25,1.23-.37,2.55-.37,3.96,0,3.19.78,5.7,2.35,7.54,1.56,1.84,3.79,2.76,6.67,2.76,2.33,0,4.51-.6,6.53-1.79s3.71-2.87,5.06-5.01h21.53c-1.84,5.15-4.51,9.66-8,13.52s-7.65,6.85-12.47,8.97c-4.82,2.12-10.04,3.17-15.69,3.17s-10.58-1.06-14.63-3.17c-4.05-2.12-7.12-5.12-9.2-9.02-2.09-3.89-3.13-8.42-3.13-13.57,0-2.52.21-4.97.64-7.36,1.1-6.44,3.4-12.17,6.9-17.2Z"/><path class="cls-1" d="M386.39,73.06h19.69l-2.76,15.46h-40.11l11.5-65.13h20.42l-8.74,49.68Z"/><path class="cls-1" d="M441.22,23.38l-6.44,36.71c-.18.98-.28,1.99-.28,3.04,0,2.08.55,3.72,1.66,4.92,1.1,1.2,2.85,1.79,5.24,1.79,2.94,0,5.27-.87,6.99-2.62,1.72-1.75,2.85-4.12,3.4-7.13l6.44-36.71h20.33l-6.44,36.71c-1.1,6.38-3.3,11.75-6.58,16.1-3.28,4.36-7.3,7.61-12.05,9.75-4.75,2.15-9.98,3.22-15.69,3.22-7.3,0-13.13-1.92-17.48-5.75-4.36-3.83-6.53-9.31-6.53-16.42,0-2.27.21-4.57.64-6.9l6.44-36.71h20.33Z"/><path class="cls-1" d="M534.32,49.92c-2.45,2.61-5.4,4.34-8.83,5.2,3.19.8,5.63,2.32,7.31,4.55,1.69,2.24,2.53,4.86,2.53,7.87,0,.98-.09,2.02-.28,3.13-.98,5.71-3.63,10.11-7.96,13.2-4.32,3.1-10.01,4.65-17.07,4.65h-34.13l11.5-65.13h33.21c5.89,0,10.47,1.15,13.75,3.45s4.92,5.66,4.92,10.07c0,1.04-.09,2.18-.28,3.4-.68,3.8-2.24,7.01-4.69,9.61ZM514.82,66.44c0-2.33-1.56-3.5-4.69-3.5h-9.29l-1.56,9.2h9.29c1.84,0,3.27-.35,4.28-1.06s1.64-1.85,1.89-3.45c.06-.31.09-.71.09-1.2ZM517.58,43.07c0-1.23-.38-2.12-1.15-2.67-.77-.55-1.95-.83-3.54-.83h-7.91l-1.66,9.2h7.91c1.84,0,3.28-.37,4.32-1.1,1.04-.74,1.69-1.87,1.93-3.4.06-.31.09-.7.09-1.2Z"/><path class="cls-1" d="M617.49,24.85l-11.22,63.66h-8.37l8.37-47.47-29.53,47.47h-5.89l-12.88-47.29-8.37,47.29h-8.37l11.32-63.66h9.02l14.26,52.62,32.75-52.62h8.92Z"/><path class="cls-1" d="M660.91,74.26h-28.06l-7.64,14.26h-8.83l34.41-63.76h9.66l11.87,63.76h-8.83l-2.58-14.26ZM659.72,67.72l-5.89-32.75-17.48,32.75h23.37Z"/><path class="cls-1" d="M732.86,88.52h-8.37l-24.56-51.06-9.11,51.06h-8.37l11.41-64.21h8.37l24.66,50.97,9.02-50.97h8.37l-11.41,64.21Z"/><path class="cls-1" d="M787.59,74.26h-28.06l-7.64,14.26h-8.83l34.41-63.76h9.66l11.87,63.76h-8.83l-2.58-14.26ZM786.4,67.72l-5.89-32.75-17.48,32.75h23.37Z"/><path class="cls-1" d="M818.92,39.52c3.71-5,8.26-8.89,13.66-11.68,5.4-2.79,11.07-4.19,17.02-4.19,6.87,0,12.62,1.69,17.25,5.06,4.63,3.37,7.62,8.13,8.97,14.26h-10.03c-1.1-3.74-3.17-6.64-6.21-8.7-3.04-2.05-6.79-3.08-11.27-3.08s-8.69,1.03-12.65,3.08c-3.96,2.06-7.28,5-9.98,8.83-2.7,3.83-4.51,8.27-5.43,13.29-.31,1.6-.46,3.44-.46,5.52,0,6.01,1.78,10.78,5.34,14.31,3.56,3.53,8.31,5.29,14.26,5.29,6.32,0,11.84-1.88,16.56-5.66,4.72-3.77,7.97-8.88,9.75-15.32h-25.58l1.2-6.62h34.5l-1.2,6.44c-1.41,5.28-3.91,10.11-7.5,14.49-3.59,4.39-7.91,7.85-12.97,10.4-5.06,2.55-10.41,3.82-16.05,3.82-5.28,0-9.95-1.09-14.03-3.27-4.08-2.18-7.25-5.26-9.52-9.25-2.27-3.99-3.4-8.56-3.4-13.71,0-2.08.18-4.23.55-6.44,1.1-6.26,3.51-11.88,7.22-16.88Z"/><path class="cls-1" d="M899.28,30.92l-3.86,21.99h23.28l-1.1,6.44h-23.28l-4.05,22.54h26.13l-1.2,6.62h-34.5l11.41-64.21h34.41l-1.2,6.62h-26.04Z"/><path class="cls-1" d="M974.35,28.53c3.25,2.76,4.88,6.44,4.88,11.04,0,.74-.12,1.96-.37,3.68-.8,4.42-2.76,8.31-5.89,11.68-3.13,3.38-7.33,5.61-12.6,6.72l11.32,26.86h-10.03l-10.67-26.22h-10.03l-4.69,26.22h-8.37l11.41-64.12h20.61c6.38,0,11.19,1.38,14.44,4.14ZM970.49,40.22c0-2.95-.97-5.21-2.9-6.81-1.93-1.59-4.89-2.39-8.88-2.39h-12.24l-4.32,24.56h12.33c4.54,0,8.13-1.12,10.76-3.36,2.64-2.24,4.29-5.23,4.97-8.97.18-1.1.28-2.12.28-3.04Z"/></svg>