<?xml version="1.0" encoding="UTF-8"?>
<svg id="Layer_1" xmlns="http://www.w3.org/2000/svg" version="1.1" viewBox="0 0 979.2 111.9">
  <!-- Generator: Adobe Illustrator 30.2.1, SVG Export Plug-In . SVG Version: 2.1.1 Build 1)  -->
  <defs>
    <style>
      .st0 {
        fill: #fff;
      }

      .st1 {
        fill: #cbfd80;
      }

      .st2 {
        opacity: .4;
      }

      .st3 {
        fill: #0f172b;
      }

      .st4 {
        fill: #82e896;
      }

      .st5 {
        fill: #34d399;
      }
    </style>
  </defs>
  <g>
    <g>
      <path class="st1" d="M246.8-663.8c10.6-10.6,16.4-24.6,16.4-39.5s-5.8-28.9-16.4-39.5c-10.6-10.6-24.6-16.4-39.5-16.4s-28.9,5.8-39.5,16.4c-10.6,10.6-16.4,24.6-16.4,39.5s5.8,28.9,16.4,39.5c10.6,10.6,24.6,16.4,39.5,16.4s28.9-5.8,39.5-16.4Z"/>
      <path class="st1" d="M95.4-742.8c-10.6-10.6-24.6-16.4-39.5-16.4s-28.9,5.8-39.5,16.4c-10.6,10.6-16.4,24.6-16.4,39.5s5.8,28.9,16.4,39.5c10.6,10.6,24.6,16.4,39.5,16.4s28.9-5.8,39.5-16.4c10.6-10.6,16.4-24.6,16.4-39.5s-5.8-28.9-16.4-39.5Z"/>
      <path class="st4" d="M162.1-656.5c-.2-.2-.5-.4-.7-.7-.1-.1-.3-.3-.4-.4-.4-.4-.8-.8-1.2-1.2,0,0-.1-.1-.2-.2-.3-.4-.7-.7-1-1.1-.1-.2-.3-.3-.4-.5-.2-.3-.5-.6-.7-.8-.2-.2-.3-.4-.4-.5-.2-.3-.4-.5-.7-.8-.2-.2-.3-.4-.4-.6-.2-.3-.4-.5-.6-.8-.1-.2-.3-.4-.4-.6-.2-.3-.4-.5-.6-.8-.1-.2-.3-.4-.4-.6-.2-.3-.4-.6-.6-.8-.1-.2-.3-.4-.4-.6-.2-.3-.4-.6-.6-.9-.1-.2-.2-.4-.4-.6-.2-.3-.4-.7-.6-1,0-.2-.2-.3-.3-.4-.3-.5-.6-1-.9-1.5h0c-.3-.5-.5-1-.8-1.5,0-.2-.2-.3-.2-.5-.2-.4-.4-.7-.5-1.1,0-.2-.2-.4-.3-.6-.2-.3-.3-.6-.5-1,0-.2-.2-.4-.3-.6-.1-.3-.3-.6-.4-1,0-.2-.2-.4-.3-.6-.1-.3-.3-.6-.4-1,0-.2-.2-.4-.3-.7-.1-.3-.2-.6-.4-1,0-.2-.2-.4-.2-.6-.1-.3-.2-.7-.3-1,0-.2-.1-.4-.2-.6-.1-.4-.2-.8-.4-1.2,0-.2-.1-.3-.1-.5-.3-1.1-.6-2.2-.9-3.3,0-.2,0-.4-.1-.5,0-.4-.2-.8-.2-1.2,0-.2,0-.4-.1-.6,0-.4-.1-.7-.2-1.1,0-.2,0-.5-.1-.7,0-.3-.1-.7-.2-1,0-.2,0-.5-.1-.7,0-.3,0-.7-.1-1,0-.2,0-.5,0-.7,0-.3,0-.7-.1-1,0-.2,0-.5,0-.7,0-.4,0-.7,0-1.1,0-.2,0-.5,0-.7,0-.4,0-.8,0-1.2,0-.2,0-.4,0-.6,0-.6,0-1.2,0-1.8s0-1.2,0-1.8c0-.2,0-.4,0-.6,0-.4,0-.8,0-1.2,0-.2,0-.5,0-.7,0-.4,0-.7,0-1.1,0-.2,0-.5,0-.7,0-.3,0-.7.1-1,0-.2,0-.5,0-.7,0-.3,0-.7.1-1,0-.2,0-.5.1-.7,0-.3.1-.7.2-1,0-.2,0-.5.1-.7,0-.4.1-.7.2-1.1v-.6c.2-.4.3-.8.4-1.2,0-.2,0-.4.1-.5.3-1.1.5-2.2.9-3.3,0-.2.1-.3.1-.5.1-.4.2-.8.4-1.2,0-.2.1-.4.2-.6.1-.3.2-.7.3-1,0-.2.2-.4.2-.6.1-.3.2-.7.4-1,0-.2.2-.4.3-.6.1-.3.3-.6.4-1,0-.2.2-.4.3-.6.1-.3.3-.6.4-1,0-.2.2-.4.3-.6.2-.3.3-.7.5-1,0-.2.2-.4.3-.6.2-.4.4-.7.5-1.1,0-.2.2-.3.2-.5.5-1,1.1-2,1.7-3,0-.1.2-.3.3-.4.2-.4.4-.7.6-1,.1-.2.2-.4.3-.5.2-.3.4-.6.6-.9.1-.2.3-.4.4-.6.2-.3.4-.6.6-.9.1-.2.3-.4.4-.6.2-.3.4-.6.6-.8.1-.2.3-.4.4-.6.2-.3.4-.5.6-.8.1-.2.3-.4.4-.6.2-.3.4-.6.7-.8.1-.2.3-.3.4-.5.3-.3.5-.6.8-.9.1-.1.3-.3.4-.4.4-.4.7-.8,1.1-1.2,0,0,0,0,.1-.1.4-.4.8-.8,1.2-1.3.1-.1.3-.3.4-.4.2-.2.5-.5.7-.7-9.1-5.9-19.7-9.1-30.5-9.1s-21.5,3.2-30.5,9.1c.2.2.5.5.7.7.1.1.3.3.4.4.4.4.8.8,1.2,1.3,0,0,0,0,.1.1.4.4.7.8,1.1,1.2.1.1.3.3.4.4.3.3.5.6.8.9.1.2.3.3.4.5.2.3.5.5.7.8.1.2.3.4.4.6.2.3.4.5.6.8.1.2.3.4.4.6.2.3.4.6.6.8.1.2.3.4.4.6.2.3.4.6.6.9.1.2.3.4.4.6.2.3.4.6.6.9.1.2.2.4.3.5.2.4.4.7.6,1.1,0,.1.2.3.2.4.6,1,1.1,2,1.7,3,0,.1.2.3.2.4.2.4.4.7.5,1.1,0,.2.2.4.3.6.2.3.3.7.5,1,0,.2.2.4.3.6.1.3.3.6.4,1,0,.2.2.4.3.6.1.3.3.6.4,1,0,.2.2.4.2.6.1.3.2.7.4,1,0,.2.2.4.2.6.1.3.2.7.3,1,0,.2.1.4.2.6.1.4.2.8.4,1.2,0,.2,0,.3.1.5.3,1.1.6,2.2.9,3.4,0,.2,0,.3.1.5,0,.4.2.8.3,1.2,0,.2,0,.4.1.6,0,.4.1.7.2,1.1,0,.2,0,.5.1.7,0,.3.1.7.2,1,0,.2,0,.5.1.7,0,.3,0,.7.1,1,0,.2,0,.5,0,.7,0,.3,0,.7.1,1,0,.2,0,.5,0,.7,0,.4,0,.7,0,1.1,0,.2,0,.5,0,.7,0,.4,0,.8,0,1.2,0,.2,0,.4,0,.6,0,.6,0,1.2,0,1.8s0,1.2,0,1.8c0,.2,0,.4,0,.6,0,.4,0,.8,0,1.2,0,.2,0,.5,0,.7,0,.4,0,.7,0,1.1,0,.2,0,.5,0,.7,0,.3,0,.7-.1,1,0,.2,0,.5,0,.7,0,.3,0,.7-.1,1,0,.2,0,.5-.1.7,0,.3-.1.7-.2,1,0,.2,0,.5-.1.7,0,.4-.1.7-.2,1,0,.2,0,.4-.1.7,0,.4-.2.8-.2,1.2,0,.2,0,.4-.1.5-.3,1.1-.5,2.2-.9,3.3,0,.2-.1.3-.1.5-.1.4-.2.8-.4,1.2,0,.2-.1.4-.2.6-.1.3-.2.7-.3,1,0,.2-.2.4-.2.6-.1.3-.2.7-.4,1,0,.2-.2.4-.3.7-.1.3-.3.6-.4,1,0,.2-.2.4-.3.6-.1.3-.3.6-.4,1,0,.2-.2.4-.3.6-.2.3-.3.7-.5,1,0,.2-.2.4-.3.6-.2.4-.4.7-.5,1.1,0,.2-.2.3-.2.5-.5,1-1.1,2-1.7,3,0,.1-.2.3-.3.4-.2.3-.4.7-.6,1-.1.2-.2.4-.3.5-.2.3-.4.6-.6.9-.1.2-.3.4-.4.6-.2.3-.4.6-.6.9-.1.2-.3.4-.4.6-.2.3-.4.5-.6.8-.1.2-.3.4-.4.6-.2.3-.4.5-.6.8-.1.2-.3.4-.4.6-.2.3-.4.5-.7.8-.1.2-.3.4-.4.5-.2.3-.5.6-.7.9-.1.2-.3.3-.4.5-.3.4-.7.7-1,1.1,0,0-.1.1-.2.2-.4.4-.8.8-1.2,1.2-.1.2-.3.3-.4.4-.2.2-.4.4-.7.7,9.1,5.9,19.7,9.1,30.5,9.1s21.5-3.2,30.5-9.1h0Z"/>
      <path class="st5" d="M162.5-669.8c.2.3.4.5.6.8.1.1.2.3.3.4.3.4.6.7.9,1.1,0,0,.1.1.2.2.3.4.6.7.9,1,.1.1.2.3.4.4.2.2.4.5.7.7.1.1.3.3.4.4.2.2.4.4.6.7.2.2.3.3.5.4.2.2.4.4.6.6.2.2.3.3.5.4.1.1.3.3.4.4,11.6-10.6,18.1-25.4,18.1-41.1s-6.6-30.5-18.1-41.1c-.1.1-.3.3-.4.4-.2.2-.3.3-.5.4-.2.2-.4.4-.6.6-.2.2-.3.3-.5.4-.2.2-.4.4-.6.7-.1.1-.3.3-.4.4-.2.2-.4.5-.7.7-.1.1-.2.3-.4.4-.3.3-.6.7-.9,1,0,0-.1.1-.2.2-.3.4-.6.7-.9,1.1-.1.1-.2.3-.3.4-.2.2-.4.5-.6.8-.1.2-.3.3-.4.5-.2.2-.3.5-.5.7-.1.2-.3.4-.4.6-.2.2-.3.5-.5.7-.1.2-.3.4-.4.6-.1.2-.3.4-.4.7-.1.2-.2.4-.4.6-.1.2-.3.5-.4.7-.1.2-.2.4-.4.6-.1.2-.3.5-.4.7-.1.2-.2.4-.3.6-.1.2-.3.5-.4.7-.1.2-.2.4-.3.6-.1.2-.2.5-.4.7l-.3.6c-.1.2-.2.5-.3.7,0,.2-.2.4-.3.6-.1.3-.2.5-.3.8,0,.2-.2.4-.2.6-.1.3-.2.6-.4.9,0,.2-.1.3-.2.5-.2.5-.3.9-.5,1.4,0,.2-.1.3-.2.5-.1.3-.2.6-.3,1,0,.2-.1.4-.2.6,0,.3-.2.6-.3.8l-.2.6c0,.3-.2.5-.2.8,0,.2-.1.4-.2.7,0,.3-.1.5-.2.8,0,.2-.1.4-.2.7,0,.3-.1.5-.2.8,0,.2,0,.4-.1.7,0,.3-.1.5-.2.8,0,.2,0,.4-.1.7,0,.3,0,.5-.1.8,0,.2,0,.4,0,.7,0,.3,0,.6-.1.8,0,.2,0,.4,0,.7,0,.3,0,.6,0,.9,0,.2,0,.4,0,.6,0,.3,0,.6,0,.9,0,.2,0,.4,0,.6,0,.3,0,.7,0,1,0,.2,0,.3,0,.5,0,.5,0,1,0,1.5h0c0,.5,0,1,0,1.5,0,.2,0,.3,0,.5,0,.3,0,.7,0,1,0,.2,0,.4,0,.6,0,.3,0,.6,0,.9,0,.2,0,.4,0,.6,0,.3,0,.6,0,.9,0,.2,0,.4,0,.7,0,.3,0,.6.1.8,0,.2,0,.4,0,.7,0,.3,0,.5.1.8,0,.2,0,.5.1.7,0,.3,0,.5.2.8,0,.2,0,.4.1.7,0,.3.1.5.2.8,0,.2.1.4.2.7,0,.3.1.5.2.8,0,.2.1.4.2.7,0,.3.1.5.2.8,0,.2.1.4.2.6,0,.3.2.6.3.8,0,.2.1.4.2.6.1.3.2.6.3.9,0,.2.1.3.2.5.2.5.3.9.5,1.4,0,.2.1.3.2.5.1.3.2.6.4.9,0,.2.2.4.3.6.1.3.2.5.3.8,0,.2.2.4.3.6.1.2.2.5.3.7.1.2.2.4.3.6.1.2.2.5.4.7.1.2.2.4.3.6.1.2.2.5.4.7.1.2.2.4.3.6.1.2.3.5.4.7.1.2.2.4.4.6.1.2.3.5.4.7.1.2.2.4.4.6.1.2.3.5.4.7.1.2.3.4.4.6.2.2.3.5.5.7.1.2.3.4.4.6.2.2.3.5.5.7.1.2.3.3.4.5h0Z"/>
      <path class="st5" d="M102.4-672.3c.1-.2.3-.4.4-.6.1-.2.3-.4.4-.7.1-.2.2-.4.4-.6.1-.2.3-.5.4-.7.1-.2.2-.4.4-.6.1-.2.3-.5.4-.7.1-.2.2-.4.3-.6.1-.2.3-.5.4-.7.1-.2.2-.4.3-.6.1-.2.2-.5.4-.7.1-.2.2-.4.3-.6.1-.2.2-.5.3-.7,0-.2.2-.4.3-.6.1-.3.2-.5.3-.8,0-.2.2-.4.2-.6.1-.3.2-.6.4-.9,0-.2.1-.3.2-.5.2-.5.3-.9.5-1.4,0-.2.1-.3.2-.5.1-.3.2-.6.3-1,0-.2.1-.4.2-.6,0-.3.2-.6.3-.8,0-.2.1-.4.2-.6,0-.3.2-.5.2-.8,0-.2.1-.4.2-.6,0-.3.1-.5.2-.8,0-.2.1-.4.2-.7,0-.3.1-.5.2-.8,0-.2,0-.4.1-.7,0-.3.1-.5.2-.8,0-.2,0-.4.1-.7,0-.3,0-.5.1-.8,0-.2,0-.4,0-.7,0-.3,0-.6.1-.8,0-.2,0-.4,0-.7,0-.3,0-.6,0-.9,0-.2,0-.4,0-.6,0-.3,0-.6,0-.9v-.6c0-.3,0-.7,0-1,0-.2,0-.3,0-.5,0-.5,0-1,0-1.5s0-1,0-1.5c0-.2,0-.3,0-.5,0-.3,0-.7,0-1,0-.2,0-.4,0-.6,0-.3,0-.6,0-.9,0-.2,0-.4,0-.6,0-.3,0-.6,0-.9,0-.2,0-.4,0-.7,0-.3,0-.6-.1-.8,0-.2,0-.4,0-.7,0-.3,0-.6-.1-.8,0-.2,0-.4-.1-.7,0-.3-.1-.5-.2-.8,0-.2,0-.4-.1-.7,0-.3-.1-.5-.2-.8,0-.2,0-.4-.1-.7,0-.3-.1-.5-.2-.8,0-.2-.1-.4-.2-.6,0-.3-.2-.5-.2-.8,0-.2-.1-.4-.2-.6,0-.3-.2-.6-.3-.9,0-.2-.1-.4-.2-.6-.1-.3-.2-.7-.3-1,0-.1,0-.3-.1-.4-.2-.5-.3-.9-.5-1.4,0-.1-.1-.3-.2-.4-.1-.3-.2-.6-.4-1,0-.2-.2-.4-.2-.6-.1-.3-.2-.5-.3-.8,0-.2-.2-.4-.3-.6-.1-.3-.2-.5-.4-.8,0-.2-.2-.4-.3-.6-.1-.2-.2-.5-.4-.7-.1-.2-.2-.4-.3-.6-.1-.2-.3-.5-.4-.7-.1-.2-.2-.4-.3-.6-.1-.2-.3-.5-.4-.7-.1-.2-.2-.4-.4-.6-.1-.2-.3-.5-.4-.7-.1-.2-.2-.4-.4-.6-.1-.2-.3-.5-.4-.7-.1-.2-.2-.4-.4-.6-.2-.2-.3-.5-.5-.7-.1-.2-.3-.4-.4-.5-.2-.2-.3-.5-.5-.7-.1-.2-.2-.3-.4-.5-.2-.3-.4-.5-.6-.8-.1-.1-.2-.3-.3-.4-.3-.4-.6-.7-.9-1.1,0,0,0-.1-.1-.1-.3-.4-.6-.7-.9-1.1-.1-.1-.2-.3-.3-.4-.2-.2-.4-.5-.7-.7-.1-.1-.3-.3-.4-.4-.2-.2-.4-.4-.6-.7-.1-.2-.3-.3-.4-.4-.2-.2-.4-.4-.6-.6-.2-.2-.3-.3-.5-.4-.1-.1-.3-.3-.4-.4-11.6,10.6-18.1,25.4-18.1,41.1s6.6,30.5,18.1,41.1c.1-.1.3-.3.4-.4.2-.2.3-.3.5-.4.2-.2.4-.4.6-.6.2-.2.3-.3.5-.5.2-.2.4-.4.6-.7.1-.1.3-.3.4-.4.2-.2.4-.5.7-.7.1-.1.2-.3.4-.4.3-.3.6-.7.9-1,0,0,.1-.1.2-.2.3-.4.6-.7.9-1.1.1-.1.2-.3.3-.4.2-.2.4-.5.6-.7.1-.2.3-.3.4-.5.2-.2.3-.5.5-.7.1-.2.3-.4.4-.6.2-.2.3-.5.5-.7h0Z"/>
    </g>
    <g>
      <path d="M304.8-733.6c3.5-5,7.9-8.9,13.2-11.7,5.3-2.8,11.3-4.2,17.8-4.2s10.5,1.1,14.6,3.2c4.1,2.1,7.2,5.1,9.3,9,2.1,3.9,3.2,8.4,3.1,13.5h-21.5c-.6-2.1-1.7-3.8-3.3-5-1.6-1.2-3.6-1.8-5.9-1.8-3.4,0-6.4,1.3-8.8,3.9-2.5,2.6-4,6-4.8,10.4-.2,1.2-.4,2.5-.4,4,0,3.2.8,5.7,2.3,7.5s3.8,2.8,6.7,2.8,4.5-.6,6.5-1.8c2-1.2,3.7-2.9,5.1-5h21.5c-1.8,5.2-4.5,9.7-8,13.5-3.5,3.9-7.7,6.9-12.5,9-4.8,2.1-10,3.2-15.7,3.2s-10.6-1.1-14.6-3.2-7.1-5.1-9.2-9c-2.1-3.9-3.1-8.4-3.1-13.6s.2-5,.6-7.4c1.1-6.4,3.4-12.2,6.9-17.2Z"/>
      <path d="M386.4-699.2h19.7l-2.8,15.5h-40.1l11.5-65.1h20.4l-8.7,49.7Z"/>
      <path d="M441.2-748.9l-6.4,36.7c-.2,1-.3,2-.3,3,0,2.1.6,3.7,1.7,4.9,1.1,1.2,2.9,1.8,5.2,1.8s5.3-.9,7-2.6c1.7-1.7,2.9-4.1,3.4-7.1l6.4-36.7h20.3l-6.4,36.7c-1.1,6.4-3.3,11.7-6.6,16.1-3.3,4.4-7.3,7.6-12.1,9.8-4.8,2.1-10,3.2-15.7,3.2s-13.1-1.9-17.5-5.8c-4.4-3.8-6.5-9.3-6.5-16.4s.2-4.6.6-6.9l6.4-36.7h20.3Z"/>
      <path d="M534.3-722.3c-2.5,2.6-5.4,4.3-8.8,5.2,3.2.8,5.6,2.3,7.3,4.6,1.7,2.2,2.5,4.9,2.5,7.9s0,2-.3,3.1c-1,5.7-3.6,10.1-8,13.2-4.3,3.1-10,4.6-17.1,4.6h-34.1l11.5-65.1h33.2c5.9,0,10.5,1.1,13.8,3.5,3.3,2.3,4.9,5.7,4.9,10.1s0,2.2-.3,3.4c-.7,3.8-2.2,7-4.7,9.6ZM514.8-705.8c0-2.3-1.6-3.5-4.7-3.5h-9.3l-1.6,9.2h9.3c1.8,0,3.3-.4,4.3-1.1,1-.7,1.6-1.9,1.9-3.5,0-.3,0-.7,0-1.2ZM517.6-729.2c0-1.2-.4-2.1-1.1-2.7-.8-.6-1.9-.8-3.5-.8h-7.9l-1.7,9.2h7.9c1.8,0,3.3-.4,4.3-1.1,1-.7,1.7-1.9,1.9-3.4,0-.3,0-.7,0-1.2Z"/>
      <path d="M617.5-747.4l-11.2,63.7h-8.4l8.4-47.5-29.5,47.5h-5.9l-12.9-47.3-8.4,47.3h-8.4l11.3-63.7h9l14.3,52.6,32.8-52.6h8.9Z"/>
      <path d="M660.9-698h-28.1l-7.6,14.3h-8.8l34.4-63.8h9.7l11.9,63.8h-8.8l-2.6-14.3ZM659.7-704.5l-5.9-32.8-17.5,32.8h23.4Z"/>
      <path d="M732.9-683.7h-8.4l-24.6-51.1-9.1,51.1h-8.4l11.4-64.2h8.4l24.7,51,9-51h8.4l-11.4,64.2Z"/>
      <path d="M787.6-698h-28.1l-7.6,14.3h-8.8l34.4-63.8h9.7l11.9,63.8h-8.8l-2.6-14.3ZM786.4-704.5l-5.9-32.8-17.5,32.8h23.4Z"/>
      <path d="M818.9-732.7c3.7-5,8.3-8.9,13.7-11.7,5.4-2.8,11.1-4.2,17-4.2s12.6,1.7,17.2,5.1c4.6,3.4,7.6,8.1,9,14.3h-10c-1.1-3.7-3.2-6.6-6.2-8.7-3-2.1-6.8-3.1-11.3-3.1s-8.7,1-12.7,3.1c-4,2.1-7.3,5-10,8.8-2.7,3.8-4.5,8.3-5.4,13.3-.3,1.6-.5,3.4-.5,5.5,0,6,1.8,10.8,5.3,14.3,3.6,3.5,8.3,5.3,14.3,5.3s11.8-1.9,16.6-5.7c4.7-3.8,8-8.9,9.8-15.3h-25.6l1.2-6.6h34.5l-1.2,6.4c-1.4,5.3-3.9,10.1-7.5,14.5-3.6,4.4-7.9,7.9-13,10.4-5.1,2.5-10.4,3.8-16.1,3.8s-10-1.1-14-3.3c-4.1-2.2-7.3-5.3-9.5-9.2-2.3-4-3.4-8.6-3.4-13.7s.2-4.2.6-6.4c1.1-6.3,3.5-11.9,7.2-16.9Z"/>
      <path d="M899.3-741.3l-3.9,22h23.3l-1.1,6.4h-23.3l-4,22.5h26.1l-1.2,6.6h-34.5l11.4-64.2h34.4l-1.2,6.6h-26Z"/>
      <path d="M974.4-743.7c3.2,2.8,4.9,6.4,4.9,11s-.1,2-.4,3.7c-.8,4.4-2.8,8.3-5.9,11.7-3.1,3.4-7.3,5.6-12.6,6.7l11.3,26.9h-10l-10.7-26.2h-10l-4.7,26.2h-8.4l11.4-64.1h20.6c6.4,0,11.2,1.4,14.4,4.1ZM970.5-732c0-2.9-1-5.2-2.9-6.8-1.9-1.6-4.9-2.4-8.9-2.4h-12.2l-4.3,24.6h12.3c4.5,0,8.1-1.1,10.8-3.4,2.6-2.2,4.3-5.2,5-9,.2-1.1.3-2.1.3-3Z"/>
    </g>
    <g class="st2">
      <path class="st3" d="M304.9-668.7c1.7-1,3.5-1.4,5.6-1.4s4.8.8,6.3,2.3c1.6,1.6,2.4,3.7,2.4,6.3s0,1.6-.2,2.5c-.4,2.2-1.2,4.2-2.4,5.9-1.2,1.7-2.7,3-4.4,4-1.7.9-3.6,1.4-5.6,1.4s-3.7-.5-5.1-1.4c-1.3-.9-2.2-2.2-2.7-3.7l-.8,4.8h-2.8l5.2-29.6h2.8l-2.2,12.6c1-1.5,2.3-2.8,4-3.7ZM316.3-661c0-2.1-.6-3.8-1.9-4.9-1.2-1.2-2.9-1.8-4.9-1.8s-2.9.4-4.3,1.1c-1.4.7-2.5,1.7-3.5,3.1-1,1.3-1.6,2.9-1.9,4.6-.1.7-.2,1.4-.2,2,0,2.1.6,3.7,1.9,5,1.3,1.2,2.9,1.8,4.9,1.8s3-.4,4.3-1.1c1.3-.7,2.5-1.7,3.4-3.1s1.6-2.9,1.9-4.7c.1-.8.2-1.5.2-2Z"/>
      <path class="st3" d="M326.5-669.8l4.1,18.5,10.4-18.5h2.9l-18.6,32.1h-3l6.1-10.4-5.1-21.7h3.1Z"/>
      <path class="st3" d="M393.6-676.3l-5,28.3h-8.8l2.5-14.1-6.8,14.1h-7.6l-1.9-14.2-2.5,14.2h-8.9l5-28.3h10.9l3.2,17,9.1-17h10.8Z"/>
      <path class="st3" d="M411.5-652.3h-9.4l-2.2,4.3h-9.3l15.4-28.3h10.2l5.3,28.3h-9.4l-.6-4.3ZM410.5-658.9l-1.2-7.9-4,7.9h5.1Z"/>
      <path class="st3" d="M450.7-676.3l-1.2,7h-7.5l-3.8,21.3h-8.9l3.8-21.3h-7.4l1.2-7h23.8Z"/>
      <path class="st3" d="M452.8-669.7c1.5-2.2,3.4-3.9,5.8-5.1,2.3-1.2,4.9-1.8,7.8-1.8s4.6.5,6.3,1.4c1.8.9,3.1,2.2,4.1,3.9.9,1.7,1.4,3.6,1.4,5.9h-9.4c-.3-.9-.7-1.7-1.4-2.2-.7-.5-1.5-.8-2.6-.8-1.5,0-2.8.6-3.8,1.7-1.1,1.1-1.8,2.6-2.1,4.5-.1.5-.2,1.1-.2,1.7,0,1.4.3,2.5,1,3.3.7.8,1.6,1.2,2.9,1.2s2-.3,2.8-.8c.9-.5,1.6-1.2,2.2-2.2h9.4c-.8,2.2-2,4.2-3.5,5.9-1.5,1.7-3.3,3-5.4,3.9s-4.4,1.4-6.8,1.4-4.6-.5-6.4-1.4-3.1-2.2-4-3.9c-.9-1.7-1.4-3.7-1.4-5.9s0-2.2.3-3.2c.5-2.8,1.5-5.3,3-7.5Z"/>
      <path class="st3" d="M509.4-676.3l-5,28.3h-8.9l2-11h-8.4l-2,11h-8.9l5-28.3h8.9l-1.8,10.2h8.4l1.8-10.2h8.9Z"/>
      <path class="st3" d="M528.2-661.9c-1.9,1.5-4.4,2.3-7.6,2.3h-5.4l-2.1,11.6h-3.6l5-27.9h9c2.8,0,4.9.6,6.2,1.8,1.4,1.2,2.1,2.8,2.1,4.7s0,.9-.2,1.6c-.4,2.3-1.5,4.2-3.4,5.8ZM525.8-663.9c1.1-.9,1.8-2.2,2.1-3.8,0-.5.1-.9.1-1.3,0-2.6-1.7-4-5.1-4h-5.4l-1.8,10.5h5.4c2,0,3.6-.5,4.7-1.4Z"/>
      <path class="st3" d="M552.8-674.1c1.4,1.2,2.1,2.8,2.1,4.8s0,.9-.2,1.6c-.3,1.9-1.2,3.6-2.6,5.1-1.4,1.5-3.2,2.4-5.5,2.9l4.9,11.7h-4.4l-4.6-11.4h-4.4l-2,11.4h-3.6l5-27.9h9c2.8,0,4.9.6,6.3,1.8ZM551.2-669c0-1.3-.4-2.3-1.3-3-.8-.7-2.1-1-3.9-1h-5.3l-1.9,10.7h5.4c2,0,3.5-.5,4.7-1.5,1.1-1,1.9-2.3,2.2-3.9,0-.5.1-.9.1-1.3Z"/>
      <path class="st3" d="M563.6-649.2c-1.8-1-3.1-2.3-4.1-4.1-1-1.8-1.5-3.8-1.5-6s.7-6,2.1-8.6c1.4-2.6,3.4-4.6,5.9-6.1,2.5-1.5,5.3-2.2,8.4-2.2s4.4.5,6.2,1.5c1.8,1,3.1,2.3,4.1,4.1,1,1.7,1.4,3.8,1.4,6s-.7,6-2.1,8.6c-1.4,2.6-3.4,4.6-5.9,6.1-2.5,1.5-5.3,2.2-8.4,2.2s-4.4-.5-6.1-1.5ZM576.5-652.8c1.9-1.2,3.3-2.8,4.3-4.9s1.6-4.3,1.6-6.7-.8-4.7-2.3-6.2c-1.5-1.5-3.6-2.3-6.2-2.3s-4.4.6-6.3,1.8c-1.9,1.2-3.3,2.8-4.3,4.9s-1.5,4.3-1.5,6.7.8,4.7,2.3,6.3c1.5,1.5,3.6,2.3,6.2,2.3s4.4-.6,6.3-1.8Z"/>
    </g>
  </g>
  <g>
    <g>
      <path class="st1" d="M246.8-384.4c10.6-10.6,16.4-24.6,16.4-39.5s-5.8-28.9-16.4-39.5c-10.6-10.6-24.6-16.4-39.5-16.4s-28.9,5.8-39.5,16.4-16.4,24.6-16.4,39.5,5.8,28.9,16.4,39.5,24.6,16.4,39.5,16.4,28.9-5.8,39.5-16.4Z"/>
      <path class="st1" d="M95.4-463.4c-10.6-10.6-24.6-16.4-39.5-16.4s-28.9,5.8-39.5,16.4C5.8-452.8,0-438.8,0-423.9s5.8,28.9,16.4,39.5c10.6,10.6,24.6,16.4,39.5,16.4s28.9-5.8,39.5-16.4c10.6-10.6,16.4-24.6,16.4-39.5s-5.8-28.9-16.4-39.5Z"/>
      <path class="st4" d="M162.1-377.1c-.2-.2-.5-.4-.7-.7-.1-.1-.3-.3-.4-.4-.4-.4-.8-.8-1.2-1.2,0,0-.1-.1-.2-.2-.3-.4-.7-.7-1-1.1-.1-.2-.3-.3-.4-.5-.2-.3-.5-.6-.7-.8-.2-.2-.3-.4-.4-.5-.2-.3-.4-.5-.7-.8-.2-.2-.3-.4-.4-.6-.2-.3-.4-.5-.6-.8-.1-.2-.3-.4-.4-.6-.2-.3-.4-.5-.6-.8-.1-.2-.3-.4-.4-.6-.2-.3-.4-.6-.6-.8-.1-.2-.3-.4-.4-.6-.2-.3-.4-.6-.6-.9-.1-.2-.2-.4-.4-.6-.2-.3-.4-.7-.6-1,0-.2-.2-.3-.3-.4-.3-.5-.6-1-.9-1.5h0c-.3-.5-.5-1-.8-1.5,0-.2-.2-.3-.2-.5-.2-.4-.4-.7-.5-1.1,0-.2-.2-.4-.3-.6-.2-.3-.3-.6-.5-1,0-.2-.2-.4-.3-.6-.1-.3-.3-.6-.4-1,0-.2-.2-.4-.3-.6-.1-.3-.3-.6-.4-1,0-.2-.2-.4-.3-.7-.1-.3-.2-.6-.4-1,0-.2-.2-.4-.2-.6-.1-.3-.2-.7-.3-1,0-.2-.1-.4-.2-.6-.1-.4-.2-.8-.4-1.2,0-.2-.1-.3-.1-.5-.3-1.1-.6-2.2-.9-3.3,0-.2,0-.4-.1-.5,0-.4-.2-.8-.2-1.2,0-.2,0-.4-.1-.6,0-.4-.1-.7-.2-1.1,0-.2,0-.5-.1-.7,0-.3-.1-.7-.2-1,0-.2,0-.5-.1-.7,0-.3,0-.7-.1-1,0-.2,0-.5,0-.7,0-.3,0-.7-.1-1,0-.2,0-.5,0-.7,0-.4,0-.7,0-1.1,0-.2,0-.5,0-.7,0-.4,0-.8,0-1.2,0-.2,0-.4,0-.6,0-.6,0-1.2,0-1.8s0-1.2,0-1.8c0-.2,0-.4,0-.6,0-.4,0-.8,0-1.2,0-.2,0-.5,0-.7,0-.4,0-.7,0-1.1,0-.2,0-.5,0-.7,0-.3,0-.7.1-1,0-.2,0-.5,0-.7,0-.3,0-.7.1-1,0-.2,0-.5.1-.7,0-.3.1-.7.2-1,0-.2,0-.5.1-.7,0-.4.1-.7.2-1.1v-.6c.2-.4.3-.8.4-1.2,0-.2,0-.4.1-.5.3-1.1.5-2.2.9-3.3,0-.2.1-.3.1-.5.1-.4.2-.8.4-1.2,0-.2.1-.4.2-.6.1-.3.2-.7.3-1,0-.2.2-.4.2-.6.1-.3.2-.7.4-1,0-.2.2-.4.3-.6.1-.3.3-.6.4-1,0-.2.2-.4.3-.6.1-.3.3-.6.4-1,0-.2.2-.4.3-.6.2-.3.3-.7.5-1,0-.2.2-.4.3-.6.2-.4.4-.7.5-1.1,0-.2.2-.3.2-.5.5-1,1.1-2,1.7-3,0-.1.2-.3.3-.4.2-.4.4-.7.6-1,.1-.2.2-.4.3-.5.2-.3.4-.6.6-.9.1-.2.3-.4.4-.6.2-.3.4-.6.6-.9.1-.2.3-.4.4-.6.2-.3.4-.6.6-.8.1-.2.3-.4.4-.6.2-.3.4-.5.6-.8.1-.2.3-.4.4-.6.2-.3.4-.6.7-.8.1-.2.3-.3.4-.5.3-.3.5-.6.8-.9.1-.1.3-.3.4-.4.4-.4.7-.8,1.1-1.2,0,0,0,0,.1-.1.4-.4.8-.8,1.2-1.3.1-.1.3-.3.4-.4.2-.2.5-.5.7-.7-9.1-5.9-19.7-9.1-30.5-9.1s-21.5,3.2-30.5,9.1c.2.2.5.5.7.7.1.1.3.3.4.4.4.4.8.8,1.2,1.3,0,0,0,0,.1.1.4.4.7.8,1.1,1.2.1.1.3.3.4.4.3.3.5.6.8.9.1.2.3.3.4.5.2.3.5.5.7.8.1.2.3.4.4.6.2.3.4.5.6.8.1.2.3.4.4.6.2.3.4.6.6.8.1.2.3.4.4.6.2.3.4.6.6.9.1.2.3.4.4.6.2.3.4.6.6.9.1.2.2.4.3.5.2.4.4.7.6,1.1,0,.1.2.3.2.4.6,1,1.1,2,1.7,3,0,.1.2.3.2.4.2.4.4.7.5,1.1,0,.2.2.4.3.6.2.3.3.7.5,1,0,.2.2.4.3.6.1.3.3.6.4,1,0,.2.2.4.3.6.1.3.3.6.4,1,0,.2.2.4.2.6.1.3.2.7.4,1,0,.2.2.4.2.6.1.3.2.7.3,1,0,.2.1.4.2.6.1.4.2.8.4,1.2,0,.2,0,.3.1.5.3,1.1.6,2.2.9,3.4,0,.2,0,.3.1.5,0,.4.2.8.3,1.2,0,.2,0,.4.1.6,0,.4.1.7.2,1.1,0,.2,0,.5.1.7,0,.3.1.7.2,1,0,.2,0,.5.1.7,0,.3,0,.7.1,1,0,.2,0,.5,0,.7,0,.3,0,.7.1,1,0,.2,0,.5,0,.7,0,.4,0,.7,0,1.1,0,.2,0,.5,0,.7,0,.4,0,.8,0,1.2,0,.2,0,.4,0,.6,0,.6,0,1.2,0,1.8s0,1.2,0,1.8c0,.2,0,.4,0,.6,0,.4,0,.8,0,1.2,0,.2,0,.5,0,.7,0,.4,0,.7,0,1.1,0,.2,0,.5,0,.7,0,.3,0,.7-.1,1,0,.2,0,.5,0,.7,0,.3,0,.7-.1,1,0,.2,0,.5-.1.7,0,.3-.1.7-.2,1,0,.2,0,.5-.1.7,0,.4-.1.7-.2,1,0,.2,0,.4-.1.7,0,.4-.2.8-.2,1.2,0,.2,0,.4-.1.5-.3,1.1-.5,2.2-.9,3.3,0,.2-.1.3-.1.5-.1.4-.2.8-.4,1.2,0,.2-.1.4-.2.6-.1.3-.2.7-.3,1,0,.2-.2.4-.2.6-.1.3-.2.7-.4,1,0,.2-.2.4-.3.7-.1.3-.3.6-.4,1,0,.2-.2.4-.3.6-.1.3-.3.6-.4,1,0,.2-.2.4-.3.6-.2.3-.3.7-.5,1,0,.2-.2.4-.3.6-.2.4-.4.7-.5,1.1,0,.2-.2.3-.2.5-.5,1-1.1,2-1.7,3,0,.1-.2.3-.3.4-.2.3-.4.7-.6,1-.1.2-.2.4-.3.5-.2.3-.4.6-.6.9-.1.2-.3.4-.4.6-.2.3-.4.6-.6.9-.1.2-.3.4-.4.6-.2.3-.4.5-.6.8-.1.2-.3.4-.4.6-.2.3-.4.5-.6.8-.1.2-.3.4-.4.6-.2.3-.4.5-.7.8-.1.2-.3.4-.4.5-.2.3-.5.6-.7.9-.1.2-.3.3-.4.5-.3.4-.7.7-1,1.1,0,0-.1.1-.2.2-.4.4-.8.8-1.2,1.2-.1.2-.3.3-.4.4-.2.2-.4.4-.7.7,9.1,5.9,19.7,9.1,30.5,9.1s21.5-3.2,30.5-9.1h0Z"/>
      <path class="st5" d="M162.5-390.4c.2.3.4.5.6.8.1.1.2.3.3.4.3.4.6.7.9,1.1,0,0,.1.1.2.2.3.4.6.7.9,1,.1.1.2.3.4.4.2.2.4.5.7.7.1.1.3.3.4.4.2.2.4.4.6.7.2.2.3.3.5.4.2.2.4.4.6.6.2.2.3.3.5.4.1.1.3.3.4.4,11.6-10.6,18.1-25.4,18.1-41.1s-6.6-30.5-18.1-41.1c-.1.1-.3.3-.4.4-.2.2-.3.3-.5.4-.2.2-.4.4-.6.6-.2.2-.3.3-.5.4-.2.2-.4.4-.6.7-.1.1-.3.3-.4.4-.2.2-.4.5-.7.7-.1.1-.2.3-.4.4-.3.3-.6.7-.9,1,0,0-.1.1-.2.2-.3.4-.6.7-.9,1.1-.1.1-.2.3-.3.4-.2.2-.4.5-.6.8-.1.2-.3.3-.4.5-.2.2-.3.5-.5.7-.1.2-.3.4-.4.6-.2.2-.3.5-.5.7-.1.2-.3.4-.4.6-.1.2-.3.4-.4.7-.1.2-.2.4-.4.6-.1.2-.3.5-.4.7-.1.2-.2.4-.4.6-.1.2-.3.5-.4.7-.1.2-.2.4-.3.6-.1.2-.3.5-.4.7-.1.2-.2.4-.3.6-.1.2-.2.5-.4.7l-.3.6c-.1.2-.2.5-.3.7,0,.2-.2.4-.3.6-.1.3-.2.5-.3.8,0,.2-.2.4-.2.6-.1.3-.2.6-.4.9,0,.2-.1.3-.2.5-.2.5-.3.9-.5,1.4,0,.2-.1.3-.2.5-.1.3-.2.6-.3,1,0,.2-.1.4-.2.6,0,.3-.2.6-.3.8l-.2.6c0,.3-.2.5-.2.8,0,.2-.1.4-.2.7,0,.3-.1.5-.2.8,0,.2-.1.4-.2.7,0,.3-.1.5-.2.8,0,.2,0,.4-.1.7,0,.3-.1.5-.2.8,0,.2,0,.4-.1.7,0,.3,0,.5-.1.8,0,.2,0,.4,0,.7,0,.3,0,.6-.1.8,0,.2,0,.4,0,.7,0,.3,0,.6,0,.9,0,.2,0,.4,0,.6,0,.3,0,.6,0,.9,0,.2,0,.4,0,.6,0,.3,0,.7,0,1,0,.2,0,.3,0,.5,0,.5,0,1,0,1.5h0c0,.5,0,1,0,1.5,0,.2,0,.3,0,.5,0,.3,0,.7,0,1,0,.2,0,.4,0,.6,0,.3,0,.6,0,.9,0,.2,0,.4,0,.6,0,.3,0,.6,0,.9,0,.2,0,.4,0,.7,0,.3,0,.6.1.8,0,.2,0,.4,0,.7,0,.3,0,.5.1.8,0,.2,0,.5.1.7,0,.3,0,.5.2.8,0,.2,0,.4.1.7,0,.3.1.5.2.8,0,.2.1.4.2.7,0,.3.1.5.2.8,0,.2.1.4.2.7,0,.3.1.5.2.8,0,.2.1.4.2.6,0,.3.2.6.3.8,0,.2.1.4.2.6.1.3.2.6.3.9,0,.2.1.3.2.5.2.5.3.9.5,1.4,0,.2.1.3.2.5.1.3.2.6.4.9,0,.2.2.4.3.6.1.3.2.5.3.8,0,.2.2.4.3.6.1.2.2.5.3.7.1.2.2.4.3.6.1.2.2.5.4.7.1.2.2.4.3.6.1.2.2.5.4.7.1.2.2.4.3.6.1.2.3.5.4.7.1.2.2.4.4.6.1.2.3.5.4.7.1.2.2.4.4.6.1.2.3.5.4.7.1.2.3.4.4.6.2.2.3.5.5.7.1.2.3.4.4.6.2.2.3.5.5.7.1.2.3.3.4.5h0Z"/>
      <path class="st5" d="M102.4-392.8c.1-.2.3-.4.4-.6.1-.2.3-.4.4-.7.1-.2.2-.4.4-.6.1-.2.3-.5.4-.7.1-.2.2-.4.4-.6.1-.2.3-.5.4-.7.1-.2.2-.4.3-.6.1-.2.3-.5.4-.7.1-.2.2-.4.3-.6.1-.2.2-.5.4-.7.1-.2.2-.4.3-.6.1-.2.2-.5.3-.7,0-.2.2-.4.3-.6.1-.3.2-.5.3-.8,0-.2.2-.4.2-.6.1-.3.2-.6.4-.9,0-.2.1-.3.2-.5.2-.5.3-.9.5-1.4,0-.2.1-.3.2-.5.1-.3.2-.6.3-1,0-.2.1-.4.2-.6,0-.3.2-.6.3-.8,0-.2.1-.4.2-.6,0-.3.2-.5.2-.8,0-.2.1-.4.2-.6,0-.3.1-.5.2-.8,0-.2.1-.4.2-.7,0-.3.1-.5.2-.8,0-.2,0-.4.1-.7,0-.3.1-.5.2-.8,0-.2,0-.4.1-.7,0-.3,0-.5.1-.8,0-.2,0-.4,0-.7,0-.3,0-.6.1-.8,0-.2,0-.4,0-.7,0-.3,0-.6,0-.9,0-.2,0-.4,0-.6,0-.3,0-.6,0-.9v-.6c0-.3,0-.7,0-1,0-.2,0-.3,0-.5,0-.5,0-1,0-1.5s0-1,0-1.5c0-.2,0-.3,0-.5,0-.3,0-.7,0-1,0-.2,0-.4,0-.6,0-.3,0-.6,0-.9,0-.2,0-.4,0-.6,0-.3,0-.6,0-.9,0-.2,0-.4,0-.7,0-.3,0-.6-.1-.8,0-.2,0-.4,0-.7,0-.3,0-.6-.1-.8,0-.2,0-.4-.1-.7,0-.3-.1-.5-.2-.8,0-.2,0-.4-.1-.7,0-.3-.1-.5-.2-.8,0-.2,0-.4-.1-.7,0-.3-.1-.5-.2-.8,0-.2-.1-.4-.2-.6,0-.3-.2-.5-.2-.8,0-.2-.1-.4-.2-.6,0-.3-.2-.6-.3-.9,0-.2-.1-.4-.2-.6-.1-.3-.2-.7-.3-1,0-.1,0-.3-.1-.4-.2-.5-.3-.9-.5-1.4,0-.1-.1-.3-.2-.4-.1-.3-.2-.6-.4-1,0-.2-.2-.4-.2-.6-.1-.3-.2-.5-.3-.8,0-.2-.2-.4-.3-.6-.1-.3-.2-.5-.4-.8,0-.2-.2-.4-.3-.6-.1-.2-.2-.5-.4-.7-.1-.2-.2-.4-.3-.6-.1-.2-.3-.5-.4-.7-.1-.2-.2-.4-.3-.6-.1-.2-.3-.5-.4-.7-.1-.2-.2-.4-.4-.6-.1-.2-.3-.5-.4-.7-.1-.2-.2-.4-.4-.6-.1-.2-.3-.5-.4-.7-.1-.2-.2-.4-.4-.6-.2-.2-.3-.5-.5-.7-.1-.2-.3-.4-.4-.5-.2-.2-.3-.5-.5-.7-.1-.2-.2-.3-.4-.5-.2-.3-.4-.5-.6-.8-.1-.1-.2-.3-.3-.4-.3-.4-.6-.7-.9-1.1,0,0,0-.1-.1-.1-.3-.4-.6-.7-.9-1.1-.1-.1-.2-.3-.3-.4-.2-.2-.4-.5-.7-.7-.1-.1-.3-.3-.4-.4-.2-.2-.4-.4-.6-.7-.1-.2-.3-.3-.4-.4-.2-.2-.4-.4-.6-.6-.2-.2-.3-.3-.5-.4-.1-.1-.3-.3-.4-.4-11.6,10.6-18.1,25.4-18.1,41.1s6.6,30.5,18.1,41.1c.1-.1.3-.3.4-.4.2-.2.3-.3.5-.4.2-.2.4-.4.6-.6.2-.2.3-.3.5-.5.2-.2.4-.4.6-.7.1-.1.3-.3.4-.4.2-.2.4-.5.7-.7.1-.1.2-.3.4-.4.3-.3.6-.7.9-1,0,0,.1-.1.2-.2.3-.4.6-.7.9-1.1.1-.1.2-.3.3-.4.2-.2.4-.5.6-.7.1-.2.3-.3.4-.5.2-.2.3-.5.5-.7.1-.2.3-.4.4-.6.2-.2.3-.5.5-.7h0Z"/>
    </g>
    <g>
      <path class="st0" d="M304.8-454.1c3.5-5,7.9-8.9,13.2-11.7,5.3-2.8,11.3-4.2,17.8-4.2s10.5,1.1,14.6,3.2c4.1,2.1,7.2,5.1,9.3,9,2.1,3.9,3.2,8.4,3.1,13.5h-21.5c-.6-2.1-1.7-3.8-3.3-5-1.6-1.2-3.6-1.8-5.9-1.8-3.4,0-6.4,1.3-8.8,3.9-2.5,2.6-4,6-4.8,10.4-.2,1.2-.4,2.5-.4,4,0,3.2.8,5.7,2.3,7.5,1.6,1.8,3.8,2.8,6.7,2.8s4.5-.6,6.5-1.8c2-1.2,3.7-2.9,5.1-5h21.5c-1.8,5.2-4.5,9.7-8,13.5-3.5,3.9-7.7,6.9-12.5,9-4.8,2.1-10,3.2-15.7,3.2s-10.6-1.1-14.6-3.2c-4-2.1-7.1-5.1-9.2-9-2.1-3.9-3.1-8.4-3.1-13.6s.2-5,.6-7.4c1.1-6.4,3.4-12.2,6.9-17.2Z"/>
      <path class="st0" d="M386.4-419.7h19.7l-2.8,15.5h-40.1l11.5-65.1h20.4l-8.7,49.7Z"/>
      <path class="st0" d="M441.2-469.4l-6.4,36.7c-.2,1-.3,2-.3,3,0,2.1.6,3.7,1.7,4.9,1.1,1.2,2.9,1.8,5.2,1.8s5.3-.9,7-2.6c1.7-1.7,2.9-4.1,3.4-7.1l6.4-36.7h20.3l-6.4,36.7c-1.1,6.4-3.3,11.7-6.6,16.1-3.3,4.4-7.3,7.6-12.1,9.8-4.8,2.1-10,3.2-15.7,3.2s-13.1-1.9-17.5-5.8c-4.4-3.8-6.5-9.3-6.5-16.4s.2-4.6.6-6.9l6.4-36.7h20.3Z"/>
      <path class="st0" d="M534.3-442.9c-2.5,2.6-5.4,4.3-8.8,5.2,3.2.8,5.6,2.3,7.3,4.6,1.7,2.2,2.5,4.9,2.5,7.9s0,2-.3,3.1c-1,5.7-3.6,10.1-8,13.2-4.3,3.1-10,4.6-17.1,4.6h-34.1l11.5-65.1h33.2c5.9,0,10.5,1.1,13.8,3.5,3.3,2.3,4.9,5.7,4.9,10.1s0,2.2-.3,3.4c-.7,3.8-2.2,7-4.7,9.6ZM514.8-426.3c0-2.3-1.6-3.5-4.7-3.5h-9.3l-1.6,9.2h9.3c1.8,0,3.3-.4,4.3-1.1s1.6-1.9,1.9-3.5c0-.3,0-.7,0-1.2ZM517.6-449.7c0-1.2-.4-2.1-1.1-2.7-.8-.6-1.9-.8-3.5-.8h-7.9l-1.7,9.2h7.9c1.8,0,3.3-.4,4.3-1.1,1-.7,1.7-1.9,1.9-3.4,0-.3,0-.7,0-1.2Z"/>
      <path class="st0" d="M617.5-467.9l-11.2,63.7h-8.4l8.4-47.5-29.5,47.5h-5.9l-12.9-47.3-8.4,47.3h-8.4l11.3-63.7h9l14.3,52.6,32.8-52.6h8.9Z"/>
      <path class="st0" d="M660.9-418.5h-28.1l-7.6,14.3h-8.8l34.4-63.8h9.7l11.9,63.8h-8.8l-2.6-14.3ZM659.7-425.1l-5.9-32.8-17.5,32.8h23.4Z"/>
      <path class="st0" d="M732.9-404.3h-8.4l-24.6-51.1-9.1,51.1h-8.4l11.4-64.2h8.4l24.7,51,9-51h8.4l-11.4,64.2Z"/>
      <path class="st0" d="M787.6-418.5h-28.1l-7.6,14.3h-8.8l34.4-63.8h9.7l11.9,63.8h-8.8l-2.6-14.3ZM786.4-425.1l-5.9-32.8-17.5,32.8h23.4Z"/>
      <path class="st0" d="M818.9-453.3c3.7-5,8.3-8.9,13.7-11.7,5.4-2.8,11.1-4.2,17-4.2s12.6,1.7,17.2,5.1c4.6,3.4,7.6,8.1,9,14.3h-10c-1.1-3.7-3.2-6.6-6.2-8.7-3-2.1-6.8-3.1-11.3-3.1s-8.7,1-12.7,3.1c-4,2.1-7.3,5-10,8.8-2.7,3.8-4.5,8.3-5.4,13.3-.3,1.6-.5,3.4-.5,5.5,0,6,1.8,10.8,5.3,14.3,3.6,3.5,8.3,5.3,14.3,5.3s11.8-1.9,16.6-5.7c4.7-3.8,8-8.9,9.8-15.3h-25.6l1.2-6.6h34.5l-1.2,6.4c-1.4,5.3-3.9,10.1-7.5,14.5-3.6,4.4-7.9,7.9-13,10.4-5.1,2.5-10.4,3.8-16.1,3.8s-10-1.1-14-3.3c-4.1-2.2-7.3-5.3-9.5-9.2-2.3-4-3.4-8.6-3.4-13.7s.2-4.2.6-6.4c1.1-6.3,3.5-11.9,7.2-16.9Z"/>
      <path class="st0" d="M899.3-461.9l-3.9,22h23.3l-1.1,6.4h-23.3l-4,22.5h26.1l-1.2,6.6h-34.5l11.4-64.2h34.4l-1.2,6.6h-26Z"/>
      <path class="st0" d="M974.4-464.3c3.2,2.8,4.9,6.4,4.9,11s-.1,2-.4,3.7c-.8,4.4-2.8,8.3-5.9,11.7-3.1,3.4-7.3,5.6-12.6,6.7l11.3,26.9h-10l-10.7-26.2h-10l-4.7,26.2h-8.4l11.4-64.1h20.6c6.4,0,11.2,1.4,14.4,4.1ZM970.5-452.6c0-2.9-1-5.2-2.9-6.8-1.9-1.6-4.9-2.4-8.9-2.4h-12.2l-4.3,24.6h12.3c4.5,0,8.1-1.1,10.8-3.4,2.6-2.2,4.3-5.2,5-9,.2-1.1.3-2.1.3-3Z"/>
    </g>
    <g class="st2">
      <path class="st0" d="M304.9-389.3c1.7-1,3.5-1.4,5.6-1.4s4.8.8,6.3,2.3c1.6,1.6,2.4,3.7,2.4,6.3s0,1.6-.2,2.5c-.4,2.2-1.2,4.2-2.4,5.9-1.2,1.7-2.7,3-4.4,4-1.7.9-3.6,1.4-5.6,1.4s-3.7-.5-5.1-1.4c-1.3-.9-2.2-2.2-2.7-3.7l-.8,4.8h-2.8l5.2-29.6h2.8l-2.2,12.6c1-1.5,2.3-2.8,4-3.7ZM316.3-381.5c0-2.1-.6-3.8-1.9-4.9-1.2-1.2-2.9-1.8-4.9-1.8s-2.9.4-4.3,1.1c-1.4.7-2.5,1.7-3.5,3.1-1,1.3-1.6,2.9-1.9,4.6-.1.7-.2,1.4-.2,2,0,2.1.6,3.7,1.9,5,1.3,1.2,2.9,1.8,4.9,1.8s3-.4,4.3-1.1c1.3-.7,2.5-1.7,3.4-3.1.9-1.3,1.6-2.9,1.9-4.7.1-.8.2-1.5.2-2Z"/>
      <path class="st0" d="M326.5-390.4l4.1,18.5,10.4-18.5h2.9l-18.6,32.1h-3l6.1-10.4-5.1-21.7h3.1Z"/>
      <path class="st0" d="M393.6-396.9l-5,28.3h-8.8l2.5-14.1-6.8,14.1h-7.6l-1.9-14.2-2.5,14.2h-8.9l5-28.3h10.9l3.2,17,9.1-17h10.8Z"/>
      <path class="st0" d="M411.5-372.8h-9.4l-2.2,4.3h-9.3l15.4-28.3h10.2l5.3,28.3h-9.4l-.6-4.3ZM410.5-379.5l-1.2-7.9-4,7.9h5.1Z"/>
      <path class="st0" d="M450.7-396.9l-1.2,7h-7.5l-3.8,21.3h-8.9l3.8-21.3h-7.4l1.2-7h23.8Z"/>
      <path class="st0" d="M452.8-390.2c1.5-2.2,3.4-3.9,5.8-5.1,2.3-1.2,4.9-1.8,7.8-1.8s4.6.5,6.3,1.4c1.8.9,3.1,2.2,4.1,3.9.9,1.7,1.4,3.6,1.4,5.9h-9.4c-.3-.9-.7-1.7-1.4-2.2-.7-.5-1.5-.8-2.6-.8-1.5,0-2.8.6-3.8,1.7-1.1,1.1-1.8,2.6-2.1,4.5-.1.5-.2,1.1-.2,1.7,0,1.4.3,2.5,1,3.3.7.8,1.6,1.2,2.9,1.2s2-.3,2.8-.8c.9-.5,1.6-1.2,2.2-2.2h9.4c-.8,2.2-2,4.2-3.5,5.9s-3.3,3-5.4,3.9c-2.1.9-4.4,1.4-6.8,1.4s-4.6-.5-6.4-1.4c-1.8-.9-3.1-2.2-4-3.9-.9-1.7-1.4-3.7-1.4-5.9s0-2.2.3-3.2c.5-2.8,1.5-5.3,3-7.5Z"/>
      <path class="st0" d="M509.4-396.9l-5,28.3h-8.9l2-11h-8.4l-2,11h-8.9l5-28.3h8.9l-1.8,10.2h8.4l1.8-10.2h8.9Z"/>
      <path class="st0" d="M528.2-382.5c-1.9,1.5-4.4,2.3-7.6,2.3h-5.4l-2.1,11.6h-3.6l5-27.9h9c2.8,0,4.9.6,6.2,1.8,1.4,1.2,2.1,2.8,2.1,4.7s0,.9-.2,1.6c-.4,2.3-1.5,4.2-3.4,5.8ZM525.8-384.4c1.1-.9,1.8-2.2,2.1-3.8,0-.5.1-.9.1-1.3,0-2.6-1.7-4-5.1-4h-5.4l-1.8,10.5h5.4c2,0,3.6-.5,4.7-1.4Z"/>
      <path class="st0" d="M552.8-394.6c1.4,1.2,2.1,2.8,2.1,4.8s0,.9-.2,1.6c-.3,1.9-1.2,3.6-2.6,5.1-1.4,1.5-3.2,2.4-5.5,2.9l4.9,11.7h-4.4l-4.6-11.4h-4.4l-2,11.4h-3.6l5-27.9h9c2.8,0,4.9.6,6.3,1.8ZM551.2-389.5c0-1.3-.4-2.3-1.3-3-.8-.7-2.1-1-3.9-1h-5.3l-1.9,10.7h5.4c2,0,3.5-.5,4.7-1.5,1.1-1,1.9-2.3,2.2-3.9,0-.5.1-.9.1-1.3Z"/>
      <path class="st0" d="M563.6-369.7c-1.8-1-3.1-2.3-4.1-4.1-1-1.8-1.5-3.8-1.5-6s.7-6,2.1-8.6c1.4-2.6,3.4-4.6,5.9-6.1,2.5-1.5,5.3-2.2,8.4-2.2s4.4.5,6.2,1.5c1.8,1,3.1,2.3,4.1,4.1,1,1.7,1.4,3.8,1.4,6s-.7,6-2.1,8.6c-1.4,2.6-3.4,4.6-5.9,6.1-2.5,1.5-5.3,2.2-8.4,2.2s-4.4-.5-6.1-1.5ZM576.5-373.4c1.9-1.2,3.3-2.8,4.3-4.9s1.6-4.3,1.6-6.7-.8-4.7-2.3-6.2c-1.5-1.5-3.6-2.3-6.2-2.3s-4.4.6-6.3,1.8c-1.9,1.2-3.3,2.8-4.3,4.9s-1.5,4.3-1.5,6.7.8,4.7,2.3,6.3c1.5,1.5,3.6,2.3,6.2,2.3s4.4-.6,6.3-1.8Z"/>
    </g>
  </g>
  <g>
    <g>
      <path class="st1" d="M246.8,95.4c10.6-10.6,16.4-24.6,16.4-39.5s-5.8-28.9-16.4-39.5C236.2,5.8,222.1,0,207.3,0s-28.9,5.8-39.5,16.4c-10.6,10.6-16.4,24.6-16.4,39.5s5.8,28.9,16.4,39.5c10.6,10.6,24.6,16.4,39.5,16.4s28.9-5.8,39.5-16.4Z"/>
      <path class="st1" d="M95.4,16.4C84.9,5.8,70.8,0,55.9,0S27,5.8,16.4,16.4C5.8,27,0,41.1,0,55.9s5.8,28.9,16.4,39.5c10.6,10.6,24.6,16.4,39.5,16.4s28.9-5.8,39.5-16.4c10.6-10.6,16.4-24.6,16.4-39.5s-5.8-28.9-16.4-39.5Z"/>
      <path class="st4" d="M162.1,102.8c-.2-.2-.5-.4-.7-.7-.1-.1-.3-.3-.4-.4-.4-.4-.8-.8-1.2-1.2,0,0-.1-.1-.2-.2-.3-.4-.7-.7-1-1.1-.1-.2-.3-.3-.4-.5-.2-.3-.5-.6-.7-.8-.2-.2-.3-.4-.4-.5-.2-.3-.4-.5-.7-.8-.2-.2-.3-.4-.4-.6-.2-.3-.4-.5-.6-.8-.1-.2-.3-.4-.4-.6-.2-.3-.4-.5-.6-.8-.1-.2-.3-.4-.4-.6-.2-.3-.4-.6-.6-.8-.1-.2-.3-.4-.4-.6-.2-.3-.4-.6-.6-.9-.1-.2-.2-.4-.4-.6-.2-.3-.4-.7-.6-1,0-.2-.2-.3-.3-.4-.3-.5-.6-1-.9-1.5h0c-.3-.5-.5-1-.8-1.5,0-.2-.2-.3-.2-.5-.2-.4-.4-.7-.5-1.1,0-.2-.2-.4-.3-.6-.2-.3-.3-.6-.5-1,0-.2-.2-.4-.3-.6-.1-.3-.3-.6-.4-1,0-.2-.2-.4-.3-.6-.1-.3-.3-.6-.4-1,0-.2-.2-.4-.3-.7-.1-.3-.2-.6-.4-1,0-.2-.2-.4-.2-.6-.1-.3-.2-.7-.3-1,0-.2-.1-.4-.2-.6-.1-.4-.2-.8-.4-1.2,0-.2-.1-.3-.1-.5-.3-1.1-.6-2.2-.9-3.3,0-.2,0-.4-.1-.5,0-.4-.2-.8-.2-1.2,0-.2,0-.4-.1-.6,0-.4-.1-.7-.2-1.1,0-.2,0-.5-.1-.7,0-.3-.1-.7-.2-1,0-.2,0-.5-.1-.7,0-.3,0-.7-.1-1,0-.2,0-.5,0-.7,0-.3,0-.7-.1-1,0-.2,0-.5,0-.7,0-.4,0-.7,0-1.1,0-.2,0-.5,0-.7,0-.4,0-.8,0-1.2,0-.2,0-.4,0-.6,0-.6,0-1.2,0-1.8s0-1.2,0-1.8c0-.2,0-.4,0-.6,0-.4,0-.8,0-1.2,0-.2,0-.5,0-.7,0-.4,0-.7,0-1.1,0-.2,0-.5,0-.7,0-.3,0-.7.1-1,0-.2,0-.5,0-.7,0-.3,0-.7.1-1,0-.2,0-.5.1-.7,0-.3.1-.7.2-1,0-.2,0-.5.1-.7,0-.4.1-.7.2-1.1v-.6c.2-.4.3-.8.4-1.2,0-.2,0-.4.1-.5.3-1.1.5-2.2.9-3.3,0-.2.1-.3.1-.5.1-.4.2-.8.4-1.2,0-.2.1-.4.2-.6.1-.3.2-.7.3-1,0-.2.2-.4.2-.6.1-.3.2-.7.4-1,0-.2.2-.4.3-.6.1-.3.3-.6.4-1,0-.2.2-.4.3-.6.1-.3.3-.6.4-1,0-.2.2-.4.3-.6.2-.3.3-.7.5-1,0-.2.2-.4.3-.6.2-.4.4-.7.5-1.1,0-.2.2-.3.2-.5.5-1,1.1-2,1.7-3,0-.1.2-.3.3-.4.2-.4.4-.7.6-1,.1-.2.2-.4.3-.5.2-.3.4-.6.6-.9.1-.2.3-.4.4-.6.2-.3.4-.6.6-.9.1-.2.3-.4.4-.6.2-.3.4-.6.6-.8.1-.2.3-.4.4-.6.2-.3.4-.5.6-.8.1-.2.3-.4.4-.6.2-.3.4-.6.7-.8.1-.2.3-.3.4-.5.3-.3.5-.6.8-.9.1-.1.3-.3.4-.4.4-.4.7-.8,1.1-1.2,0,0,0,0,.1-.1.4-.4.8-.8,1.2-1.3.1-.1.3-.3.4-.4.2-.2.5-.5.7-.7-9.1-5.9-19.7-9.1-30.5-9.1s-21.5,3.2-30.5,9.1c.2.2.5.5.7.7.1.1.3.3.4.4.4.4.8.8,1.2,1.3,0,0,0,0,.1.1.4.4.7.8,1.1,1.2.1.1.3.3.4.4.3.3.5.6.8.9.1.2.3.3.4.5.2.3.5.5.7.8.1.2.3.4.4.6.2.3.4.5.6.8.1.2.3.4.4.6.2.3.4.6.6.8.1.2.3.4.4.6.2.3.4.6.6.9.1.2.3.4.4.6.2.3.4.6.6.9.1.2.2.4.3.5.2.4.4.7.6,1.1,0,.1.2.3.2.4.6,1,1.1,2,1.7,3,0,.1.2.3.2.4.2.4.4.7.5,1.1,0,.2.2.4.3.6.2.3.3.7.5,1,0,.2.2.4.3.6.1.3.3.6.4,1,0,.2.2.4.3.6.1.3.3.6.4,1,0,.2.2.4.2.6.1.3.2.7.4,1,0,.2.2.4.2.6.1.3.2.7.3,1,0,.2.1.4.2.6.1.4.2.8.4,1.2,0,.2,0,.3.1.5.3,1.1.6,2.2.9,3.4,0,.2,0,.3.1.5,0,.4.2.8.3,1.2,0,.2,0,.4.1.6,0,.4.1.7.2,1.1,0,.2,0,.5.1.7,0,.3.1.7.2,1,0,.2,0,.5.1.7,0,.3,0,.7.1,1,0,.2,0,.5,0,.7,0,.3,0,.7.1,1,0,.2,0,.5,0,.7,0,.4,0,.7,0,1.1,0,.2,0,.5,0,.7,0,.4,0,.8,0,1.2,0,.2,0,.4,0,.6,0,.6,0,1.2,0,1.8s0,1.2,0,1.8c0,.2,0,.4,0,.6,0,.4,0,.8,0,1.2,0,.2,0,.5,0,.7,0,.4,0,.7,0,1.1,0,.2,0,.5,0,.7,0,.3,0,.7-.1,1,0,.2,0,.5,0,.7,0,.3,0,.7-.1,1,0,.2,0,.5-.1.7,0,.3-.1.7-.2,1,0,.2,0,.5-.1.7,0,.4-.1.7-.2,1,0,.2,0,.4-.1.7,0,.4-.2.8-.2,1.2,0,.2,0,.4-.1.5-.3,1.1-.5,2.2-.9,3.3,0,.2-.1.3-.1.5-.1.4-.2.8-.4,1.2,0,.2-.1.4-.2.6-.1.3-.2.7-.3,1,0,.2-.2.4-.2.6-.1.3-.2.7-.4,1,0,.2-.2.4-.3.7-.1.3-.3.6-.4,1,0,.2-.2.4-.3.6-.1.3-.3.6-.4,1,0,.2-.2.4-.3.6-.2.3-.3.7-.5,1,0,.2-.2.4-.3.6-.2.4-.4.7-.5,1.1,0,.2-.2.3-.2.5-.5,1-1.1,2-1.7,3,0,.1-.2.3-.3.4-.2.3-.4.7-.6,1-.1.2-.2.4-.3.5-.2.3-.4.6-.6.9-.1.2-.3.4-.4.6-.2.3-.4.6-.6.9-.1.2-.3.4-.4.6-.2.3-.4.5-.6.8-.1.2-.3.4-.4.6-.2.3-.4.5-.6.8-.1.2-.3.4-.4.6-.2.3-.4.5-.7.8-.1.2-.3.4-.4.5-.2.3-.5.6-.7.9-.1.2-.3.3-.4.5-.3.4-.7.7-1,1.1,0,0-.1.1-.2.2-.4.4-.8.8-1.2,1.2-.1.2-.3.3-.4.4-.2.2-.4.4-.7.7,9.1,5.9,19.7,9.1,30.5,9.1s21.5-3.2,30.5-9.1h0Z"/>
      <path class="st5" d="M162.5,89.4c.2.3.4.5.6.8.1.1.2.3.3.4.3.4.6.7.9,1.1,0,0,.1.1.2.2.3.4.6.7.9,1,.1.1.2.3.4.4.2.2.4.5.7.7.1.1.3.3.4.4.2.2.4.4.6.7.2.2.3.3.5.4.2.2.4.4.6.6.2.2.3.3.5.4.1.1.3.3.4.4,11.6-10.6,18.1-25.4,18.1-41.1s-6.6-30.5-18.1-41.1c-.1.1-.3.3-.4.4-.2.2-.3.3-.5.4-.2.2-.4.4-.6.6-.2.2-.3.3-.5.4-.2.2-.4.4-.6.7-.1.1-.3.3-.4.4-.2.2-.4.5-.7.7-.1.1-.2.3-.4.4-.3.3-.6.7-.9,1,0,0-.1.1-.2.2-.3.4-.6.7-.9,1.1-.1.1-.2.3-.3.4-.2.2-.4.5-.6.8-.1.2-.3.3-.4.5-.2.2-.3.5-.5.7-.1.2-.3.4-.4.6-.2.2-.3.5-.5.7-.1.2-.3.4-.4.6-.1.2-.3.4-.4.7-.1.2-.2.4-.4.6-.1.2-.3.5-.4.7-.1.2-.2.4-.4.6-.1.2-.3.5-.4.7-.1.2-.2.4-.3.6-.1.2-.3.5-.4.7-.1.2-.2.4-.3.6-.1.2-.2.5-.4.7l-.3.6c-.1.2-.2.5-.3.7,0,.2-.2.4-.3.6-.1.3-.2.5-.3.8,0,.2-.2.4-.2.6-.1.3-.2.6-.4.9,0,.2-.1.3-.2.5-.2.5-.3.9-.5,1.4,0,.2-.1.3-.2.5-.1.3-.2.6-.3,1,0,.2-.1.4-.2.6,0,.3-.2.6-.3.8l-.2.6c0,.3-.2.5-.2.8,0,.2-.1.4-.2.7,0,.3-.1.5-.2.8,0,.2-.1.4-.2.7,0,.3-.1.5-.2.8,0,.2,0,.4-.1.7,0,.3-.1.5-.2.8,0,.2,0,.4-.1.7,0,.3,0,.5-.1.8,0,.2,0,.4,0,.7,0,.3,0,.6-.1.8,0,.2,0,.4,0,.7,0,.3,0,.6,0,.9,0,.2,0,.4,0,.6,0,.3,0,.6,0,.9,0,.2,0,.4,0,.6,0,.3,0,.7,0,1,0,.2,0,.3,0,.5,0,.5,0,1,0,1.5h0c0,.5,0,1,0,1.5,0,.2,0,.3,0,.5,0,.3,0,.7,0,1,0,.2,0,.4,0,.6,0,.3,0,.6,0,.9,0,.2,0,.4,0,.6,0,.3,0,.6,0,.9,0,.2,0,.4,0,.7,0,.3,0,.6.1.8,0,.2,0,.4,0,.7,0,.3,0,.5.1.8,0,.2,0,.5.1.7,0,.3,0,.5.2.8,0,.2,0,.4.1.7,0,.3.1.5.2.8,0,.2.1.4.2.7,0,.3.1.5.2.8,0,.2.1.4.2.7,0,.3.1.5.2.8,0,.2.1.4.2.6,0,.3.2.6.3.8,0,.2.1.4.2.6.1.3.2.6.3.9,0,.2.1.3.2.5.2.5.3.9.5,1.4,0,.2.1.3.2.5.1.3.2.6.4.9,0,.2.2.4.3.6.1.3.2.5.3.8,0,.2.2.4.3.6.1.2.2.5.3.7.1.2.2.4.3.6.1.2.2.5.4.7.1.2.2.4.3.6.1.2.2.5.4.7.1.2.2.4.3.6.1.2.3.5.4.7.1.2.2.4.4.6.1.2.3.5.4.7.1.2.2.4.4.6.1.2.3.5.4.7.1.2.3.4.4.6.2.2.3.5.5.7.1.2.3.4.4.6.2.2.3.5.5.7.1.2.3.3.4.5h0Z"/>
      <path class="st5" d="M102.4,87c.1-.2.3-.4.4-.6.1-.2.3-.4.4-.7.1-.2.2-.4.4-.6.1-.2.3-.5.4-.7.1-.2.2-.4.4-.6.1-.2.3-.5.4-.7.1-.2.2-.4.3-.6.1-.2.3-.5.4-.7.1-.2.2-.4.3-.6.1-.2.2-.5.4-.7.1-.2.2-.4.3-.6.1-.2.2-.5.3-.7,0-.2.2-.4.3-.6.1-.3.2-.5.3-.8,0-.2.2-.4.2-.6.1-.3.2-.6.4-.9,0-.2.1-.3.2-.5.2-.5.3-.9.5-1.4,0-.2.1-.3.2-.5.1-.3.2-.6.3-1,0-.2.1-.4.2-.6,0-.3.2-.6.3-.8,0-.2.1-.4.2-.6,0-.3.2-.5.2-.8,0-.2.1-.4.2-.6,0-.3.1-.5.2-.8,0-.2.1-.4.2-.7,0-.3.1-.5.2-.8,0-.2,0-.4.1-.7,0-.3.1-.5.2-.8,0-.2,0-.4.1-.7,0-.3,0-.5.1-.8,0-.2,0-.4,0-.7,0-.3,0-.6.1-.8,0-.2,0-.4,0-.7,0-.3,0-.6,0-.9,0-.2,0-.4,0-.6,0-.3,0-.6,0-.9v-.6c0-.3,0-.7,0-1,0-.2,0-.3,0-.5,0-.5,0-1,0-1.5s0-1,0-1.5c0-.2,0-.3,0-.5,0-.3,0-.7,0-1,0-.2,0-.4,0-.6,0-.3,0-.6,0-.9,0-.2,0-.4,0-.6,0-.3,0-.6,0-.9,0-.2,0-.4,0-.7,0-.3,0-.6-.1-.8,0-.2,0-.4,0-.7,0-.3,0-.6-.1-.8,0-.2,0-.4-.1-.7,0-.3-.1-.5-.2-.8,0-.2,0-.4-.1-.7,0-.3-.1-.5-.2-.8,0-.2,0-.4-.1-.7,0-.3-.1-.5-.2-.8,0-.2-.1-.4-.2-.6,0-.3-.2-.5-.2-.8,0-.2-.1-.4-.2-.6,0-.3-.2-.6-.3-.9,0-.2-.1-.4-.2-.6-.1-.3-.2-.7-.3-1,0-.1,0-.3-.1-.4-.2-.5-.3-.9-.5-1.4,0-.1-.1-.3-.2-.4-.1-.3-.2-.6-.4-1,0-.2-.2-.4-.2-.6-.1-.3-.2-.5-.3-.8,0-.2-.2-.4-.3-.6-.1-.3-.2-.5-.4-.8,0-.2-.2-.4-.3-.6-.1-.2-.2-.5-.4-.7-.1-.2-.2-.4-.3-.6-.1-.2-.3-.5-.4-.7-.1-.2-.2-.4-.3-.6-.1-.2-.3-.5-.4-.7-.1-.2-.2-.4-.4-.6-.1-.2-.3-.5-.4-.7-.1-.2-.2-.4-.4-.6-.1-.2-.3-.5-.4-.7-.1-.2-.2-.4-.4-.6-.2-.2-.3-.5-.5-.7-.1-.2-.3-.4-.4-.5-.2-.2-.3-.5-.5-.7-.1-.2-.2-.3-.4-.5-.2-.3-.4-.5-.6-.8-.1-.1-.2-.3-.3-.4-.3-.4-.6-.7-.9-1.1,0,0,0-.1-.1-.1-.3-.4-.6-.7-.9-1.1-.1-.1-.2-.3-.3-.4-.2-.2-.4-.5-.7-.7-.1-.1-.3-.3-.4-.4-.2-.2-.4-.4-.6-.7-.1-.2-.3-.3-.4-.4-.2-.2-.4-.4-.6-.6-.2-.2-.3-.3-.5-.4-.1-.1-.3-.3-.4-.4-11.6,10.6-18.1,25.4-18.1,41.1s6.6,30.5,18.1,41.1c.1-.1.3-.3.4-.4.2-.2.3-.3.5-.4.2-.2.4-.4.6-.6.2-.2.3-.3.5-.5.2-.2.4-.4.6-.7.1-.1.3-.3.4-.4.2-.2.4-.5.7-.7.1-.1.2-.3.4-.4.3-.3.6-.7.9-1,0,0,.1-.1.2-.2.3-.4.6-.7.9-1.1.1-.1.2-.3.3-.4.2-.2.4-.5.6-.7.1-.2.3-.3.4-.5.2-.2.3-.5.5-.7.1-.2.3-.4.4-.6.2-.2.3-.5.5-.7h0Z"/>
    </g>
    <g>
      <path d="M304.8,38.7c3.5-5,7.9-8.9,13.2-11.7s11.3-4.2,17.8-4.2,10.5,1.1,14.6,3.2c4.1,2.1,7.2,5.1,9.3,9,2.1,3.9,3.2,8.4,3.1,13.5h-21.5c-.6-2.1-1.7-3.8-3.3-5-1.6-1.2-3.6-1.8-5.9-1.8-3.4,0-6.4,1.3-8.8,3.9s-4,6-4.8,10.4c-.2,1.2-.4,2.5-.4,4,0,3.2.8,5.7,2.3,7.5s3.8,2.8,6.7,2.8,4.5-.6,6.5-1.8c2-1.2,3.7-2.9,5.1-5h21.5c-1.8,5.2-4.5,9.7-8,13.5-3.5,3.9-7.7,6.9-12.5,9-4.8,2.1-10,3.2-15.7,3.2s-10.6-1.1-14.6-3.2c-4-2.1-7.1-5.1-9.2-9-2.1-3.9-3.1-8.4-3.1-13.6s.2-5,.6-7.4c1.1-6.4,3.4-12.2,6.9-17.2Z"/>
      <path d="M386.4,73.1h19.7l-2.8,15.5h-40.1l11.5-65.1h20.4l-8.7,49.7Z"/>
      <path d="M441.2,23.4l-6.4,36.7c-.2,1-.3,2-.3,3,0,2.1.6,3.7,1.7,4.9,1.1,1.2,2.9,1.8,5.2,1.8s5.3-.9,7-2.6c1.7-1.7,2.9-4.1,3.4-7.1l6.4-36.7h20.3l-6.4,36.7c-1.1,6.4-3.3,11.7-6.6,16.1s-7.3,7.6-12.1,9.8c-4.8,2.1-10,3.2-15.7,3.2s-13.1-1.9-17.5-5.8c-4.4-3.8-6.5-9.3-6.5-16.4s.2-4.6.6-6.9l6.4-36.7h20.3Z"/>
      <path d="M534.3,49.9c-2.5,2.6-5.4,4.3-8.8,5.2,3.2.8,5.6,2.3,7.3,4.6,1.7,2.2,2.5,4.9,2.5,7.9s0,2-.3,3.1c-1,5.7-3.6,10.1-8,13.2-4.3,3.1-10,4.6-17.1,4.6h-34.1l11.5-65.1h33.2c5.9,0,10.5,1.2,13.8,3.5,3.3,2.3,4.9,5.7,4.9,10.1s0,2.2-.3,3.4c-.7,3.8-2.2,7-4.7,9.6ZM514.8,66.4c0-2.3-1.6-3.5-4.7-3.5h-9.3l-1.6,9.2h9.3c1.8,0,3.3-.4,4.3-1.1,1-.7,1.6-1.9,1.9-3.5,0-.3,0-.7,0-1.2ZM517.6,43.1c0-1.2-.4-2.1-1.1-2.7-.8-.6-1.9-.8-3.5-.8h-7.9l-1.7,9.2h7.9c1.8,0,3.3-.4,4.3-1.1,1-.7,1.7-1.9,1.9-3.4,0-.3,0-.7,0-1.2Z"/>
      <path d="M617.5,24.9l-11.2,63.7h-8.4l8.4-47.5-29.5,47.5h-5.9l-12.9-47.3-8.4,47.3h-8.4l11.3-63.7h9l14.3,52.6,32.8-52.6h8.9Z"/>
      <path d="M660.9,74.3h-28.1l-7.6,14.3h-8.8l34.4-63.8h9.7l11.9,63.8h-8.8l-2.6-14.3ZM659.7,67.7l-5.9-32.8-17.5,32.8h23.4Z"/>
      <path d="M732.9,88.5h-8.4l-24.6-51.1-9.1,51.1h-8.4l11.4-64.2h8.4l24.7,51,9-51h8.4l-11.4,64.2Z"/>
      <path d="M787.6,74.3h-28.1l-7.6,14.3h-8.8l34.4-63.8h9.7l11.9,63.8h-8.8l-2.6-14.3ZM786.4,67.7l-5.9-32.8-17.5,32.8h23.4Z"/>
      <path d="M818.9,39.5c3.7-5,8.3-8.9,13.7-11.7,5.4-2.8,11.1-4.2,17-4.2s12.6,1.7,17.2,5.1c4.6,3.4,7.6,8.1,9,14.3h-10c-1.1-3.7-3.2-6.6-6.2-8.7s-6.8-3.1-11.3-3.1-8.7,1-12.7,3.1-7.3,5-10,8.8c-2.7,3.8-4.5,8.3-5.4,13.3-.3,1.6-.5,3.4-.5,5.5,0,6,1.8,10.8,5.3,14.3,3.6,3.5,8.3,5.3,14.3,5.3s11.8-1.9,16.6-5.7c4.7-3.8,8-8.9,9.8-15.3h-25.6l1.2-6.6h34.5l-1.2,6.4c-1.4,5.3-3.9,10.1-7.5,14.5s-7.9,7.9-13,10.4-10.4,3.8-16.1,3.8-10-1.1-14-3.3c-4.1-2.2-7.3-5.3-9.5-9.2-2.3-4-3.4-8.6-3.4-13.7s.2-4.2.6-6.4c1.1-6.3,3.5-11.9,7.2-16.9Z"/>
      <path d="M899.3,30.9l-3.9,22h23.3l-1.1,6.4h-23.3l-4,22.5h26.1l-1.2,6.6h-34.5l11.4-64.2h34.4l-1.2,6.6h-26Z"/>
      <path d="M974.4,28.5c3.2,2.8,4.9,6.4,4.9,11s-.1,2-.4,3.7c-.8,4.4-2.8,8.3-5.9,11.7s-7.3,5.6-12.6,6.7l11.3,26.9h-10l-10.7-26.2h-10l-4.7,26.2h-8.4l11.4-64.1h20.6c6.4,0,11.2,1.4,14.4,4.1ZM970.5,40.2c0-2.9-1-5.2-2.9-6.8-1.9-1.6-4.9-2.4-8.9-2.4h-12.2l-4.3,24.6h12.3c4.5,0,8.1-1.1,10.8-3.4,2.6-2.2,4.3-5.2,5-9,.2-1.1.3-2.1.3-3Z"/>
    </g>
  </g>
  <g>
    <g>
      <path class="st1" d="M246.8,374.9c10.6-10.6,16.4-24.6,16.4-39.5s-5.8-28.9-16.4-39.5c-10.6-10.6-24.6-16.4-39.5-16.4s-28.9,5.8-39.5,16.4-16.4,24.6-16.4,39.5,5.8,28.9,16.4,39.5,24.6,16.4,39.5,16.4,28.9-5.8,39.5-16.4Z"/>
      <path class="st1" d="M95.4,295.9c-10.6-10.6-24.6-16.4-39.5-16.4s-28.9,5.8-39.5,16.4C5.8,306.5,0,320.5,0,335.4s5.8,28.9,16.4,39.5c10.6,10.6,24.6,16.4,39.5,16.4s28.9-5.8,39.5-16.4c10.6-10.6,16.4-24.6,16.4-39.5s-5.8-28.9-16.4-39.5Z"/>
      <path class="st4" d="M162.1,382.2c-.2-.2-.5-.4-.7-.7-.1-.1-.3-.3-.4-.4-.4-.4-.8-.8-1.2-1.2,0,0-.1-.1-.2-.2-.3-.4-.7-.7-1-1.1-.1-.2-.3-.3-.4-.5-.2-.3-.5-.6-.7-.8-.2-.2-.3-.4-.4-.5-.2-.3-.4-.5-.7-.8-.2-.2-.3-.4-.4-.6-.2-.3-.4-.5-.6-.8-.1-.2-.3-.4-.4-.6-.2-.3-.4-.5-.6-.8-.1-.2-.3-.4-.4-.6-.2-.3-.4-.6-.6-.8-.1-.2-.3-.4-.4-.6-.2-.3-.4-.6-.6-.9-.1-.2-.2-.4-.4-.6-.2-.3-.4-.7-.6-1,0-.2-.2-.3-.3-.4-.3-.5-.6-1-.9-1.5h0c-.3-.5-.5-1-.8-1.5,0-.2-.2-.3-.2-.5-.2-.4-.4-.7-.5-1.1,0-.2-.2-.4-.3-.6-.2-.3-.3-.6-.5-1,0-.2-.2-.4-.3-.6-.1-.3-.3-.6-.4-1,0-.2-.2-.4-.3-.6-.1-.3-.3-.6-.4-1,0-.2-.2-.4-.3-.7-.1-.3-.2-.6-.4-1,0-.2-.2-.4-.2-.6-.1-.3-.2-.7-.3-1,0-.2-.1-.4-.2-.6-.1-.4-.2-.8-.4-1.2,0-.2-.1-.3-.1-.5-.3-1.1-.6-2.2-.9-3.3,0-.2,0-.4-.1-.5,0-.4-.2-.8-.2-1.2,0-.2,0-.4-.1-.6,0-.4-.1-.7-.2-1.1,0-.2,0-.5-.1-.7,0-.3-.1-.7-.2-1,0-.2,0-.5-.1-.7,0-.3,0-.7-.1-1,0-.2,0-.5,0-.7,0-.3,0-.7-.1-1,0-.2,0-.5,0-.7,0-.4,0-.7,0-1.1,0-.2,0-.5,0-.7,0-.4,0-.8,0-1.2,0-.2,0-.4,0-.6,0-.6,0-1.2,0-1.8s0-1.2,0-1.8c0-.2,0-.4,0-.6,0-.4,0-.8,0-1.2,0-.2,0-.5,0-.7,0-.4,0-.7,0-1.1,0-.2,0-.5,0-.7,0-.3,0-.7.1-1,0-.2,0-.5,0-.7,0-.3,0-.7.1-1,0-.2,0-.5.1-.7,0-.3.1-.7.2-1,0-.2,0-.5.1-.7,0-.4.1-.7.2-1.1v-.6c.2-.4.3-.8.4-1.2,0-.2,0-.4.1-.5.3-1.1.5-2.2.9-3.3,0-.2.1-.3.1-.5.1-.4.2-.8.4-1.2,0-.2.1-.4.2-.6.1-.3.2-.7.3-1,0-.2.2-.4.2-.6.1-.3.2-.7.4-1,0-.2.2-.4.3-.6.1-.3.3-.6.4-1,0-.2.2-.4.3-.6.1-.3.3-.6.4-1,0-.2.2-.4.3-.6.2-.3.3-.7.5-1,0-.2.2-.4.3-.6.2-.4.4-.7.5-1.1,0-.2.2-.3.2-.5.5-1,1.1-2,1.7-3,0-.1.2-.3.3-.4.2-.4.4-.7.6-1,.1-.2.2-.4.3-.5.2-.3.4-.6.6-.9.1-.2.3-.4.4-.6.2-.3.4-.6.6-.9.1-.2.3-.4.4-.6.2-.3.4-.6.6-.8.1-.2.3-.4.4-.6.2-.3.4-.5.6-.8.1-.2.3-.4.4-.6.2-.3.4-.6.7-.8.1-.2.3-.3.4-.5.3-.3.5-.6.8-.9.1-.1.3-.3.4-.4.4-.4.7-.8,1.1-1.2,0,0,0,0,.1-.1.4-.4.8-.8,1.2-1.3.1-.1.3-.3.4-.4.2-.2.5-.5.7-.7-9.1-5.9-19.7-9.1-30.5-9.1s-21.5,3.2-30.5,9.1c.2.2.5.5.7.7.1.1.3.3.4.4.4.4.8.8,1.2,1.3,0,0,0,0,.1.1.4.4.7.8,1.1,1.2.1.1.3.3.4.4.3.3.5.6.8.9.1.2.3.3.4.5.2.3.5.5.7.8.1.2.3.4.4.6.2.3.4.5.6.8.1.2.3.4.4.6.2.3.4.6.6.8.1.2.3.4.4.6.2.3.4.6.6.9.1.2.3.4.4.6.2.3.4.6.6.9.1.2.2.4.3.5.2.4.4.7.6,1.1,0,.1.2.3.2.4.6,1,1.1,2,1.7,3,0,.1.2.3.2.4.2.4.4.7.5,1.1,0,.2.2.4.3.6.2.3.3.7.5,1,0,.2.2.4.3.6.1.3.3.6.4,1,0,.2.2.4.3.6.1.3.3.6.4,1,0,.2.2.4.2.6.1.3.2.7.4,1,0,.2.2.4.2.6.1.3.2.7.3,1,0,.2.1.4.2.6.1.4.2.8.4,1.2,0,.2,0,.3.1.5.3,1.1.6,2.2.9,3.4,0,.2,0,.3.1.5,0,.4.2.8.3,1.2,0,.2,0,.4.1.6,0,.4.1.7.2,1.1,0,.2,0,.5.1.7,0,.3.1.7.2,1,0,.2,0,.5.1.7,0,.3,0,.7.1,1,0,.2,0,.5,0,.7,0,.3,0,.7.1,1,0,.2,0,.5,0,.7,0,.4,0,.7,0,1.1,0,.2,0,.5,0,.7,0,.4,0,.8,0,1.2,0,.2,0,.4,0,.6,0,.6,0,1.2,0,1.8s0,1.2,0,1.8c0,.2,0,.4,0,.6,0,.4,0,.8,0,1.2,0,.2,0,.5,0,.7,0,.4,0,.7,0,1.1,0,.2,0,.5,0,.7,0,.3,0,.7-.1,1,0,.2,0,.5,0,.7,0,.3,0,.7-.1,1,0,.2,0,.5-.1.7,0,.3-.1.7-.2,1,0,.2,0,.5-.1.7,0,.4-.1.7-.2,1,0,.2,0,.4-.1.7,0,.4-.2.8-.2,1.2,0,.2,0,.4-.1.5-.3,1.1-.5,2.2-.9,3.3,0,.2-.1.3-.1.5-.1.4-.2.8-.4,1.2,0,.2-.1.4-.2.6-.1.3-.2.7-.3,1,0,.2-.2.4-.2.6-.1.3-.2.7-.4,1,0,.2-.2.4-.3.7-.1.3-.3.6-.4,1,0,.2-.2.4-.3.6-.1.3-.3.6-.4,1,0,.2-.2.4-.3.6-.2.3-.3.7-.5,1,0,.2-.2.4-.3.6-.2.4-.4.7-.5,1.1,0,.2-.2.3-.2.5-.5,1-1.1,2-1.7,3,0,.1-.2.3-.3.4-.2.3-.4.7-.6,1-.1.2-.2.4-.3.5-.2.3-.4.6-.6.9-.1.2-.3.4-.4.6-.2.3-.4.6-.6.9-.1.2-.3.4-.4.6-.2.3-.4.5-.6.8-.1.2-.3.4-.4.6-.2.3-.4.5-.6.8-.1.2-.3.4-.4.6-.2.3-.4.5-.7.8-.1.2-.3.4-.4.5-.2.3-.5.6-.7.9-.1.2-.3.3-.4.5-.3.4-.7.7-1,1.1,0,0-.1.1-.2.2-.4.4-.8.8-1.2,1.2-.1.2-.3.3-.4.4-.2.2-.4.4-.7.7,9.1,5.9,19.7,9.1,30.5,9.1s21.5-3.2,30.5-9.1h0Z"/>
      <path class="st5" d="M162.5,368.9c.2.3.4.5.6.8.1.1.2.3.3.4.3.4.6.7.9,1.1,0,0,.1.1.2.2.3.4.6.7.9,1,.1.1.2.3.4.4.2.2.4.5.7.7.1.1.3.3.4.4.2.2.4.4.6.7.2.2.3.3.5.4.2.2.4.4.6.6.2.2.3.3.5.4.1.1.3.3.4.4,11.6-10.6,18.1-25.4,18.1-41.1s-6.6-30.5-18.1-41.1c-.1.1-.3.3-.4.4-.2.2-.3.3-.5.4-.2.2-.4.4-.6.6-.2.2-.3.3-.5.4-.2.2-.4.4-.6.7-.1.1-.3.3-.4.4-.2.2-.4.5-.7.7-.1.1-.2.3-.4.4-.3.3-.6.7-.9,1,0,0-.1.1-.2.2-.3.4-.6.7-.9,1.1-.1.1-.2.3-.3.4-.2.2-.4.5-.6.8-.1.2-.3.3-.4.5-.2.2-.3.5-.5.7-.1.2-.3.4-.4.6-.2.2-.3.5-.5.7-.1.2-.3.4-.4.6-.1.2-.3.4-.4.7-.1.2-.2.4-.4.6-.1.2-.3.5-.4.7-.1.2-.2.4-.4.6-.1.2-.3.5-.4.7-.1.2-.2.4-.3.6-.1.2-.3.5-.4.7-.1.2-.2.4-.3.6-.1.2-.2.5-.4.7l-.3.6c-.1.2-.2.5-.3.7,0,.2-.2.4-.3.6-.1.3-.2.5-.3.8,0,.2-.2.4-.2.6-.1.3-.2.6-.4.9,0,.2-.1.3-.2.5-.2.5-.3.9-.5,1.4,0,.2-.1.3-.2.5-.1.3-.2.6-.3,1,0,.2-.1.4-.2.6,0,.3-.2.6-.3.8l-.2.6c0,.3-.2.5-.2.8,0,.2-.1.4-.2.7,0,.3-.1.5-.2.8,0,.2-.1.4-.2.7,0,.3-.1.5-.2.8,0,.2,0,.4-.1.7,0,.3-.1.5-.2.8,0,.2,0,.4-.1.7,0,.3,0,.5-.1.8,0,.2,0,.4,0,.7,0,.3,0,.6-.1.8,0,.2,0,.4,0,.7,0,.3,0,.6,0,.9,0,.2,0,.4,0,.6,0,.3,0,.6,0,.9,0,.2,0,.4,0,.6,0,.3,0,.7,0,1,0,.2,0,.3,0,.5,0,.5,0,1,0,1.5h0c0,.5,0,1,0,1.5,0,.2,0,.3,0,.5,0,.3,0,.7,0,1,0,.2,0,.4,0,.6,0,.3,0,.6,0,.9,0,.2,0,.4,0,.6,0,.3,0,.6,0,.9,0,.2,0,.4,0,.7,0,.3,0,.6.1.8,0,.2,0,.4,0,.7,0,.3,0,.5.1.8,0,.2,0,.5.1.7,0,.3,0,.5.2.8,0,.2,0,.4.1.7,0,.3.1.5.2.8,0,.2.1.4.2.7,0,.3.1.5.2.8,0,.2.1.4.2.7,0,.3.1.5.2.8,0,.2.1.4.2.6,0,.3.2.6.3.8,0,.2.1.4.2.6.1.3.2.6.3.9,0,.2.1.3.2.5.2.5.3.9.5,1.4,0,.2.1.3.2.5.1.3.2.6.4.9,0,.2.2.4.3.6.1.3.2.5.3.8,0,.2.2.4.3.6.1.2.2.5.3.7.1.2.2.4.3.6.1.2.2.5.4.7.1.2.2.4.3.6.1.2.2.5.4.7.1.2.2.4.3.6.1.2.3.5.4.7.1.2.2.4.4.6.1.2.3.5.4.7.1.2.2.4.4.6.1.2.3.5.4.7.1.2.3.4.4.6.2.2.3.5.5.7.1.2.3.4.4.6.2.2.3.5.5.7.1.2.3.3.4.5h0Z"/>
      <path class="st5" d="M102.4,366.4c.1-.2.3-.4.4-.6.1-.2.3-.4.4-.7.1-.2.2-.4.4-.6.1-.2.3-.5.4-.7.1-.2.2-.4.4-.6.1-.2.3-.5.4-.7.1-.2.2-.4.3-.6.1-.2.3-.5.4-.7.1-.2.2-.4.3-.6.1-.2.2-.5.4-.7.1-.2.2-.4.3-.6.1-.2.2-.5.3-.7,0-.2.2-.4.3-.6.1-.3.2-.5.3-.8,0-.2.2-.4.2-.6.1-.3.2-.6.4-.9,0-.2.1-.3.2-.5.2-.5.3-.9.5-1.4,0-.2.1-.3.2-.5.1-.3.2-.6.3-1,0-.2.1-.4.2-.6,0-.3.2-.6.3-.8,0-.2.1-.4.2-.6,0-.3.2-.5.2-.8,0-.2.1-.4.2-.6,0-.3.1-.5.2-.8,0-.2.1-.4.2-.7,0-.3.1-.5.2-.8,0-.2,0-.4.1-.7,0-.3.1-.5.2-.8,0-.2,0-.4.1-.7,0-.3,0-.5.1-.8,0-.2,0-.4,0-.7,0-.3,0-.6.1-.8,0-.2,0-.4,0-.7,0-.3,0-.6,0-.9,0-.2,0-.4,0-.6,0-.3,0-.6,0-.9v-.6c0-.3,0-.7,0-1,0-.2,0-.3,0-.5,0-.5,0-1,0-1.5s0-1,0-1.5c0-.2,0-.3,0-.5,0-.3,0-.7,0-1,0-.2,0-.4,0-.6,0-.3,0-.6,0-.9,0-.2,0-.4,0-.6,0-.3,0-.6,0-.9,0-.2,0-.4,0-.7,0-.3,0-.6-.1-.8,0-.2,0-.4,0-.7,0-.3,0-.6-.1-.8,0-.2,0-.4-.1-.7,0-.3-.1-.5-.2-.8,0-.2,0-.4-.1-.7,0-.3-.1-.5-.2-.8,0-.2,0-.4-.1-.7,0-.3-.1-.5-.2-.8,0-.2-.1-.4-.2-.6,0-.3-.2-.5-.2-.8,0-.2-.1-.4-.2-.6,0-.3-.2-.6-.3-.9,0-.2-.1-.4-.2-.6-.1-.3-.2-.7-.3-1,0-.1,0-.3-.1-.4-.2-.5-.3-.9-.5-1.4,0-.1-.1-.3-.2-.4-.1-.3-.2-.6-.4-1,0-.2-.2-.4-.2-.6-.1-.3-.2-.5-.3-.8,0-.2-.2-.4-.3-.6-.1-.3-.2-.5-.4-.8,0-.2-.2-.4-.3-.6-.1-.2-.2-.5-.4-.7-.1-.2-.2-.4-.3-.6-.1-.2-.3-.5-.4-.7-.1-.2-.2-.4-.3-.6-.1-.2-.3-.5-.4-.7-.1-.2-.2-.4-.4-.6-.1-.2-.3-.5-.4-.7-.1-.2-.2-.4-.4-.6-.1-.2-.3-.5-.4-.7-.1-.2-.2-.4-.4-.6-.2-.2-.3-.5-.5-.7-.1-.2-.3-.4-.4-.5-.2-.2-.3-.5-.5-.7-.1-.2-.2-.3-.4-.5-.2-.3-.4-.5-.6-.8-.1-.1-.2-.3-.3-.4-.3-.4-.6-.7-.9-1.1,0,0,0-.1-.1-.1-.3-.4-.6-.7-.9-1.1-.1-.1-.2-.3-.3-.4-.2-.2-.4-.5-.7-.7-.1-.1-.3-.3-.4-.4-.2-.2-.4-.4-.6-.7-.1-.2-.3-.3-.4-.4-.2-.2-.4-.4-.6-.6-.2-.2-.3-.3-.5-.4-.1-.1-.3-.3-.4-.4-11.6,10.6-18.1,25.4-18.1,41.1s6.6,30.5,18.1,41.1c.1-.1.3-.3.4-.4.2-.2.3-.3.5-.4.2-.2.4-.4.6-.6.2-.2.3-.3.5-.5.2-.2.4-.4.6-.7.1-.1.3-.3.4-.4.2-.2.4-.5.7-.7.1-.1.2-.3.4-.4.3-.3.6-.7.9-1,0,0,.1-.1.2-.2.3-.4.6-.7.9-1.1.1-.1.2-.3.3-.4.2-.2.4-.5.6-.7.1-.2.3-.3.4-.5.2-.2.3-.5.5-.7.1-.2.3-.4.4-.6.2-.2.3-.5.5-.7h0Z"/>
    </g>
    <g>
      <path class="st0" d="M304.8,318.1c3.5-5,7.9-8.9,13.2-11.7,5.3-2.8,11.3-4.2,17.8-4.2s10.5,1.1,14.6,3.2c4.1,2.1,7.2,5.1,9.3,9,2.1,3.9,3.2,8.4,3.1,13.5h-21.5c-.6-2.1-1.7-3.8-3.3-5-1.6-1.2-3.6-1.8-5.9-1.8-3.4,0-6.4,1.3-8.8,3.9-2.5,2.6-4,6-4.8,10.4-.2,1.2-.4,2.5-.4,4,0,3.2.8,5.7,2.3,7.5,1.6,1.8,3.8,2.8,6.7,2.8s4.5-.6,6.5-1.8,3.7-2.9,5.1-5h21.5c-1.8,5.2-4.5,9.7-8,13.5s-7.7,6.9-12.5,9c-4.8,2.1-10,3.2-15.7,3.2s-10.6-1.1-14.6-3.2c-4-2.1-7.1-5.1-9.2-9-2.1-3.9-3.1-8.4-3.1-13.6s.2-5,.6-7.4c1.1-6.4,3.4-12.2,6.9-17.2Z"/>
      <path class="st0" d="M386.4,352.5h19.7l-2.8,15.5h-40.1l11.5-65.1h20.4l-8.7,49.7Z"/>
      <path class="st0" d="M441.2,302.8l-6.4,36.7c-.2,1-.3,2-.3,3,0,2.1.6,3.7,1.7,4.9,1.1,1.2,2.9,1.8,5.2,1.8s5.3-.9,7-2.6c1.7-1.7,2.9-4.1,3.4-7.1l6.4-36.7h20.3l-6.4,36.7c-1.1,6.4-3.3,11.7-6.6,16.1-3.3,4.4-7.3,7.6-12.1,9.8-4.8,2.1-10,3.2-15.7,3.2s-13.1-1.9-17.5-5.8c-4.4-3.8-6.5-9.3-6.5-16.4s.2-4.6.6-6.9l6.4-36.7h20.3Z"/>
      <path class="st0" d="M534.3,329.4c-2.5,2.6-5.4,4.3-8.8,5.2,3.2.8,5.6,2.3,7.3,4.6,1.7,2.2,2.5,4.9,2.5,7.9s0,2-.3,3.1c-1,5.7-3.6,10.1-8,13.2-4.3,3.1-10,4.6-17.1,4.6h-34.1l11.5-65.1h33.2c5.9,0,10.5,1.1,13.8,3.4s4.9,5.7,4.9,10.1,0,2.2-.3,3.4c-.7,3.8-2.2,7-4.7,9.6ZM514.8,345.9c0-2.3-1.6-3.5-4.7-3.5h-9.3l-1.6,9.2h9.3c1.8,0,3.3-.4,4.3-1.1s1.6-1.9,1.9-3.4c0-.3,0-.7,0-1.2ZM517.6,322.5c0-1.2-.4-2.1-1.1-2.7-.8-.6-1.9-.8-3.5-.8h-7.9l-1.7,9.2h7.9c1.8,0,3.3-.4,4.3-1.1,1-.7,1.7-1.9,1.9-3.4,0-.3,0-.7,0-1.2Z"/>
      <path class="st0" d="M617.5,304.3l-11.2,63.7h-8.4l8.4-47.5-29.5,47.5h-5.9l-12.9-47.3-8.4,47.3h-8.4l11.3-63.7h9l14.3,52.6,32.8-52.6h8.9Z"/>
      <path class="st0" d="M660.9,353.7h-28.1l-7.6,14.3h-8.8l34.4-63.8h9.7l11.9,63.8h-8.8l-2.6-14.3ZM659.7,347.2l-5.9-32.8-17.5,32.8h23.4Z"/>
      <path class="st0" d="M732.9,368h-8.4l-24.6-51.1-9.1,51.1h-8.4l11.4-64.2h8.4l24.7,51,9-51h8.4l-11.4,64.2Z"/>
      <path class="st0" d="M787.6,353.7h-28.1l-7.6,14.3h-8.8l34.4-63.8h9.7l11.9,63.8h-8.8l-2.6-14.3ZM786.4,347.2l-5.9-32.8-17.5,32.8h23.4Z"/>
      <path class="st0" d="M818.9,319c3.7-5,8.3-8.9,13.7-11.7,5.4-2.8,11.1-4.2,17-4.2s12.6,1.7,17.2,5.1c4.6,3.4,7.6,8.1,9,14.3h-10c-1.1-3.7-3.2-6.6-6.2-8.7-3-2.1-6.8-3.1-11.3-3.1s-8.7,1-12.7,3.1c-4,2.1-7.3,5-10,8.8-2.7,3.8-4.5,8.3-5.4,13.3-.3,1.6-.5,3.4-.5,5.5,0,6,1.8,10.8,5.3,14.3,3.6,3.5,8.3,5.3,14.3,5.3s11.8-1.9,16.6-5.7c4.7-3.8,8-8.9,9.8-15.3h-25.6l1.2-6.6h34.5l-1.2,6.4c-1.4,5.3-3.9,10.1-7.5,14.5-3.6,4.4-7.9,7.9-13,10.4-5.1,2.5-10.4,3.8-16.1,3.8s-10-1.1-14-3.3c-4.1-2.2-7.3-5.3-9.5-9.2-2.3-4-3.4-8.6-3.4-13.7s.2-4.2.6-6.4c1.1-6.3,3.5-11.9,7.2-16.9Z"/>
      <path class="st0" d="M899.3,310.4l-3.9,22h23.3l-1.1,6.4h-23.3l-4,22.5h26.1l-1.2,6.6h-34.5l11.4-64.2h34.4l-1.2,6.6h-26Z"/>
      <path class="st0" d="M974.4,308c3.2,2.8,4.9,6.4,4.9,11s-.1,2-.4,3.7c-.8,4.4-2.8,8.3-5.9,11.7-3.1,3.4-7.3,5.6-12.6,6.7l11.3,26.9h-10l-10.7-26.2h-10l-4.7,26.2h-8.4l11.4-64.1h20.6c6.4,0,11.2,1.4,14.4,4.1ZM970.5,319.7c0-2.9-1-5.2-2.9-6.8-1.9-1.6-4.9-2.4-8.9-2.4h-12.2l-4.3,24.6h12.3c4.5,0,8.1-1.1,10.8-3.4,2.6-2.2,4.3-5.2,5-9,.2-1.1.3-2.1.3-3Z"/>
    </g>
  </g>
</svg>