<?xml version='1.0' encoding='UTF-8'?>
<svg width="31mm" height="31mm" version="1.1" viewBox="0 0 31 31" xmlns="http://www.w3.org/2000/svg"><path d="M1,1H2V2H1zM2,1H3V2H2zM3,1H4V2H3zM4,1H5V2H4zM5,1H6V2H5zM6,1H7V2H6zM7,1H8V2H7zM9,1H10V2H9zM11,1H12V2H11zM12,1H13V2H12zM13,1H14V2H13zM14,1H15V2H14zM15,1H16V2H15zM17,1H18V2H17zM18,1H19V2H18zM19,1H20V2H19zM23,1H24V2H23zM24,1H25V2H24zM25,1H26V2H25zM26,1H27V2H26zM27,1H28V2H27zM28,1H29V2H28zM29,1H30V2H29zM1,2H2V3H1zM7,2H8V3H7zM10,2H11V3H10zM12,2H13V3H12zM14,2H15V3H14zM15,2H16V3H15zM16,2H17V3H16zM20,2H21V3H20zM23,2H24V3H23zM29,2H30V3H29zM1,3H2V4H1zM3,3H4V4H3zM4,3H5V4H4zM5,3H6V4H5zM7,3H8V4H7zM10,3H11V4H10zM12,3H13V4H12zM15,3H16V4H15zM18,3H19V4H18zM19,3H20V4H19zM20,3H21V4H20zM21,3H22V4H21zM23,3H24V4H23zM25,3H26V4H25zM26,3H27V4H26zM27,3H28V4H27zM29,3H30V4H29zM1,4H2V5H1zM3,4H4V5H3zM4,4H5V5H4zM5,4H6V5H5zM7,4H8V5H7zM9,4H10V5H9zM10,4H11V5H10zM20,4H21V5H20zM23,4H24V5H23zM25,4H26V5H25zM26,4H27V5H26zM27,4H28V5H27zM29,4H30V5H29zM1,5H2V6H1zM3,5H4V6H3zM4,5H5V6H4zM5,5H6V6H5zM7,5H8V6H7zM9,5H10V6H9zM10,5H11V6H10zM11,5H12V6H11zM18,5H19V6H18zM19,5H20V6H19zM23,5H24V6H23zM25,5H26V6H25zM26,5H27V6H26zM27,5H28V6H27zM29,5H30V6H29zM1,6H2V7H1zM7,6H8V7H7zM9,6H10V7H9zM12,6H13V7H12zM17,6H18V7H17zM18,6H19V7H18zM20,6H21V7H20zM23,6H24V7H23zM29,6H30V7H29zM1,7H2V8H1zM2,7H3V8H2zM3,7H4V8H3zM4,7H5V8H4zM5,7H6V8H5zM6,7H7V8H6zM7,7H8V8H7zM9,7H10V8H9zM11,7H12V8H11zM13,7H14V8H13zM15,7H16V8H15zM17,7H18V8H17zM19,7H20V8H19zM21,7H22V8H21zM23,7H24V8H23zM24,7H25V8H24zM25,7H26V8H25zM26,7H27V8H26zM27,7H28V8H27zM28,7H29V8H28zM29,7H30V8H29zM9,8H10V9H9zM10,8H11V9H10zM11,8H12V9H11zM12,8H13V9H12zM14,8H15V9H14zM16,8H17V9H16zM17,8H18V9H17zM18,8H19V9H18zM19,8H20V9H19zM20,8H21V9H20zM1,9H2V10H1zM5,9H6V10H5zM7,9H8V10H7zM8,9H9V10H8zM9,9H10V10H9zM12,9H13V10H12zM14,9H15V10H14zM18,9H19V10H18zM20,9H21V10H20zM21,9H22V10H21zM22,9H23V10H22zM23,9H24V10H23zM24,9H25V10H24zM25,9H26V10H25zM26,9H27V10H26zM29,9H30V10H29zM1,10H2V11H1zM2,10H3V11H2zM3,10H4V11H3zM4,10H5V11H4zM5,10H6V11H5zM9,10H10V11H9zM10,10H11V11H10zM11,10H12V11H11zM12,10H13V11H12zM14,10H15V11H14zM15,10H16V11H15zM17,10H18V11H17zM19,10H20V11H19zM23,10H24V11H23zM24,10H25V11H24zM25,10H26V11H25zM26,10H27V11H26zM27,10H28V11H27zM28,10H29V11H28zM29,10H30V11H29zM1,11H2V12H1zM3,11H4V12H3zM5,11H6V12H5zM6,11H7V12H6zM7,11H8V12H7zM8,11H9V12H8zM10,11H11V12H10zM12,11H13V12H12zM17,11H18V12H17zM18,11H19V12H18zM22,11H23V12H22zM23,11H24V12H23zM29,11H30V12H29zM2,12H3V13H2zM3,12H4V13H3zM6,12H7V13H6zM9,12H10V13H9zM12,12H13V13H12zM15,12H16V13H15zM18,12H19V13H18zM19,12H20V13H19zM20,12H21V13H20zM21,12H22V13H21zM23,12H24V13H23zM25,12H26V13H25zM26,12H27V13H26zM28,12H29V13H28zM29,12H30V13H29zM1,13H2V14H1zM3,13H4V14H3zM7,13H8V14H7zM8,13H9V14H8zM9,13H10V14H9zM10,13H11V14H10zM11,13H12V14H11zM12,13H13V14H12zM14,13H15V14H14zM15,13H16V14H15zM16,13H17V14H16zM17,13H18V14H17zM18,13H19V14H18zM21,13H22V14H21zM22,13H23V14H22zM28,13H29V14H28zM1,14H2V15H1zM6,14H7V15H6zM8,14H9V15H8zM9,14H10V15H9zM10,14H11V15H10zM11,14H12V15H11zM12,14H13V15H12zM13,14H14V15H13zM21,14H22V15H21zM22,14H23V15H22zM23,14H24V15H23zM24,14H25V15H24zM25,14H26V15H25zM26,14H27V15H26zM27,14H28V15H27zM28,14H29V15H28zM29,14H30V15H29zM2,15H3V16H2zM4,15H5V16H4zM7,15H8V16H7zM8,15H9V16H8zM9,15H10V16H9zM11,15H12V16H11zM13,15H14V16H13zM14,15H15V16H14zM15,15H16V16H15zM16,15H17V16H16zM18,15H19V16H18zM21,15H22V16H21zM23,15H24V16H23zM24,15H25V16H24zM26,15H27V16H26zM27,15H28V16H27zM29,15H30V16H29zM1,16H2V17H1zM2,16H3V17H2zM3,16H4V17H3zM4,16H5V17H4zM8,16H9V17H8zM9,16H10V17H9zM11,16H12V17H11zM13,16H14V17H13zM14,16H15V17H14zM16,16H17V17H16zM17,16H18V17H17zM18,16H19V17H18zM20,16H21V17H20zM21,16H22V17H21zM22,16H23V17H22zM23,16H24V17H23zM28,16H29V17H28zM29,16H30V17H29zM1,17H2V18H1zM4,17H5V18H4zM5,17H6V18H5zM7,17H8V18H7zM8,17H9V18H8zM9,17H10V18H9zM11,17H12V18H11zM14,17H15V18H14zM18,17H19V18H18zM21,17H22V18H21zM22,17H23V18H22zM24,17H25V18H24zM28,17H29V18H28zM1,18H2V19H1zM2,18H3V19H2zM3,18H4V19H3zM4,18H5V19H4zM10,18H11V19H10zM11,18H12V19H11zM12,18H13V19H12zM13,18H14V19H13zM14,18H15V19H14zM15,18H16V19H15zM17,18H18V19H17zM23,18H24V19H23zM24,18H25V19H24zM25,18H26V19H25zM26,18H27V19H26zM28,18H29V19H28zM29,18H30V19H29zM4,19H5V20H4zM5,19H6V20H5zM6,19H7V20H6zM7,19H8V20H7zM8,19H9V20H8zM17,19H18V20H17zM18,19H19V20H18zM22,19H23V20H22zM23,19H24V20H23zM27,19H28V20H27zM29,19H30V20H29zM6,20H7V21H6zM8,20H9V21H8zM10,20H11V21H10zM11,20H12V21H11zM12,20H13V21H12zM13,20H14V21H13zM15,20H16V21H15zM18,20H19V21H18zM20,20H21V21H20zM28,20H29V21H28zM29,20H30V21H29zM1,21H2V22H1zM2,21H3V22H2zM3,21H4V22H3zM4,21H5V22H4zM6,21H7V22H6zM7,21H8V22H7zM8,21H9V22H8zM10,21H11V22H10zM12,21H13V22H12zM14,21H15V22H14zM15,21H16V22H15zM16,21H17V22H16zM17,21H18V22H17zM19,21H20V22H19zM20,21H21V22H20zM21,21H22V22H21zM22,21H23V22H22zM23,21H24V22H23zM24,21H25V22H24zM25,21H26V22H25zM26,21H27V22H26zM29,21H30V22H29zM9,22H10V23H9zM10,22H11V23H10zM11,22H12V23H11zM13,22H14V23H13zM18,22H19V23H18zM19,22H20V23H19zM21,22H22V23H21zM25,22H26V23H25zM29,22H30V23H29zM1,23H2V24H1zM2,23H3V24H2zM3,23H4V24H3zM4,23H5V24H4zM5,23H6V24H5zM6,23H7V24H6zM7,23H8V24H7zM9,23H10V24H9zM12,23H13V24H12zM13,23H14V24H13zM14,23H15V24H14zM15,23H16V24H15zM16,23H17V24H16zM19,23H20V24H19zM20,23H21V24H20zM21,23H22V24H21zM23,23H24V24H23zM25,23H26V24H25zM26,23H27V24H26zM27,23H28V24H27zM29,23H30V24H29zM1,24H2V25H1zM7,24H8V25H7zM10,24H11V25H10zM12,24H13V25H12zM14,24H15V25H14zM16,24H17V25H16zM17,24H18V25H17zM20,24H21V25H20zM21,24H22V25H21zM25,24H26V25H25zM1,25H2V26H1zM3,25H4V26H3zM4,25H5V26H4zM5,25H6V26H5zM7,25H8V26H7zM9,25H10V26H9zM12,25H13V26H12zM13,25H14V26H13zM14,25H15V26H14zM20,25H21V26H20zM21,25H22V26H21zM22,25H23V26H22zM23,25H24V26H23zM24,25H25V26H24zM25,25H26V26H25zM26,25H27V26H26zM29,25H30V26H29zM1,26H2V27H1zM3,26H4V27H3zM4,26H5V27H4zM5,26H6V27H5zM7,26H8V27H7zM15,26H16V27H15zM17,26H18V27H17zM19,26H20V27H19zM20,26H21V27H20zM21,26H22V27H21zM22,26H23V27H22zM28,26H29V27H28zM1,27H2V28H1zM3,27H4V28H3zM4,27H5V28H4zM5,27H6V28H5zM7,27H8V28H7zM10,27H11V28H10zM13,27H14V28H13zM17,27H18V28H17zM18,27H19V28H18zM22,27H23V28H22zM26,27H27V28H26zM27,27H28V28H27zM28,27H29V28H28zM29,27H30V28H29zM1,28H2V29H1zM7,28H8V29H7zM10,28H11V29H10zM12,28H13V29H12zM13,28H14V29H13zM14,28H15V29H14zM18,28H19V29H18zM19,28H20V29H19zM20,28H21V29H20zM21,28H22V29H21zM22,28H23V29H22zM25,28H26V29H25zM26,28H27V29H26zM28,28H29V29H28zM29,28H30V29H29zM1,29H2V30H1zM2,29H3V30H2zM3,29H4V30H3zM4,29H5V30H4zM5,29H6V30H5zM6,29H7V30H6zM7,29H8V30H7zM9,29H10V30H9zM12,29H13V30H12zM13,29H14V30H13zM15,29H16V30H15zM16,29H17V30H16zM17,29H18V30H17zM19,29H20V30H19zM21,29H22V30H21zM24,29H25V30H24zM25,29H26V30H25zM26,29H27V30H26zM28,29H29V30H28z" id="qr-path" fill="#000000" fill-opacity="1" fill-rule="nonzero" stroke="none"/></svg>