<svg width="64" height="64" viewBox="0 0 64 64" fill="none" xmlns="http://www.w3.org/2000/svg">
<g clip-path="url(#clip0_3571_6369)">
<path d="M14.6663 7.48409L7.48507 14.6653C3.91904 18.2314 3.91904 24.0354 7.48507 27.6014L19.9785 40.0948C21.3065 41.4229 23.6839 42.2836 26.6679 42.505L42.5059 26.6669C42.2846 23.6829 41.4238 21.3055 40.0958 19.9775L27.6024 7.48409C24.0364 3.91806 18.2323 3.91806 14.6663 7.48409Z" fill="black"/>
<path d="M12.5016 3.44306L3.44306 12.5016C-1.14769 17.0924 -1.14769 24.6097 3.44306 29.2005L18.5434 44.3008C21.7487 47.5061 29.2251 48.2193 35.0127 46.8011C38.7345 45.8911 42.653 47.0306 45.3583 49.7359L55.1956 59.5732C54.7939 59.9749 54.7939 60.6307 55.1956 61.0324L57.8681 63.7049C58.2698 64.1066 58.9256 64.1066 59.3273 63.7049L63.7049 59.3273C64.1066 58.9256 64.1066 58.2698 63.7049 57.8681L61.0324 55.1956C60.6307 54.7939 59.9749 54.7939 59.5732 55.1956L49.7359 45.3583C47.0306 42.653 45.8829 38.7263 46.8011 35.0127C48.2193 29.2251 47.5061 21.7487 44.3008 18.5434L29.2005 3.44306C24.6097 -1.14769 17.0924 -1.14769 12.5016 3.44306ZM42.9235 19.2156C44.5467 20.8387 45.5796 23.708 45.8337 27.2986V27.4133L27.4051 45.8501H27.2904C23.6998 45.5878 20.8305 44.5549 19.2074 42.9317L4.91866 28.6348C0.647624 24.3638 0.647624 17.4121 4.91866 13.141L13.1328 4.92686C17.4039 0.655822 24.3556 0.655822 28.6266 4.92686L42.9153 19.2156H42.9235Z" fill="black"/>
<path d="M37.3252 50.2197C33.5296 50.2197 30.4473 53.3021 30.4473 57.0977C30.4473 60.8932 33.5296 63.9756 37.3252 63.9756C41.1208 63.9756 44.2031 60.8932 44.2031 57.0977C44.2031 53.3021 41.1208 50.2197 37.3252 50.2197ZM34.0461 59.9177C33.6116 60.1636 33.0624 60.0161 32.8164 59.5898C32.5705 59.1553 32.718 58.6061 33.1443 58.3601C33.5706 58.1142 34.1281 58.2617 34.374 58.688C34.6199 59.1225 34.4724 59.6718 34.0461 59.9177ZM34.3822 55.286C34.1363 55.7204 33.5788 55.868 33.1525 55.6139C32.718 55.3679 32.5705 54.8105 32.8246 54.3842C33.0706 53.9497 33.628 53.8022 34.0543 54.0563C34.4888 54.3022 34.6363 54.8597 34.3822 55.286ZM37.3252 62.1885C36.8251 62.1885 36.4234 61.7868 36.4234 61.2867C36.4234 60.7867 36.8251 60.385 37.3252 60.385C37.8253 60.385 38.227 60.7867 38.227 61.2867C38.227 61.7868 37.8253 62.1885 37.3252 62.1885ZM37.3252 57.8846C36.8251 57.8846 36.4234 57.483 36.4234 56.9829C36.4234 56.4828 36.8251 56.0811 37.3252 56.0811C37.8253 56.0811 38.227 56.4828 38.227 56.9829C38.227 57.483 37.8253 57.8846 37.3252 57.8846ZM37.3252 53.589C36.8251 53.589 36.4234 53.1873 36.4234 52.6873C36.4234 52.1872 36.8251 51.7855 37.3252 51.7855C37.8253 51.7855 38.227 52.1872 38.227 52.6873C38.227 53.1873 37.8253 53.589 37.3252 53.589ZM41.8258 59.5898C41.5798 60.0243 41.0224 60.1718 40.5961 59.9177C40.1698 59.6636 40.0141 59.1143 40.2682 58.688C40.5141 58.2535 41.0716 58.106 41.4979 58.3601C41.9241 58.6142 42.0799 59.1635 41.8258 59.5898ZM41.4979 55.6139C41.0634 55.8598 40.5141 55.7122 40.2682 55.286C40.0223 54.8515 40.1698 54.3022 40.5961 54.0563C41.0306 53.8104 41.5798 53.9579 41.8258 54.3842C42.0717 54.8187 41.9241 55.3679 41.4979 55.6139Z" fill="black"/>
</g>
<defs>
<clipPath id="clip0_3571_6369">
<rect width="64" height="64" fill="white"/>
</clipPath>
</defs>
</svg>
