<svg width="65" height="64" viewBox="0 0 65 64" fill="none" xmlns="http://www.w3.org/2000/svg">
<g clip-path="url(#clip0_3571_6365)">
<path d="M52.9869 46.7587C51.6271 45.399 49.516 45.2262 47.9684 46.2404C47.4726 45.6995 46.7213 44.9482 45.6771 44.0467C42.4241 40.2378 37.0451 32.3195 32.9883 18.3235C32.0041 14.4695 30.1635 10.578 28.1051 7.55038C28.0525 7.39262 27.9623 7.24237 27.8346 7.11465C27.8046 7.0846 27.7745 7.06206 27.7445 7.03953C26.9632 5.93517 26.1518 4.95102 25.3555 4.15468C21.509 0.308219 16.6408 -0.848725 11.953 0.608723C11.7125 0.608723 11.4721 0.676337 11.2693 0.826589C9.1207 1.61541 7.02467 2.96769 5.09393 4.86838C5.07891 4.8834 5.06388 4.89092 5.04886 4.90594C5.04886 4.90594 5.04134 4.92097 5.03383 4.92848C5.01881 4.9435 5.00378 4.95853 4.98124 4.97355C-1.35189 11.3142 -1.67494 19.503 4.17739 25.3553C4.99627 26.1742 5.98042 26.978 7.06975 27.7518C7.09229 27.7819 7.10731 27.8044 7.13736 27.8345C7.27259 27.9697 7.43036 28.0523 7.59563 28.1049C10.3603 29.9831 13.741 31.6058 17.0841 32.605C17.1141 32.6125 17.1442 32.6275 17.1742 32.6425C17.2493 32.6651 17.317 32.6801 17.3846 32.7026C17.4296 32.7177 17.4747 32.7327 17.5123 32.7477C17.5649 32.7627 17.6175 32.7778 17.6776 32.7928C32.0943 36.8646 40.2079 42.3714 44.0769 45.6769C45.001 46.7437 45.7672 47.5025 46.3157 48.0058C45.4142 49.5384 45.6095 51.5443 46.9242 52.859L56.916 62.8508C58.4786 64.4134 61.0103 64.4134 62.573 62.8508L63.0012 62.4226C64.5638 60.8599 64.5638 58.3282 63.0012 56.7655L53.0094 46.7738L52.9869 46.7587ZM11.7351 3.13296L12.1333 3.53113L8.69999 6.9644L7.47543 5.73984C8.75258 4.63549 10.2025 3.74149 11.7351 3.13296ZM23.7778 5.75487C24.3788 6.35588 24.9648 7.06206 25.5433 7.82835L22.5833 10.7883L19.751 7.95606L22.8162 4.89092C23.1392 5.16137 23.4623 5.43934 23.7778 5.75487ZM28.8263 13.4027L27.0082 15.2208L24.176 12.3885L26.843 9.72153C27.5642 10.871 28.2253 12.1181 28.8188 13.4102L28.8263 13.4027ZM20.3896 21.8319L16.9564 25.2651L14.1241 22.4329L17.5574 18.9996L20.3896 21.8319ZM19.15 17.4069L22.5833 13.9737L25.4156 16.8059L21.9823 20.2392L19.15 17.4069ZM21.9823 23.4245L24.8146 26.2568L21.3813 29.6901L18.549 26.8578L21.9823 23.4245ZM23.575 21.8319L27.0082 18.3986L29.8405 21.2309L26.4072 24.6641L23.575 21.8319ZM30.5467 17.9629C30.5767 18.0756 30.6068 18.1732 30.6368 18.2859C30.7044 18.5413 30.7721 18.7893 30.8397 19.0447L28.6009 16.8059L29.7579 15.649C30.0508 16.4228 30.3138 17.1966 30.5392 17.9629H30.5467ZM20.9906 12.381L17.5574 15.8143L14.7251 12.982L18.1584 9.54874L20.9906 12.381ZM13.1324 11.3893L10.3002 8.55707L13.7334 5.12381L16.5657 7.95606L13.1324 11.3893ZM7.10731 8.55707L3.67405 11.9903L3.21578 11.5321C3.83933 10.0145 4.75586 8.58712 5.87524 7.325L7.10731 8.55707ZM5.27423 13.583L8.7075 10.1497L11.5398 12.982L8.10649 16.4153L5.27423 13.583ZM13.1324 14.5747L15.9647 17.4069L12.5314 20.8402L9.69917 18.0079L13.1324 14.5747ZM10.9387 22.4329L7.84355 25.5281C7.07726 24.9496 6.37108 24.3636 5.77007 23.7626C5.45454 23.4471 5.16906 23.124 4.90612 22.801L8.10649 19.6006L10.9387 22.4329ZM12.5314 24.0256L15.3637 26.8578L13.4179 28.8036C12.1257 28.2101 10.8786 27.5415 9.72922 26.8278L12.5314 24.0256ZM16.9564 28.458L19.4055 30.9071C19.0449 30.8245 18.6767 30.7343 18.3086 30.6291C18.2035 30.5991 18.0983 30.569 17.9856 30.539C17.2118 30.3136 16.438 30.0507 15.6717 29.7577L16.9639 28.4655L16.9564 28.458ZM23.1242 31.4405L22.974 31.2903L26.4072 27.857L28.7737 30.2235C27.3989 31.14 25.4606 31.5532 23.1317 31.4405H23.1242ZM27.9999 26.2643L31.4332 22.831C31.5834 25.1975 31.2078 27.1733 30.3288 28.6007L27.9924 26.2643H27.9999ZM20.923 3.59875L18.1584 6.36339L14.2368 2.4418C16.438 2.0812 18.7293 2.38921 20.923 3.59875ZM2.49457 13.9962L6.5063 18.0079L3.60643 20.9078C2.35934 18.639 2.07386 16.265 2.48705 13.9962H2.49457ZM26.8054 33.4163C28.5709 33.0332 30.0508 32.2819 31.1777 31.155C31.1928 31.14 31.2078 31.125 31.2153 31.11C31.2228 31.1024 31.2303 31.0949 31.2378 31.0874C31.2604 31.0649 31.2829 31.0348 31.3055 31.0048C32.3948 29.8553 33.0859 28.428 33.4466 26.8202C35.505 32.2293 37.6912 36.4589 39.7121 39.6894C36.4741 37.6685 32.237 35.4748 26.8054 33.4088V33.4163Z" fill="black"/>
<path d="M29.45 61.246C32.1052 58.5909 32.1052 54.2861 29.45 51.6309C26.7949 48.9758 22.49 48.9758 19.8349 51.6309C17.1798 54.2861 17.1798 58.5909 19.8349 61.246C22.4901 63.9012 26.7949 63.9012 29.45 61.246Z" fill="black"/>
<circle cx="23" cy="54" r="1" fill="#D9D9D9"/>
<circle cx="26" cy="52" r="1" fill="#D9D9D9"/>
</g>
<defs>
<clipPath id="clip0_3571_6365">
<rect width="64.1502" height="64" fill="white"/>
</clipPath>
</defs>
</svg>
