<?xml version="1.0" encoding="UTF-8"?><svg id="Layer_1" xmlns="http://www.w3.org/2000/svg" viewBox="0 0 445.3 189.32"><defs><style>.cls-1{fill:#cbfd80;}.cls-2{fill:#82e896;}.cls-3{fill:#34d399;}</style></defs><path class="cls-1" d="M417.49,161.49c17.94-17.94,27.81-41.67,27.81-66.84s-9.87-48.91-27.81-66.84S375.82,0,350.65,0s-48.91,9.87-66.84,27.81c-17.94,17.94-27.81,41.67-27.81,66.84s9.87,48.91,27.81,66.84c17.94,17.94,41.67,27.81,66.84,27.81s48.91-9.87,66.84-27.81Z"/><path class="cls-1" d="M161.49,27.81C143.56,9.87,119.82,0,94.65,0S45.75,9.87,27.81,27.81C9.87,45.75,0,69.48,0,94.65s9.87,48.91,27.81,66.84c17.94,17.94,41.67,27.81,66.84,27.81s48.91-9.87,66.84-27.81c17.94-17.94,27.81-41.67,27.81-66.84s-9.87-48.91-27.81-66.84Z"/><path class="cls-2" d="M274.28,173.85c-.39-.37-.77-.75-1.15-1.13-.25-.25-.5-.5-.75-.74-.69-.7-1.37-1.39-2.04-2.11-.1-.11-.19-.22-.29-.32-.57-.61-1.14-1.23-1.7-1.86-.23-.26-.46-.53-.7-.8-.42-.47-.83-.95-1.24-1.43-.26-.3-.5-.61-.76-.91-.37-.45-.74-.91-1.12-1.36-.26-.32-.51-.64-.76-.97-.35-.45-.7-.9-1.05-1.36-.25-.33-.5-.67-.74-1-.34-.46-.67-.91-1-1.38-.24-.33-.48-.67-.71-1.01-.33-.47-.66-.94-.98-1.42-.22-.33-.45-.66-.67-.99-.33-.5-.66-1.01-.98-1.52-.2-.31-.4-.62-.6-.94-.36-.57-.7-1.15-1.05-1.73-.15-.26-.31-.5-.46-.76-.5-.84-.98-1.69-1.45-2.54h0c-.46-.85-.92-1.7-1.36-2.56-.14-.26-.27-.53-.4-.81-.3-.6-.6-1.19-.89-1.8-.15-.32-.31-.66-.46-.98-.26-.55-.52-1.1-.77-1.65-.16-.36-.32-.7-.47-1.06-.23-.53-.46-1.08-.7-1.61-.15-.36-.3-.73-.45-1.1-.22-.53-.43-1.08-.64-1.62-.14-.37-.29-.74-.43-1.11-.21-.55-.41-1.1-.6-1.66-.13-.36-.26-.73-.39-1.09-.2-.58-.39-1.16-.58-1.74-.11-.34-.22-.68-.33-1.02-.21-.65-.4-1.3-.6-1.96-.09-.28-.17-.55-.25-.83-.53-1.87-1.02-3.76-1.46-5.66-.07-.29-.13-.6-.19-.89-.15-.65-.29-1.31-.42-1.97-.08-.36-.14-.73-.21-1.1-.12-.6-.22-1.19-.33-1.79-.07-.4-.13-.78-.19-1.18-.09-.57-.19-1.15-.27-1.73-.06-.4-.12-.81-.17-1.22-.08-.57-.15-1.14-.22-1.71-.05-.41-.09-.82-.14-1.23-.06-.58-.12-1.15-.17-1.74-.04-.4-.08-.81-.11-1.22-.05-.6-.09-1.2-.12-1.8-.02-.39-.05-.77-.07-1.15-.04-.67-.06-1.33-.09-2-.02-.33-.03-.65-.04-.98-.02-.99-.04-1.98-.04-2.98s.02-1.99.04-2.98c0-.32.02-.65.04-.98.02-.67.05-1.33.09-2,.02-.39.05-.78.07-1.15.04-.6.08-1.2.12-1.8.03-.41.07-.81.11-1.22.05-.58.11-1.15.17-1.73.05-.41.09-.82.14-1.23.07-.57.14-1.14.22-1.71.05-.41.11-.81.17-1.22.09-.58.18-1.15.27-1.73.06-.39.12-.79.19-1.18.1-.6.22-1.19.33-1.79.07-.36.14-.73.21-1.09.13-.66.28-1.31.42-1.97.06-.29.12-.6.19-.89.44-1.9.93-3.79,1.46-5.66.08-.28.17-.55.25-.83.19-.66.39-1.31.6-1.96.11-.34.22-.68.33-1.02.19-.58.39-1.17.58-1.75.12-.36.26-.72.39-1.08.2-.56.4-1.11.6-1.67.14-.37.28-.74.43-1.1.21-.54.43-1.08.64-1.63.15-.36.29-.73.45-1.09.22-.54.46-1.08.7-1.63.15-.35.31-.7.46-1.05.26-.56.51-1.11.77-1.67.15-.33.3-.64.46-.97.29-.61.6-1.22.91-1.83.13-.26.26-.52.39-.77.9-1.73,1.84-3.44,2.83-5.12.14-.24.29-.47.43-.71.36-.6.71-1.18,1.08-1.77.19-.3.39-.6.57-.91.33-.52.67-1.04,1-1.55.22-.33.43-.64.65-.96.33-.49.66-.98,1-1.46.23-.32.46-.65.7-.98.34-.47.68-.94,1.02-1.4.24-.33.48-.65.73-.98.35-.47.71-.93,1.07-1.39.25-.31.49-.63.74-.94.38-.47.76-.94,1.15-1.4.24-.29.48-.59.73-.88.43-.5.85-.99,1.29-1.49.22-.25.43-.5.64-.74.6-.67,1.21-1.33,1.82-1.99.06-.06.12-.12.17-.19.67-.71,1.36-1.43,2.05-2.12.23-.23.46-.46.7-.69.4-.4.79-.79,1.19-1.18-15.32-10-33.33-15.43-51.63-15.43s-36.31,5.44-51.63,15.45c.4.39.8.78,1.19,1.18.23.23.46.46.7.69.7.7,1.38,1.41,2.05,2.12.06.06.12.12.17.19.61.66,1.22,1.32,1.82,1.99.22.25.43.49.64.74.43.49.86.98,1.29,1.49.25.29.49.58.73.88.39.46.77.93,1.15,1.4.25.31.5.62.74.94.36.47.72.92,1.07,1.39.24.32.48.64.72.97.35.47.69.94,1.03,1.41.23.33.46.65.69.98.34.49.67.98,1.01,1.46.22.32.43.63.64.96.34.52.67,1.04,1.01,1.56.19.3.38.6.57.9.37.6.73,1.19,1.09,1.8.14.23.28.46.42.7.99,1.68,1.93,3.39,2.83,5.12.13.25.26.5.38.75.31.61.62,1.23.92,1.84.15.32.3.63.45.95.26.56.53,1.12.78,1.69.15.34.31.69.46,1.04.24.54.47,1.09.7,1.64.15.36.29.72.44,1.08.22.54.44,1.09.65,1.64.14.36.28.73.42,1.09.21.56.41,1.12.61,1.67.12.36.26.71.38,1.07.2.59.39,1.18.59,1.77.11.33.22.67.33,1.01.21.66.41,1.32.6,1.98.08.27.16.53.24.81.54,1.87,1.03,3.76,1.46,5.67.07.29.12.58.19.88.15.66.29,1.32.43,1.98.07.36.14.72.21,1.08.12.6.22,1.2.33,1.8.07.39.13.78.19,1.17.09.58.19,1.15.27,1.74.06.4.12.81.17,1.22.08.57.15,1.15.22,1.72.05.41.09.82.14,1.23.06.58.12,1.15.17,1.74.04.4.08.81.11,1.22.05.6.09,1.2.12,1.8.02.39.05.77.07,1.15.04.67.06,1.33.09,2,.02.33.03.65.04.98.02.99.04,1.98.04,2.98s-.02,1.99-.04,2.98c0,.32-.02.66-.04.98-.02.67-.05,1.32-.09,1.99-.02.39-.05.78-.07,1.16-.04.6-.08,1.2-.12,1.8-.03.41-.07.81-.11,1.22-.05.58-.11,1.15-.17,1.73-.05.41-.09.83-.14,1.24-.07.57-.14,1.14-.22,1.7-.05.41-.11.82-.17,1.22-.09.57-.18,1.15-.27,1.72-.06.39-.13.79-.19,1.19-.1.6-.22,1.18-.33,1.77-.07.37-.14.74-.21,1.11-.13.65-.27,1.3-.42,1.95-.07.3-.13.6-.2.91-.44,1.9-.93,3.79-1.46,5.66-.08.28-.17.56-.25.84-.19.65-.39,1.3-.6,1.95-.11.34-.22.68-.33,1.02-.19.58-.38,1.16-.58,1.74-.12.36-.26.73-.39,1.09-.2.55-.39,1.11-.6,1.66-.14.37-.28.74-.43,1.11-.21.54-.43,1.08-.64,1.63-.15.36-.29.73-.45,1.09-.22.54-.46,1.08-.7,1.63-.15.35-.31.7-.46,1.05-.26.56-.51,1.11-.77,1.66-.15.33-.3.65-.46.97-.29.61-.6,1.22-.91,1.82-.13.26-.26.52-.39.78-.9,1.73-1.84,3.43-2.82,5.11-.14.24-.29.48-.43.72-.36.59-.71,1.18-1.08,1.76-.19.31-.39.61-.58.91-.33.52-.66,1.03-1,1.54-.22.33-.43.65-.65.97-.33.49-.66.97-.99,1.45-.23.33-.46.66-.7.99-.33.47-.67.93-1.01,1.39-.25.33-.49.66-.74.98-.35.46-.7.91-1.05,1.37-.25.32-.5.64-.75.95-.37.47-.74.92-1.12,1.38-.25.3-.5.6-.74.9-.41.49-.83.97-1.25,1.45-.22.26-.45.53-.68.78-.57.63-1.15,1.26-1.73,1.89-.09.09-.18.19-.26.29-.67.71-1.35,1.42-2.04,2.11-.25.26-.5.5-.76.75-.38.38-.76.76-1.14,1.12,15.32,10.01,33.34,15.45,51.63,15.45s36.31-5.44,51.63-15.45l-.02-.02Z"/><path class="cls-3" d="M274.94,151.32c.32.43.65.84.98,1.27.19.25.39.5.58.74.48.6.97,1.2,1.46,1.8.09.12.19.23.29.34.5.6,1.01,1.19,1.53,1.77.2.22.4.44.6.67.37.41.74.83,1.13,1.23.23.25.47.49.71.74.36.37.72.75,1.08,1.11.26.26.51.5.77.76.36.36.71.7,1.08,1.05.26.26.53.5.81.76.23.22.46.43.7.65,19.55-17.97,30.65-42.99,30.65-69.56s-11.1-51.59-30.65-69.56c-.23.22-.47.43-.7.65-.27.26-.54.5-.81.76-.36.35-.72.7-1.08,1.05-.26.26-.51.5-.77.76-.36.37-.72.74-1.08,1.11-.23.25-.47.49-.71.74-.38.41-.75.82-1.13,1.23-.2.22-.4.44-.6.67-.52.58-1.02,1.17-1.53,1.77-.09.12-.19.22-.29.34-.5.6-.98,1.19-1.46,1.8-.19.25-.39.49-.58.74-.33.42-.66.84-.98,1.27-.22.29-.43.58-.64.88-.29.39-.57.78-.86,1.18-.22.31-.43.63-.66.94-.26.38-.53.77-.79,1.15-.22.33-.43.65-.64.98-.25.38-.5.76-.74,1.15-.21.33-.42.67-.63,1.01-.23.38-.47.77-.7,1.15-.2.34-.4.68-.6,1.03-.22.39-.44.77-.67,1.16-.19.35-.39.7-.58,1.05-.22.39-.43.79-.63,1.19-.19.35-.36.7-.54,1.04-.21.4-.41.81-.6,1.22l-.51,1.05c-.2.42-.39.84-.59,1.26-.15.34-.32.68-.47,1.03-.2.44-.39.89-.58,1.34-.14.33-.28.65-.42.98-.21.52-.42,1.04-.62,1.56-.1.26-.21.53-.31.79-.29.77-.58,1.56-.86,2.34-.09.26-.18.52-.26.78-.19.53-.36,1.08-.54,1.62-.11.33-.2.66-.3.99-.15.47-.29.95-.43,1.43l-.3,1.07c-.12.46-.26.91-.38,1.38-.09.36-.19.74-.28,1.1-.12.46-.22.91-.33,1.36-.09.37-.17.74-.26,1.12-.1.46-.2.91-.29,1.36-.08.38-.15.75-.22,1.13-.09.46-.17.91-.26,1.38-.07.38-.13.76-.19,1.14-.08.47-.15.93-.22,1.39-.05.38-.11.75-.16,1.13-.06.47-.12.95-.18,1.43-.05.37-.09.74-.13,1.12-.05.49-.1.98-.15,1.46-.03.36-.07.73-.1,1.08-.04.51-.08,1.03-.11,1.55-.02.34-.05.68-.07,1.02-.03.57-.05,1.15-.07,1.72,0,.29-.02.57-.03.86-.02.86-.04,1.73-.04,2.59h0c0,.87.02,1.73.04,2.59,0,.29.02.58.03.87.02.57.04,1.14.07,1.71.02.34.05.69.07,1.03.03.51.07,1.02.11,1.53.03.36.07.73.1,1.1.05.49.09.97.15,1.46.04.38.09.75.13,1.13.05.47.12.94.18,1.41.05.38.11.76.16,1.15.07.47.14.92.22,1.39.06.38.13.77.19,1.15.08.46.16.91.26,1.36.07.38.15.76.22,1.14.09.45.19.91.29,1.36.09.38.17.76.26,1.13.11.45.22.91.33,1.35.09.37.19.74.28,1.12.12.46.25.91.37,1.36.1.36.2.72.3,1.08.14.47.29.95.43,1.42.1.33.2.67.31,1.01.17.53.35,1.06.53,1.59.09.27.18.54.27.8.28.78.56,1.56.86,2.34.1.27.22.54.33.81.2.51.4,1.02.61,1.53.14.33.28.66.43.99.19.44.38.89.57,1.33.15.35.32.69.47,1.04.19.42.39.84.58,1.25.17.36.34.7.51,1.05.2.4.4.8.6,1.21.18.35.36.7.55,1.05.21.39.42.79.63,1.18.19.35.39.7.58,1.05.22.39.44.77.67,1.16.2.35.4.69.6,1.03.23.39.46.77.7,1.15.21.34.42.67.63,1.01.24.38.49.77.74,1.15.22.32.43.66.64.98.26.39.52.77.79,1.15.22.32.43.63.66.95.28.39.57.78.86,1.18.22.29.43.58.64.88v-.02Z"/><path class="cls-3" d="M173.3,147.18c.22-.33.43-.65.64-.98.25-.38.5-.76.74-1.15.21-.33.42-.67.63-1.01.23-.38.46-.77.7-1.15.2-.34.41-.69.6-1.03.22-.39.44-.77.67-1.16.19-.35.39-.7.58-1.05.22-.39.43-.79.63-1.19.19-.35.36-.7.54-1.04.21-.4.4-.81.6-1.22.17-.35.35-.7.51-1.05.2-.42.39-.84.58-1.25.15-.35.32-.69.47-1.04.19-.44.39-.89.57-1.33.14-.33.29-.65.42-.98.21-.51.41-1.03.61-1.54.11-.26.22-.53.32-.8.29-.77.58-1.56.86-2.34.09-.26.18-.53.26-.79.19-.53.36-1.07.54-1.61.11-.33.2-.67.31-1,.15-.47.29-.94.43-1.43.1-.36.2-.7.29-1.06.13-.46.26-.92.38-1.39.09-.36.19-.73.28-1.1.12-.46.22-.91.33-1.37.09-.37.17-.74.26-1.12.1-.46.2-.91.29-1.36.08-.38.15-.75.22-1.13.09-.46.17-.91.26-1.38.07-.38.13-.76.19-1.14.08-.47.15-.93.22-1.39.05-.38.11-.75.16-1.13.06-.47.12-.95.18-1.42.05-.37.09-.74.13-1.12.05-.49.1-.98.15-1.46.03-.36.07-.73.1-1.08.04-.51.08-1.03.11-1.55l.07-1.02c.03-.57.05-1.15.07-1.72,0-.29.02-.57.03-.86.02-.86.04-1.73.04-2.59s-.02-1.73-.04-2.59c0-.29-.02-.57-.03-.86-.02-.57-.04-1.15-.07-1.72-.02-.34-.05-.68-.07-1.02-.03-.52-.07-1.03-.11-1.55-.03-.36-.06-.72-.1-1.08-.05-.49-.09-.98-.15-1.47-.04-.37-.09-.74-.13-1.12-.05-.48-.12-.95-.18-1.43-.05-.38-.11-.75-.16-1.13-.07-.46-.14-.94-.22-1.4-.06-.38-.12-.75-.19-1.13-.09-.47-.17-.92-.26-1.39-.07-.37-.15-.75-.22-1.12-.09-.47-.19-.92-.29-1.38-.09-.37-.16-.74-.25-1.11-.11-.46-.22-.92-.33-1.38-.09-.36-.18-.73-.27-1.08-.12-.46-.26-.93-.38-1.39-.1-.35-.19-.7-.29-1.05-.14-.49-.29-.98-.44-1.46-.1-.32-.19-.64-.29-.96-.18-.56-.37-1.11-.56-1.67-.09-.24-.16-.48-.25-.73-.28-.79-.57-1.57-.86-2.35-.09-.25-.19-.49-.29-.73-.21-.54-.42-1.08-.64-1.61-.13-.32-.27-.64-.4-.95-.19-.46-.39-.92-.59-1.37-.15-.33-.3-.67-.46-1.01-.19-.43-.39-.86-.6-1.29-.16-.34-.33-.69-.5-1.03-.2-.41-.41-.83-.62-1.24-.18-.35-.36-.69-.53-1.03-.21-.4-.43-.81-.64-1.2-.19-.34-.38-.68-.57-1.03-.22-.39-.45-.79-.67-1.18-.19-.34-.39-.67-.6-1.01-.23-.39-.47-.77-.7-1.16-.2-.33-.41-.67-.62-.99-.25-.39-.5-.77-.75-1.16-.21-.32-.42-.64-.64-.97-.26-.39-.53-.77-.8-1.16-.22-.31-.43-.62-.64-.92-.29-.4-.58-.8-.88-1.2-.21-.29-.42-.57-.63-.85-.33-.43-.66-.86-.99-1.29-.19-.24-.37-.49-.57-.73-.5-.62-.99-1.23-1.5-1.84-.07-.08-.14-.17-.21-.25-.51-.61-1.04-1.22-1.56-1.81-.19-.22-.39-.43-.59-.65-.38-.42-.76-.84-1.14-1.25-.23-.25-.47-.49-.7-.74-.36-.38-.72-.75-1.08-1.12-.25-.26-.5-.5-.76-.76-.36-.36-.72-.71-1.08-1.06-.26-.26-.53-.5-.8-.76-.23-.22-.46-.43-.7-.65-19.55,17.97-30.65,42.99-30.65,69.56s11.1,51.59,30.64,69.56c.23-.22.47-.43.7-.65.27-.26.54-.5.81-.76.36-.35.72-.7,1.08-1.05.26-.26.52-.5.77-.77.36-.36.72-.74,1.08-1.11.24-.25.48-.5.71-.74.38-.4.75-.82,1.12-1.23.2-.22.41-.44.6-.67.52-.58,1.02-1.17,1.53-1.77.09-.12.19-.22.29-.34.5-.6.98-1.19,1.46-1.8.19-.25.39-.5.58-.75.33-.42.66-.84.98-1.26.22-.29.43-.59.64-.88.29-.39.57-.78.85-1.17.22-.31.43-.63.66-.94.26-.38.53-.77.79-1.15l-.03-.02Z"/></svg>