<svg width="64" height="64" viewBox="0 0 64 64" fill="none" xmlns="http://www.w3.org/2000/svg">
<g clip-path="url(#clip0_3571_6359)">
<path d="M8.61503 8.61563C-1.32067 18.5513 -2.6733 27.282 4.61452 34.5616C5.4179 35.365 6.33605 36.1519 7.33618 36.8897C15.2798 42.9315 29.0603 47.2271 38.1844 47.9977C42.398 48.3502 46.3412 50.2275 49.3334 53.2197L56.5638 60.4501C56.4572 60.7862 56.5228 61.1797 56.7933 61.4421L59.0641 63.7128C59.4494 64.0981 60.0724 64.0981 60.4577 63.7128L63.7205 60.4501C64.1057 60.0648 64.1057 59.4418 63.7205 59.0565L61.4497 56.7857C61.1791 56.5152 60.7938 56.4496 60.4577 56.5562L53.0961 49.1946C50.1285 46.227 48.284 42.3249 47.8824 38.1522C47.5462 34.6436 46.8003 31.2087 46.5379 30.0692C44.4803 21.1254 41.0454 12.9359 37.0859 7.58271L36.9301 7.36137C36.9301 7.36137 36.9055 7.32858 36.8973 7.31219C36.8973 7.31219 36.8482 7.23841 36.8154 7.21381C36.094 6.24648 35.3398 5.37751 34.5774 4.60692C27.2814 -2.6727 18.5507 -1.32007 8.61503 8.61563ZM13.2714 10.3126C13.9272 9.65675 14.9847 9.65675 15.6323 10.3126C16.2799 10.9684 16.2881 12.0259 15.6323 12.6735C14.9765 13.3212 13.919 13.3293 13.2714 12.6735C12.6237 12.0177 12.6155 10.9602 13.2714 10.3126ZM16.3947 13.4277C17.0505 12.7719 18.108 12.7719 18.7557 13.4277C19.4033 14.0835 19.4115 15.1411 18.7557 15.7887C18.0998 16.4363 17.0423 16.4445 16.3947 15.7887C15.7471 15.1329 15.7389 14.0753 16.3947 13.4277ZM19.5099 16.5511C20.1657 15.8953 21.2232 15.8953 21.8708 16.5511C22.5184 17.2069 22.5266 18.2644 21.8708 18.912C21.215 19.5597 20.1575 19.5679 19.5099 18.912C18.8622 18.2562 18.854 17.1987 19.5099 16.5511ZM22.6332 19.6744C23.289 19.0186 24.3466 19.0186 24.9942 19.6744C25.6418 20.3302 25.65 21.3878 24.9942 22.0354C24.3384 22.683 23.2808 22.6912 22.6332 22.0354C21.9856 21.3796 21.9774 20.322 22.6332 19.6744ZM25.7566 22.7896C26.4124 22.1338 27.4699 22.1338 28.1175 22.7896C28.7652 23.4454 28.7734 24.5029 28.1175 25.1505C27.4617 25.7982 26.4042 25.8064 25.7566 25.1505C25.1089 24.4947 25.1007 23.4372 25.7566 22.7896ZM28.8717 25.9129C29.5275 25.2571 30.5851 25.2571 31.2327 25.9129C31.8803 26.5687 31.8885 27.6263 31.2327 28.2739C30.5769 28.9215 29.5193 28.9297 28.8717 28.2739C28.2241 27.6181 28.2159 26.5606 28.8717 25.9129ZM31.9951 29.0363C32.6509 28.3805 33.7084 28.3805 34.356 29.0363C35.0037 29.6921 35.0119 30.7496 34.356 31.3972C33.7002 32.0449 32.6427 32.0531 31.9951 31.3972C31.3475 30.7414 31.3393 29.6839 31.9951 29.0363ZM10.312 13.272C10.9678 12.6161 12.0253 12.6161 12.6729 13.272C13.3205 13.9278 13.3287 14.9853 12.6729 15.6329C12.0171 16.2805 10.9596 16.2887 10.312 15.6329C9.66434 14.9771 9.65615 13.9196 10.312 13.272ZM13.4271 16.3953C14.0829 15.7395 15.1405 15.7395 15.7881 16.3953C16.4357 17.0511 16.4439 18.1086 15.7881 18.7563C15.1323 19.4039 14.0747 19.4121 13.4271 18.7563C12.7795 18.1005 12.7713 17.0429 13.4271 16.3953ZM16.5505 19.5105C17.2063 18.8546 18.2638 18.8546 18.9114 19.5105C19.5591 20.1663 19.5673 21.2238 18.9114 21.8714C18.2556 22.5191 17.1981 22.5272 16.5505 21.8714C15.9028 21.2156 15.8946 20.1581 16.5505 19.5105ZM19.6738 22.6338C20.3296 21.978 21.3872 21.978 22.0348 22.6338C22.6824 23.2896 22.6906 24.3472 22.0348 24.9948C21.379 25.6424 20.3214 25.6506 19.6738 24.9948C19.0262 24.339 19.018 23.2814 19.6738 22.6338ZM22.789 25.7572C23.4448 25.1013 24.5023 25.1013 25.1499 25.7572C25.7976 26.413 25.8058 27.4705 25.1499 28.1181C24.4941 28.7658 23.4366 28.7739 22.789 28.1181C22.1414 27.4623 22.1332 26.4048 22.789 25.7572ZM25.9123 28.8723C26.5681 28.2165 27.6257 28.2165 28.2733 28.8723C28.9209 29.5281 28.9291 30.5857 28.2733 31.2333C27.6175 31.8809 26.56 31.8891 25.9123 31.2333C25.2647 30.5775 25.2565 29.5199 25.9123 28.8723ZM29.0357 31.9957C29.6915 31.3399 30.749 31.3399 31.3966 31.9957C32.0443 32.6515 32.0525 33.709 31.3966 34.3566C30.7408 35.0043 29.6833 35.0125 29.0357 34.3566C28.3881 33.7008 28.3799 32.6433 29.0357 31.9957ZM7.34437 16.2314C8.0002 15.5755 9.05771 15.5755 9.70533 16.2314C10.353 16.8872 10.3612 17.9447 9.70533 18.5923C9.04951 19.2399 7.992 19.2481 7.34437 18.5923C6.69675 17.9365 6.68855 16.879 7.34437 16.2314ZM10.4677 19.3547C11.1235 18.6989 12.1811 18.6989 12.8287 19.3547C13.4763 20.0105 13.4845 21.068 12.8287 21.7157C12.1729 22.3633 11.1153 22.3715 10.4677 21.7157C9.8201 21.0598 9.8119 20.0023 10.4677 19.3547ZM13.5911 22.4781C14.2469 21.8222 15.3044 21.8222 15.952 22.4781C16.5997 23.1339 16.6079 24.1914 15.952 24.839C15.2962 25.4866 14.2387 25.4948 13.5911 24.839C12.9435 24.1832 12.9353 23.1257 13.5911 22.4781ZM16.7062 25.5932C17.362 24.9374 18.4196 24.9374 19.0672 25.5932C19.7148 26.249 19.723 27.3065 19.0672 27.9542C18.4114 28.6018 17.3539 28.61 16.7062 27.9542C16.0586 27.2983 16.0504 26.2408 16.7062 25.5932ZM19.8296 28.7166C20.4854 28.0607 21.5429 28.0607 22.1905 28.7166C22.8382 29.3724 22.8464 30.4299 22.1905 31.0775C21.5347 31.7251 20.4772 31.7333 19.8296 31.0775C19.182 30.4217 19.1738 29.3642 19.8296 28.7166ZM22.9529 31.8399C23.6088 31.1841 24.6663 31.1841 25.3139 31.8399C25.9615 32.4957 25.9697 33.5533 25.3139 34.2009C24.6581 34.8485 23.6006 34.8567 22.9529 34.2009C22.3053 33.5451 22.2971 32.4875 22.9529 31.8399ZM16.2717 37.0045C15.6159 37.6603 14.5584 37.6603 13.9108 37.0045C13.2632 36.3487 13.255 35.2912 13.9108 34.6436C14.5666 33.9959 15.6241 33.9877 16.2717 34.6436C16.9194 35.2994 16.9276 36.3569 16.2717 37.0045ZM13.1484 33.8812C12.4926 34.537 11.4351 34.537 10.7874 33.8812C10.1398 33.2253 10.1316 32.1678 10.7874 31.5202C11.4433 30.8726 12.5008 30.8644 13.1484 31.5202C13.796 32.176 13.8042 33.2335 13.1484 33.8812ZM10.025 30.766C9.36922 31.4218 8.31171 31.4218 7.66409 30.766C7.01646 30.1102 7.00827 29.0527 7.66409 28.4051C8.31991 27.7574 9.37742 27.7492 10.025 28.4051C10.6727 29.0609 10.6809 30.1184 10.025 30.766ZM22.3545 37.1603C21.6987 37.8161 20.6412 37.8161 19.9935 37.1603C19.3459 36.5044 19.3377 35.4469 19.9935 34.7993C20.6494 34.1517 21.7069 34.1435 22.3545 34.7993C23.0021 35.4551 23.0103 36.5126 22.3545 37.1603ZM19.2311 34.0451C18.5753 34.7009 17.5178 34.7009 16.8702 34.0451C16.2226 33.3893 16.2144 32.3318 16.8702 31.6842C17.526 31.0365 18.5835 31.0283 19.2311 31.6842C19.8788 32.34 19.887 33.3975 19.2311 34.0451ZM16.1078 30.9218C15.452 31.5776 14.3945 31.5776 13.7468 30.9218C13.0992 30.2659 13.091 29.2084 13.7468 28.5608C14.4027 27.9132 15.4602 27.905 16.1078 28.5608C16.7554 29.2166 16.7636 30.2741 16.1078 30.9218ZM12.9926 27.7984C12.3368 28.4542 11.2793 28.4542 10.6317 27.7984C9.98406 27.1426 9.97586 26.0851 10.6317 25.4375C11.2875 24.7898 12.345 24.7816 12.9926 25.4375C13.6403 26.0933 13.6485 27.1508 12.9926 27.7984ZM9.86929 24.6833C9.21347 25.3391 8.15595 25.3391 7.50833 24.6833C6.86071 24.0274 6.85251 22.9699 7.50833 22.3223C8.16415 21.6747 9.22166 21.6665 9.86929 22.3223C10.5169 22.9781 10.5251 24.0356 9.86929 24.6833ZM26.0681 37.3242C25.4123 36.6684 25.4123 35.6109 26.0681 34.9633C26.7239 34.3156 27.7814 34.3074 28.429 34.9633C29.0767 35.6191 29.0849 36.6766 28.429 37.3242C27.7732 37.9718 26.7157 37.98 26.0681 37.3242ZM43.2506 36.0864C44.3901 38.7998 44.7918 41.8576 44.9312 43.9398C44.9558 44.3087 44.7754 44.5465 44.6688 44.653C44.5623 44.7596 44.3245 44.94 43.9556 44.9154C41.8652 44.776 38.8074 44.3743 36.1022 43.2348C35.6349 43.0381 35.5611 42.6282 35.5447 42.4642C35.5447 42.3495 35.5447 42.0133 35.8152 41.7428C35.9464 41.6117 36.1431 41.4969 36.4301 41.4313C38.9386 40.8821 40.9962 39.0703 41.4225 36.5372C41.5947 35.5371 42.3161 35.5207 42.4882 35.5289C42.6522 35.5371 43.0621 35.6191 43.2588 36.0864H43.2506ZM37.3236 28.4378C36.6678 29.0937 35.6103 29.0937 34.9627 28.4378C34.315 27.782 34.3068 26.7245 34.9627 26.0769C35.6185 25.4293 36.676 25.4211 37.3236 26.0769C37.9712 26.7327 37.9794 27.7902 37.3236 28.4378ZM34.2003 25.3145C33.5445 25.9703 32.4869 25.9703 31.8393 25.3145C31.1917 24.6587 31.1835 23.6012 31.8393 22.9535C32.4951 22.3059 33.5527 22.2977 34.2003 22.9535C34.8479 23.6094 34.8561 24.6669 34.2003 25.3145ZM31.0769 22.1911C30.4211 22.847 29.3636 22.847 28.716 22.1911C28.0683 21.5353 28.0601 20.4778 28.716 19.8302C29.3718 19.1826 30.4293 19.1744 31.0769 19.8302C31.7245 20.486 31.7327 21.5435 31.0769 22.1911ZM27.9618 19.076C27.306 19.7318 26.2484 19.7318 25.6008 19.076C24.9532 18.4202 24.945 17.3627 25.6008 16.715C26.2566 16.0674 27.3141 16.0592 27.9618 16.715C28.6094 17.3708 28.6176 18.4284 27.9618 19.076ZM24.8384 15.9526C24.1826 16.6085 23.1251 16.6085 22.4775 15.9526C21.8298 15.2968 21.8216 14.2393 22.4775 13.5917C23.1333 12.9441 24.1908 12.9359 24.8384 13.5917C25.486 14.2475 25.4942 15.305 24.8384 15.9526ZM21.7151 12.8293C21.0592 13.4851 20.0017 13.4851 19.3541 12.8293C18.7065 12.1735 18.6983 11.116 19.3541 10.4683C20.0099 9.8207 21.0674 9.81251 21.7151 10.4683C22.3627 11.1241 22.3709 12.1817 21.7151 12.8293ZM18.5999 9.71413C17.9441 10.37 16.8866 10.37 16.239 9.71413C15.5913 9.05831 15.5831 8.0008 16.239 7.35318C16.8948 6.70555 17.9523 6.69735 18.5999 7.35318C19.2475 8.009 19.2557 9.06651 18.5999 9.71413ZM37.1597 22.3551C36.5039 23.0109 35.4463 23.0109 34.7987 22.3551C34.1511 21.6993 34.1429 20.6418 34.7987 19.9941C35.4545 19.3465 36.512 19.3383 37.1597 19.9941C37.8073 20.65 37.8155 21.7075 37.1597 22.3551ZM34.0445 19.2317C33.3887 19.8876 32.3312 19.8876 31.6836 19.2317C31.0359 18.5759 31.0277 17.5184 31.6836 16.8708C32.3394 16.2232 33.3969 16.215 34.0445 16.8708C34.6921 17.5266 34.7003 18.5841 34.0445 19.2317ZM30.9212 16.1084C30.2653 16.7642 29.2078 16.7642 28.5602 16.1084C27.9126 15.4526 27.9044 14.3951 28.5602 13.7474C29.216 13.0998 30.2735 13.0916 30.9212 13.7474C31.5688 14.4033 31.577 15.4608 30.9212 16.1084ZM27.7978 12.9932C27.142 13.6491 26.0845 13.6491 25.4369 12.9932C24.7892 12.3374 24.781 11.2799 25.4369 10.6323C26.0927 9.98466 27.1502 9.97646 27.7978 10.6323C28.4454 11.2881 28.4536 12.3456 27.7978 12.9932ZM24.6827 9.86989C24.0268 10.5257 22.9693 10.5257 22.3217 9.86989C21.6741 9.21407 21.6659 8.15656 22.3217 7.50893C22.9775 6.86131 24.035 6.85311 24.6827 7.50893C25.3303 8.16475 25.3385 9.22227 24.6827 9.86989ZM37.0039 16.2723C36.3481 16.9282 35.2906 16.9282 34.643 16.2723C33.9953 15.6165 33.9871 14.559 34.643 13.9114C35.2988 13.2638 36.3563 13.2556 37.0039 13.9114C37.6515 14.5672 37.6597 15.6247 37.0039 16.2723ZM33.8806 13.149C33.2247 13.8048 32.1672 13.8048 31.5196 13.149C30.872 12.4932 30.8638 11.4357 31.5196 10.788C32.1754 10.1404 33.2329 10.1322 33.8806 10.788C34.5282 11.4439 34.5364 12.5014 33.8806 13.149ZM30.7654 10.0256C30.1096 10.6815 29.0521 10.6815 28.4045 10.0256C27.7568 9.36983 27.7486 8.31231 28.4045 7.66469C29.0603 7.01707 30.1178 7.00887 30.7654 7.66469C31.413 8.32051 31.4212 9.37802 30.7654 10.0256Z" fill="black"/>
<path d="M42.7595 58.6798C41.6938 59.7456 40.7101 60.0899 39.8411 60.4014C39.2017 60.6309 38.6524 60.8195 38.2016 61.2785C37.349 62.1311 37.7835 63.6641 37.8982 64.0084C39.4886 63.9838 41.0708 63.369 42.2841 62.1557C44.2925 60.1472 44.6696 57.1141 43.4072 54.7285C43.9236 55.9418 43.981 57.4502 42.7513 58.6798H42.7595Z" fill="black"/>
<path d="M34.2181 57.2939C34.669 56.843 34.8658 56.2856 35.0953 55.6544C35.3986 54.7854 35.7511 53.8017 36.8168 52.7359C38.0465 51.5063 39.5549 51.5719 40.7682 52.0801C38.3826 50.8177 35.3494 51.1948 33.341 53.2032C32.1277 54.4165 31.5129 55.9987 31.4883 57.589C31.8326 57.7038 33.3656 58.1465 34.2181 57.2857V57.2939Z" fill="black"/>
<path d="M37.6363 60.7047C38.2183 60.1227 38.8741 59.8932 39.5791 59.639C40.4071 59.3439 41.2679 59.0406 42.2024 58.106C43.842 56.4665 42.4238 54.3187 41.8007 53.6875C41.1777 53.0562 39.0217 51.6462 37.3821 53.2858C36.4476 54.2203 36.1443 55.0811 35.8491 55.909C35.6032 56.6059 35.3655 57.2699 34.7834 57.8519C33.7751 58.8602 32.2585 58.6225 31.5371 58.434C31.7011 59.7948 32.2995 61.1064 33.3406 62.1476C34.3817 63.1887 35.6934 63.7871 37.0542 63.9511C36.8657 63.2297 36.6279 61.7049 37.6363 60.7047Z" fill="black"/>
</g>
<defs>
<clipPath id="clip0_3571_6359">
<rect width="64" height="64" fill="white"/>
</clipPath>
</defs>
</svg>
