<svg width="65" height="64" viewBox="0 0 65 64" fill="none" xmlns="http://www.w3.org/2000/svg">
<g clip-path="url(#clip0_3571_6353)">
<path d="M36.7895 8.32544C35.6092 9.50575 34.5197 9.88708 33.5573 10.2321C32.8491 10.4863 32.2408 10.6951 31.7414 11.2036C30.7972 12.1478 31.2784 13.8457 31.4055 14.227C33.1669 14.1998 34.9192 13.5188 36.2629 12.1751C38.4874 9.95064 38.905 6.5913 37.5068 3.94922C38.0788 5.29296 38.1423 6.96355 36.7804 8.32544H36.7895Z" fill="black"/>
<path d="M27.3281 6.79141C27.8275 6.29205 28.0454 5.67465 28.2996 4.97555C28.6355 4.01314 29.0259 2.92362 30.2062 1.74332C31.5681 0.38142 33.2387 0.454054 34.5825 1.01697C31.9404 -0.381242 28.581 0.0364064 26.3566 2.26084C25.0129 3.60457 24.3319 5.35688 24.3047 7.11826C24.686 7.24537 26.3838 7.73565 27.3281 6.78233V6.79141Z" fill="black"/>
<path d="M31.1144 10.5682C31.759 9.92359 32.4853 9.66937 33.2662 9.38791C34.1832 9.06105 35.1365 8.72512 36.1715 7.69008C37.9874 5.87422 36.4167 3.49544 35.7267 2.79634C35.0366 2.09723 32.6488 0.53559 30.8329 2.35145C29.7979 3.38649 29.4619 4.33982 29.1351 5.25683C28.8627 6.02857 28.5994 6.76399 27.9548 7.40862C26.838 8.52538 25.1584 8.26208 24.3594 8.05325C24.541 9.56042 25.2038 11.0131 26.3568 12.1662C27.5099 13.3192 28.9626 13.982 30.4697 14.1636C30.2609 13.3646 29.9976 11.6759 31.1144 10.5682Z" fill="black"/>
<path d="M37.4614 12.4206C37.2707 12.6657 37.0619 12.9018 36.844 13.1197C36.1267 13.837 35.3096 14.3817 34.4289 14.7812L34.1293 15.0808L34.0113 14.9628C33.6935 15.0899 33.3666 15.1898 33.0307 15.2715L33.4847 15.7254L31.0968 18.1133L28.709 15.7254L29.1448 15.2896C28.8088 15.2079 28.482 15.1081 28.1551 14.99L28.0643 15.0808L27.8555 14.872C26.9113 14.4725 26.0215 13.8914 25.2497 13.1197C24.478 12.3479 23.8969 11.4582 23.4974 10.5139L22.644 9.66047L23.0798 9.22467C22.9981 8.86149 22.9254 8.49832 22.8891 8.13515L21.9994 9.02492L19.6115 6.63706L21.9176 4.33092C22.0084 4.35816 22.0901 4.39448 22.1719 4.41263L23.0979 5.33872C23.4339 3.97683 24.1239 2.67849 25.1771 1.60713C18.1225 -1.37088 10.5231 -0.226889 5.07553 5.22069C-2.42397 12.7293 -1.5342 24.1056 7.24549 32.8853C11.5309 37.1708 17.6231 40.3485 23.5791 41.5016V41.547C28.4093 42.5094 40.7753 45.5056 46.2592 48.9375C45.9687 49.9272 46.2048 51.0258 46.9765 51.8066L58.3166 63.1466C59.4515 64.2816 61.2946 64.2816 62.4295 63.1466L63.4554 62.1207C64.5904 60.9858 64.5904 59.1427 63.4554 58.0078L52.1154 46.6677C51.3437 45.896 50.236 45.6599 49.2463 45.9504C46.5044 41.5561 44.0348 32.7491 42.6638 26.9293C42.3733 22.1354 40.4303 16.9421 37.4523 12.4206H37.4614ZM34.7739 15.7254L35.1189 15.3804C35.4549 15.9252 35.7636 16.4609 36.0541 17.0056L34.7739 15.7254ZM16.697 3.71353C18.0771 3.63181 19.4753 3.75892 20.8826 4.06762L18.9669 5.98335L16.697 3.71353ZM16.7152 35.3367C16.3793 35.1642 16.0343 34.9826 15.7074 34.7829L15.9344 34.5559L16.7152 35.3367ZM15.2988 33.9204L14.9084 34.3108C13.9369 33.7115 13.0018 33.0578 12.0938 32.3406L12.911 31.5234L15.2988 33.9113V33.9204ZM12.2663 30.8879L11.3856 31.7686C10.8409 31.3055 10.3234 30.8243 9.81493 30.325C9.51531 30.0253 9.24293 29.7166 8.96147 29.408L9.8694 28.5L12.2573 30.8879H12.2663ZM9.23385 27.8554L8.36224 28.727C7.59958 27.8282 6.92771 26.9021 6.34664 25.9578L6.846 25.4585L9.23385 27.8463V27.8554ZM6.20137 24.8229L5.88359 25.1407C5.64753 24.714 5.43871 24.2872 5.23896 23.8605L6.20137 24.8229ZM11.8215 4.90292C12.8383 4.44895 13.8915 4.1221 14.972 3.92235L12.911 5.98335L11.8215 4.89384V4.90292ZM8.17158 7.31801C9.04319 6.52811 9.97836 5.86532 10.9589 5.32964L12.2573 6.62798L9.8694 9.01584L8.1625 7.30893L8.17158 7.31801ZM10.514 9.66047L12.9019 7.27262L15.2897 9.66047L12.9019 12.0483L10.514 9.66047ZM13.5465 12.693L15.9344 10.3051L18.3222 12.693L15.9344 15.0808L13.5465 12.693ZM16.579 15.7254L18.9669 13.3376L21.3547 15.7254L18.9669 18.1133L16.579 15.7254ZM19.6115 18.7579L21.9994 16.3701L24.3872 18.7579L21.9994 21.1458L19.6115 18.7579ZM22.644 21.7904L25.0318 19.4026L27.4197 21.7904L25.0318 24.1783L22.644 21.7904ZM25.6765 24.8229L28.0643 22.435L30.4522 24.8229L28.0643 27.2108L25.6765 24.8229ZM28.709 27.8554L31.0968 25.4675L33.4847 27.8554L31.0968 30.2433L28.709 27.8554ZM31.7414 30.8879L34.1293 28.5L36.5172 30.8879L34.1293 33.2757L31.7414 30.8879ZM34.7739 33.9204L37.1618 31.5325L38.2604 32.6311C37.8246 33.766 37.2163 34.7557 36.4354 35.5365C36.4264 35.5456 36.4173 35.5546 36.4082 35.5637L34.7739 33.9294V33.9204ZM5.44779 10.6592C6.00162 9.69679 6.68257 8.78886 7.50879 7.9354L9.23385 9.66047L6.846 12.0483L5.45686 10.6592H5.44779ZM7.48155 12.693L9.8694 10.3051L12.2573 12.693L9.8694 15.0808L7.48155 12.693ZM10.514 15.7254L12.9019 13.3376L15.2897 15.7254L12.9019 18.1133L10.514 15.7254ZM13.5465 18.7579L15.9344 16.3701L18.3222 18.7579L15.9344 21.1458L13.5465 18.7579ZM16.579 21.7904L18.9669 19.4026L21.3547 21.7904L18.9669 24.1783L16.579 21.7904ZM19.6115 24.8229L21.9994 22.435L24.3872 24.8229L21.9994 27.2108L19.6115 24.8229ZM22.644 27.8554L25.0318 25.4675L27.4197 27.8554L25.0318 30.2433L22.644 27.8554ZM25.6765 30.8879L28.0643 28.5L30.4522 30.8879L28.0643 33.2757L25.6765 30.8879ZM28.709 33.9204L31.0968 31.5325L33.4847 33.9204L31.0968 36.3082L28.709 33.9204ZM31.7414 36.9438L34.1293 34.5559L35.7182 36.1448C34.8102 36.8621 33.748 37.3977 32.5586 37.7609L31.7414 36.9438ZM25.6492 38.2058C25.2951 38.1604 24.941 38.1059 24.587 38.0424L25.0409 37.5884L25.6583 38.2058H25.6492ZM24.3963 36.9438L23.5156 37.8245C22.299 37.5521 21.0642 37.1889 19.8385 36.7259L22.0084 34.5559L24.3963 36.9438ZM21.3638 33.9204L18.9759 36.3082L16.5881 33.9204L18.9759 31.5325L21.3638 33.9204ZM18.3313 30.8879L15.9435 33.2757L13.5556 30.8879L15.9435 28.5L18.3313 30.8879ZM15.2988 27.8554L12.911 30.2433L10.5231 27.8554L12.911 25.4675L15.2988 27.8554ZM12.2663 24.8229L9.87848 27.2108L7.49063 24.8229L9.87848 22.435L12.2663 24.8229ZM9.23385 21.7904L6.846 24.1783L4.45814 21.7904L6.846 19.4026L9.23385 21.7904ZM6.20137 18.7579L4.15852 20.8008C3.79535 19.3299 3.65008 17.8772 3.7318 16.4518L3.81351 16.3701L6.20137 18.7579ZM31.5417 38.0333C31.1876 38.1059 30.8335 38.1786 30.4703 38.224L31.1059 37.5884L31.5508 38.0333H31.5417ZM30.4522 36.9438L29.054 38.342C28.4093 38.3692 27.7465 38.3692 27.0656 38.3329L25.6765 36.9438L28.0643 34.5559L30.4522 36.9438ZM27.4197 33.9204L25.0318 36.3082L22.644 33.9204L25.0318 31.5325L27.4197 33.9204ZM24.3963 30.8879L22.0084 33.2757L19.6206 30.8879L22.0084 28.5L24.3963 30.8879ZM21.3638 27.8554L18.9759 30.2433L16.5881 27.8554L18.9759 25.4675L21.3638 27.8554ZM18.3313 24.8229L15.9435 27.2108L13.5556 24.8229L15.9435 22.435L18.3313 24.8229ZM15.2988 21.7904L12.911 24.1783L10.5231 21.7904L12.911 19.4026L15.2988 21.7904ZM12.2663 18.7579L9.87848 21.1458L7.49063 18.7579L9.87848 16.3701L12.2663 18.7579ZM9.23385 15.7254L6.846 18.1133L4.45814 15.7254L6.846 13.3376L9.23385 15.7254ZM6.20137 12.693L3.88615 15.0082C4.08589 13.7916 4.43998 12.6112 4.98474 11.4854L6.19229 12.693H6.20137ZM44.0984 43.7805C41.3292 42.582 38.1696 41.5288 35.1916 40.6663C36.6079 40.0489 37.9063 39.1954 39.014 38.0878C39.8674 37.2343 40.5574 36.281 41.1022 35.2459C41.9466 38.115 42.9544 41.1203 44.1074 43.7714L44.0984 43.7805ZM38.5691 31.6505L37.7973 30.8788L38.9322 29.7439C38.8505 30.4067 38.7325 31.0513 38.5691 31.6505ZM39.0321 27.3288C39.0321 27.3288 39.0321 27.3288 39.0321 27.3379C39.0412 27.6829 39.0503 28.0279 39.0321 28.3548L37.1527 30.2342L34.7648 27.8463L37.1527 25.4585L39.023 27.3288H39.0321ZM36.5172 24.8229L34.1293 27.2108L31.7414 24.8229L34.1293 22.435L36.5172 24.8229ZM33.4847 21.7904L31.0968 24.1783L28.709 21.7904L31.0968 19.4026L33.4847 21.7904ZM30.4522 18.7579L28.0643 21.1458L25.6765 18.7579L28.0643 16.3701L30.4522 18.7579ZM27.4288 15.7254L25.0409 18.1133L22.6531 15.7254L25.0409 13.3376L27.4288 15.7254ZM24.3963 12.693L22.0084 15.0808L19.6206 12.693L22.0084 10.3051L24.3963 12.693ZM21.3638 9.66047L18.9759 12.0483L16.5881 9.66047L18.9759 7.27262L21.3638 9.66047ZM18.3313 6.62798L15.9435 9.01584L13.5556 6.62798L15.9435 4.24013L18.3313 6.62798ZM31.7414 18.7579L34.1293 16.3701L36.5172 18.7579L34.1293 21.1458L31.7414 18.7579ZM38.6599 25.6764L37.7973 24.8138L38.3602 24.2509C38.4238 24.5778 38.5237 25.059 38.6599 25.6673V25.6764ZM37.1618 24.1783L34.7739 21.7904L37.1618 19.4026L37.2163 19.457C37.7065 20.6373 38.0969 21.8086 38.3875 22.9617L37.1618 24.1874V24.1783Z" fill="black"/>
</g>
<defs>
<clipPath id="clip0_3571_6353">
<rect width="64.3087" height="64" fill="white"/>
</clipPath>
</defs>
</svg>
